<?xml version="1.0" encoding="utf-8" standalone="no"?>
<!DOCTYPE svg PUBLIC "-//W3C//DTD SVG 1.1//EN"
  "http://www.w3.org/Graphics/SVG/1.1/DTD/svg11.dtd">
<svg xmlns:xlink="http://www.w3.org/1999/xlink" width="604.8pt" height="604.8pt" viewBox="0 0 604.8 604.8" xmlns="http://www.w3.org/2000/svg" version="1.1">
 <metadata>
  <rdf:RDF xmlns:dc="http://purl.org/dc/elements/1.1/" xmlns:cc="http://creativecommons.org/ns#" xmlns:rdf="http://www.w3.org/1999/02/22-rdf-syntax-ns#">
   <cc:Work>
    <dc:type rdf:resource="http://purl.org/dc/dcmitype/StillImage"/>
    <dc:date>2026-04-20T13:22:08.385715</dc:date>
    <dc:format>image/svg+xml</dc:format>
    <dc:creator>
     <cc:Agent>
      <dc:title>Matplotlib v3.10.8, https://matplotlib.org/</dc:title>
     </cc:Agent>
    </dc:creator>
   </cc:Work>
  </rdf:RDF>
 </metadata>
 <defs>
  <style type="text/css">*{stroke-linejoin: round; stroke-linecap: butt}</style>
 </defs>
 <g id="figure_1">
  <g id="patch_1">
   <path d="M 0 604.8 
L 604.8 604.8 
L 604.8 0 
L 0 0 
z
" style="fill: #ffffff"/>
  </g>
  <g id="axes_1">
   <g id="patch_2">
    <path d="M 345.697334 119.4305 
Q 413.901398 148.927139 461.922463 203.418967 
" clip-path="url(#p5ec54c91d9)" style="fill: none; stroke: #222222; stroke-width: 1.5; stroke-linecap: round"/>
    <path d="M 460.091847 196.501681 
L 461.922463 203.418967 
L 455.290265 200.733088 
z
" clip-path="url(#p5ec54c91d9)" style="fill: #222222; stroke: #222222; stroke-width: 1.5; stroke-linecap: round"/>
   </g>
   <g id="patch_3">
    <path d="M 489.793947 287.037527 
Q 482.817191 361.018409 445.831708 423.528057 
" clip-path="url(#p5ec54c91d9)" style="fill: none; stroke: #222222; stroke-width: 1.5; stroke-linecap: round"/>
    <path d="M 451.844747 419.649479 
L 445.831708 423.528057 
L 446.336669 416.390479 
z
" clip-path="url(#p5ec54c91d9)" style="fill: #222222; stroke: #222222; stroke-width: 1.5; stroke-linecap: round"/>
   </g>
   <g id="patch_4">
    <path d="M 159.824947 424.975901 
Q 121.98439 361.023275 115.164025 288.712386 
" clip-path="url(#p5ec54c91d9)" style="fill: none; stroke: #222222; stroke-width: 1.5; stroke-linecap: round"/>
    <path d="M 112.579146 295.384597 
L 115.164025 288.712386 
L 118.950866 294.783617 
z
" clip-path="url(#p5ec54c91d9)" style="fill: #222222; stroke: #222222; stroke-width: 1.5; stroke-linecap: round"/>
   </g>
   <g id="patch_5">
    <path d="M 141.765277 204.681103 
Q 190.894463 148.930146 257.558596 120.098301 
" clip-path="url(#p5ec54c91d9)" style="fill: none; stroke: #222222; stroke-width: 1.5; stroke-linecap: round"/>
    <path d="M 250.414175 119.701761 
L 257.558596 120.098301 
L 252.954711 125.575914 
z
" clip-path="url(#p5ec54c91d9)" style="fill: #222222; stroke: #222222; stroke-width: 1.5; stroke-linecap: round"/>
   </g>
   <g id="patch_6">
    <path d="M 392.036021 425.773399 
Q 361.326219 383.504983 331.602163 342.593329 
" clip-path="url(#p5ec54c91d9)" style="fill: none; stroke: #d97706; stroke-width: 1.5; stroke-linecap: round"/>
    <path d="M 332.628513 348.769623 
L 331.602163 342.593329 
L 337.159008 345.478026 
z
" clip-path="url(#p5ec54c91d9)" style="fill: #d97706; stroke: #d97706; stroke-width: 1.5; stroke-linecap: round"/>
   </g>
   <g id="patch_7">
    <path d="M 274.187681 341.230925 
Q 243.475497 383.502621 213.749057 424.417555 
" clip-path="url(#p5ec54c91d9)" style="fill: none; stroke: #d97706; stroke-width: 1.5; stroke-linecap: round"/>
    <path d="M 219.305902 421.532858 
L 213.749057 424.417555 
L 214.775407 418.241261 
z
" clip-path="url(#p5ec54c91d9)" style="fill: #d97706; stroke: #d97706; stroke-width: 1.5; stroke-linecap: round"/>
   </g>
   <g id="patch_8">
    <path d="M 255.066207 136.222759 
L 349.733793 136.222759 
Q 358.895172 136.222759 358.895172 127.061379 
L 358.895172 80.745517 
Q 358.895172 71.584138 349.733793 71.584138 
L 255.066207 71.584138 
Q 245.904828 71.584138 245.904828 80.745517 
L 245.904828 127.061379 
Q 245.904828 136.222759 255.066207 136.222759 
z
" clip-path="url(#p5ec54c91d9)" style="fill: #ffffff; stroke: #222222; stroke-width: 1.6; stroke-linejoin: miter"/>
   </g>
   <g id="patch_9">
    <path d="M 443.847646 273.380503 
L 538.515232 273.380503 
Q 547.676611 273.380503 547.676611 264.219123 
L 547.676611 217.903261 
Q 547.676611 208.741882 538.515232 208.741882 
L 443.847646 208.741882 
Q 434.686267 208.741882 434.686267 217.903261 
L 434.686267 264.219123 
Q 434.686267 273.380503 443.847646 273.380503 
z
" clip-path="url(#p5ec54c91d9)" style="fill: #ffffff; stroke: #222222; stroke-width: 1.6; stroke-linejoin: miter"/>
   </g>
   <g id="patch_10">
    <path d="M 371.739553 495.306394 
L 466.407139 495.306394 
Q 475.568518 495.306394 475.568518 486.145015 
L 475.568518 439.829153 
Q 475.568518 430.667773 466.407139 430.667773 
L 371.739553 430.667773 
Q 362.578173 430.667773 362.578173 439.829153 
L 362.578173 486.145015 
Q 362.578173 495.306394 371.739553 495.306394 
z
" clip-path="url(#p5ec54c91d9)" style="fill: #ffffff; stroke: #222222; stroke-width: 1.6; stroke-linejoin: miter"/>
   </g>
   <g id="patch_11">
    <path d="M 138.392861 495.306394 
L 233.060447 495.306394 
Q 242.221827 495.306394 242.221827 486.145015 
L 242.221827 439.829153 
Q 242.221827 430.667773 233.060447 430.667773 
L 138.392861 430.667773 
Q 129.231482 430.667773 129.231482 439.829153 
L 129.231482 486.145015 
Q 129.231482 495.306394 138.392861 495.306394 
z
" clip-path="url(#p5ec54c91d9)" style="fill: #ffffff; stroke: #222222; stroke-width: 1.6; stroke-linejoin: miter"/>
   </g>
   <g id="patch_12">
    <path d="M 66.284768 273.380503 
L 160.952354 273.380503 
Q 170.113733 273.380503 170.113733 264.219123 
L 170.113733 217.903261 
Q 170.113733 208.741882 160.952354 208.741882 
L 66.284768 208.741882 
Q 57.123389 208.741882 57.123389 217.903261 
L 57.123389 264.219123 
Q 57.123389 273.380503 66.284768 273.380503 
z
" clip-path="url(#p5ec54c91d9)" style="fill: #ffffff; stroke: #222222; stroke-width: 1.6; stroke-linejoin: miter"/>
   </g>
   <g id="patch_13">
    <path d="M 242.342069 338.282069 
L 362.457931 338.282069 
Q 372.637241 338.282069 372.637241 328.102759 
L 372.637241 276.697241 
Q 372.637241 266.517931 362.457931 266.517931 
L 242.342069 266.517931 
Q 232.162759 266.517931 232.162759 276.697241 
L 232.162759 328.102759 
Q 232.162759 338.282069 242.342069 338.282069 
z
" clip-path="url(#p5ec54c91d9)" style="fill: #fff7ed; stroke: #d97706; stroke-width: 1.8; stroke-linejoin: miter"/>
   </g>
   <g id="text_1">
    <!-- Sense -->
    <g style="fill: #222222" transform="translate(281.135156 96.523004) scale(0.15 -0.15)">
     <defs>
      <path id="Helvetica-53" d="M 894 1481 
Q 916 1091 1078 847 
Q 1388 391 2169 391 
Q 2519 391 2806 491 
Q 3363 684 3363 1184 
Q 3363 1559 3128 1719 
Q 2891 1875 2384 1991 
L 1763 2131 
Q 1153 2269 900 2434 
Q 463 2722 463 3294 
Q 463 3913 891 4309 
Q 1319 4706 2103 4706 
Q 2825 4706 3329 4357 
Q 3834 4009 3834 3244 
L 3250 3244 
Q 3203 3613 3050 3809 
Q 2766 4169 2084 4169 
Q 1534 4169 1293 3937 
Q 1053 3706 1053 3400 
Q 1053 3063 1334 2906 
Q 1519 2806 2169 2656 
L 2813 2509 
Q 3278 2403 3531 2219 
Q 3969 1897 3969 1284 
Q 3969 522 3414 194 
Q 2859 -134 2125 -134 
Q 1269 -134 784 303 
Q 300 738 309 1481 
L 894 1481 
z
M 2150 4716 
L 2150 4716 
z
" transform="scale(0.015625)"/>
      <path id="Helvetica-65" d="M 1806 3422 
Q 2163 3422 2497 3255 
Q 2831 3088 3006 2822 
Q 3175 2569 3231 2231 
Q 3281 2000 3281 1494 
L 828 1494 
Q 844 984 1069 676 
Q 1294 369 1766 369 
Q 2206 369 2469 659 
Q 2619 828 2681 1050 
L 3234 1050 
Q 3213 866 3089 639 
Q 2966 413 2813 269 
Q 2556 19 2178 -69 
Q 1975 -119 1719 -119 
Q 1094 -119 659 336 
Q 225 791 225 1609 
Q 225 2416 662 2919 
Q 1100 3422 1806 3422 
z
M 2703 1941 
Q 2669 2306 2544 2525 
Q 2313 2931 1772 2931 
Q 1384 2931 1121 2651 
Q 859 2372 844 1941 
L 2703 1941 
z
M 1753 3428 
L 1753 3428 
z
" transform="scale(0.015625)"/>
      <path id="Helvetica-6e" d="M 413 3347 
L 947 3347 
L 947 2872 
Q 1184 3166 1450 3294 
Q 1716 3422 2041 3422 
Q 2753 3422 3003 2925 
Q 3141 2653 3141 2147 
L 3141 0 
L 2569 0 
L 2569 2109 
Q 2569 2416 2478 2603 
Q 2328 2916 1934 2916 
Q 1734 2916 1606 2875 
Q 1375 2806 1200 2600 
Q 1059 2434 1017 2257 
Q 975 2081 975 1753 
L 975 0 
L 413 0 
L 413 3347 
z
M 1734 3428 
L 1734 3428 
z
" transform="scale(0.015625)"/>
      <path id="Helvetica-73" d="M 747 1050 
Q 772 769 888 619 
Q 1100 347 1625 347 
Q 1938 347 2175 483 
Q 2413 619 2413 903 
Q 2413 1119 2222 1231 
Q 2100 1300 1741 1391 
L 1294 1503 
Q 866 1609 663 1741 
Q 300 1969 300 2372 
Q 300 2847 642 3140 
Q 984 3434 1563 3434 
Q 2319 3434 2653 2991 
Q 2863 2709 2856 2384 
L 2325 2384 
Q 2309 2575 2191 2731 
Q 1997 2953 1519 2953 
Q 1200 2953 1036 2831 
Q 872 2709 872 2509 
Q 872 2291 1088 2159 
Q 1213 2081 1456 2022 
L 1828 1931 
Q 2434 1784 2641 1647 
Q 2969 1431 2969 969 
Q 2969 522 2630 197 
Q 2291 -128 1597 -128 
Q 850 -128 539 211 
Q 228 550 206 1050 
L 747 1050 
z
M 1578 3428 
L 1578 3428 
z
" transform="scale(0.015625)"/>
     </defs>
     <use xlink:href="#Helvetica-53"/>
     <use xlink:href="#Helvetica-65" transform="translate(66.699219 0)"/>
     <use xlink:href="#Helvetica-6e" transform="translate(122.314453 0)"/>
     <use xlink:href="#Helvetica-73" transform="translate(177.929688 0)"/>
     <use xlink:href="#Helvetica-65" transform="translate(227.929688 0)"/>
    </g>
   </g>
   <g id="text_2">
    <!-- perceive local world -->
    <g style="fill: #555555" transform="translate(258.49375 117.65694) scale(0.1 -0.1)">
     <defs>
      <path id="Helvetica-70" d="M 1825 378 
Q 2219 378 2480 708 
Q 2741 1038 2741 1694 
Q 2741 2094 2625 2381 
Q 2406 2934 1825 2934 
Q 1241 2934 1025 2350 
Q 909 2038 909 1556 
Q 909 1169 1025 897 
Q 1244 378 1825 378 
z
M 369 3331 
L 916 3331 
L 916 2888 
Q 1084 3116 1284 3241 
Q 1569 3428 1953 3428 
Q 2522 3428 2919 2992 
Q 3316 2556 3316 1747 
Q 3316 653 2744 184 
Q 2381 -113 1900 -113 
Q 1522 -113 1266 53 
Q 1116 147 931 375 
L 931 -1334 
L 369 -1334 
L 369 3331 
z
" transform="scale(0.015625)"/>
      <path id="Helvetica-72" d="M 428 3347 
L 963 3347 
L 963 2769 
Q 1028 2938 1284 3180 
Q 1541 3422 1875 3422 
Q 1891 3422 1928 3419 
Q 1966 3416 2056 3406 
L 2056 2813 
Q 2006 2822 1964 2825 
Q 1922 2828 1872 2828 
Q 1447 2828 1219 2554 
Q 991 2281 991 1925 
L 991 0 
L 428 0 
L 428 3347 
z
" transform="scale(0.015625)"/>
      <path id="Helvetica-63" d="M 1703 3444 
Q 2269 3444 2623 3169 
Q 2978 2894 3050 2222 
L 2503 2222 
Q 2453 2531 2275 2736 
Q 2097 2941 1703 2941 
Q 1166 2941 934 2416 
Q 784 2075 784 1575 
Q 784 1072 996 728 
Q 1209 384 1666 384 
Q 2016 384 2220 598 
Q 2425 813 2503 1184 
L 3050 1184 
Q 2956 519 2581 211 
Q 2206 -97 1622 -97 
Q 966 -97 575 383 
Q 184 863 184 1581 
Q 184 2463 612 2953 
Q 1041 3444 1703 3444 
z
M 1616 3428 
L 1616 3428 
z
" transform="scale(0.015625)"/>
      <path id="Helvetica-69" d="M 413 3331 
L 984 3331 
L 984 0 
L 413 0 
L 413 3331 
z
M 413 4591 
L 984 4591 
L 984 3953 
L 413 3953 
L 413 4591 
z
" transform="scale(0.015625)"/>
      <path id="Helvetica-76" d="M 688 3347 
L 1581 622 
L 2516 3347 
L 3131 3347 
L 1869 0 
L 1269 0 
L 34 3347 
L 688 3347 
z
" transform="scale(0.015625)"/>
      <path id="Helvetica-20" transform="scale(0.015625)"/>
      <path id="Helvetica-6c" d="M 428 4591 
L 991 4591 
L 991 0 
L 428 0 
L 428 4591 
z
" transform="scale(0.015625)"/>
      <path id="Helvetica-6f" d="M 1741 363 
Q 2300 363 2508 786 
Q 2716 1209 2716 1728 
Q 2716 2197 2566 2491 
Q 2328 2953 1747 2953 
Q 1231 2953 997 2559 
Q 763 2166 763 1609 
Q 763 1075 997 719 
Q 1231 363 1741 363 
z
M 1763 3444 
Q 2409 3444 2856 3012 
Q 3303 2581 3303 1744 
Q 3303 934 2909 406 
Q 2516 -122 1688 -122 
Q 997 -122 590 345 
Q 184 813 184 1600 
Q 184 2444 612 2944 
Q 1041 3444 1763 3444 
z
M 1744 3428 
L 1744 3428 
z
" transform="scale(0.015625)"/>
      <path id="Helvetica-61" d="M 844 891 
Q 844 647 1022 506 
Q 1200 366 1444 366 
Q 1741 366 2019 503 
Q 2488 731 2488 1250 
L 2488 1703 
Q 2384 1638 2221 1594 
Q 2059 1550 1903 1531 
L 1563 1488 
Q 1256 1447 1103 1359 
Q 844 1213 844 891 
z
M 2206 2028 
Q 2400 2053 2466 2191 
Q 2503 2266 2503 2406 
Q 2503 2694 2298 2823 
Q 2094 2953 1713 2953 
Q 1272 2953 1088 2716 
Q 984 2584 953 2325 
L 428 2325 
Q 444 2944 830 3186 
Q 1216 3428 1725 3428 
Q 2316 3428 2684 3203 
Q 3050 2978 3050 2503 
L 3050 575 
Q 3050 488 3086 434 
Q 3122 381 3238 381 
Q 3275 381 3322 386 
Q 3369 391 3422 400 
L 3422 -16 
Q 3291 -53 3222 -62 
Q 3153 -72 3034 -72 
Q 2744 -72 2613 134 
Q 2544 244 2516 444 
Q 2344 219 2022 53 
Q 1700 -113 1313 -113 
Q 847 -113 551 170 
Q 256 453 256 878 
Q 256 1344 547 1600 
Q 838 1856 1309 1916 
L 2206 2028 
z
M 1741 3428 
L 1741 3428 
z
" transform="scale(0.015625)"/>
      <path id="Helvetica-77" d="M 672 3347 
L 1316 709 
L 1969 3347 
L 2600 3347 
L 3256 725 
L 3941 3347 
L 4503 3347 
L 3531 0 
L 2947 0 
L 2266 2591 
L 1606 0 
L 1022 0 
L 56 3347 
L 672 3347 
z
" transform="scale(0.015625)"/>
      <path id="Helvetica-64" d="M 769 1634 
Q 769 1097 997 734 
Q 1225 372 1728 372 
Q 2119 372 2370 708 
Q 2622 1044 2622 1672 
Q 2622 2306 2362 2611 
Q 2103 2916 1722 2916 
Q 1297 2916 1033 2591 
Q 769 2266 769 1634 
z
M 1616 3406 
Q 2000 3406 2259 3244 
Q 2409 3150 2600 2916 
L 2600 4606 
L 3141 4606 
L 3141 0 
L 2634 0 
L 2634 466 
Q 2438 156 2169 18 
Q 1900 -119 1553 -119 
Q 994 -119 584 351 
Q 175 822 175 1603 
Q 175 2334 548 2870 
Q 922 3406 1616 3406 
z
" transform="scale(0.015625)"/>
     </defs>
     <use xlink:href="#Helvetica-70"/>
     <use xlink:href="#Helvetica-65" transform="translate(55.615234 0)"/>
     <use xlink:href="#Helvetica-72" transform="translate(111.230469 0)"/>
     <use xlink:href="#Helvetica-63" transform="translate(144.53125 0)"/>
     <use xlink:href="#Helvetica-65" transform="translate(194.53125 0)"/>
     <use xlink:href="#Helvetica-69" transform="translate(250.146484 0)"/>
     <use xlink:href="#Helvetica-76" transform="translate(272.363281 0)"/>
     <use xlink:href="#Helvetica-65" transform="translate(322.363281 0)"/>
     <use xlink:href="#Helvetica-20" transform="translate(377.978516 0)"/>
     <use xlink:href="#Helvetica-6c" transform="translate(405.761719 0)"/>
     <use xlink:href="#Helvetica-6f" transform="translate(427.978516 0)"/>
     <use xlink:href="#Helvetica-63" transform="translate(483.59375 0)"/>
     <use xlink:href="#Helvetica-61" transform="translate(533.59375 0)"/>
     <use xlink:href="#Helvetica-6c" transform="translate(589.208984 0)"/>
     <use xlink:href="#Helvetica-20" transform="translate(611.425781 0)"/>
     <use xlink:href="#Helvetica-77" transform="translate(639.208984 0)"/>
     <use xlink:href="#Helvetica-6f" transform="translate(711.425781 0)"/>
     <use xlink:href="#Helvetica-72" transform="translate(767.041016 0)"/>
     <use xlink:href="#Helvetica-6c" transform="translate(800.341797 0)"/>
     <use xlink:href="#Helvetica-64" transform="translate(822.558594 0)"/>
    </g>
   </g>
   <g id="text_3">
    <!-- Project -->
    <g style="fill: #222222" transform="translate(467.840033 233.661998) scale(0.15 -0.15)">
     <defs>
      <path id="Helvetica-50" d="M 547 4591 
L 2613 4591 
Q 3225 4591 3600 4245 
Q 3975 3900 3975 3275 
Q 3975 2738 3640 2339 
Q 3306 1941 2613 1941 
L 1169 1941 
L 1169 0 
L 547 0 
L 547 4591 
z
M 3347 3272 
Q 3347 3778 2972 3959 
Q 2766 4056 2406 4056 
L 1169 4056 
L 1169 2466 
L 2406 2466 
Q 2825 2466 3086 2644 
Q 3347 2822 3347 3272 
z
" transform="scale(0.015625)"/>
      <path id="Helvetica-6a" d="M 975 3941 
L 413 3941 
L 413 4591 
L 975 4591 
L 975 3941 
z
M -119 -847 
Q 259 -834 336 -779 
Q 413 -725 413 -438 
L 413 3331 
L 975 3331 
L 975 -497 
Q 975 -863 856 -1044 
Q 659 -1350 109 -1350 
Q 69 -1350 23 -1347 
Q -22 -1344 -119 -1334 
L -119 -847 
z
" transform="scale(0.015625)"/>
      <path id="Helvetica-74" d="M 525 4281 
L 1094 4281 
L 1094 3347 
L 1628 3347 
L 1628 2888 
L 1094 2888 
L 1094 703 
Q 1094 528 1213 469 
Q 1278 434 1431 434 
Q 1472 434 1519 436 
Q 1566 438 1628 444 
L 1628 0 
Q 1531 -28 1426 -40 
Q 1322 -53 1200 -53 
Q 806 -53 665 148 
Q 525 350 525 672 
L 525 2888 
L 72 2888 
L 72 3347 
L 525 3347 
L 525 4281 
z
" transform="scale(0.015625)"/>
     </defs>
     <use xlink:href="#Helvetica-50"/>
     <use xlink:href="#Helvetica-72" transform="translate(66.699219 0)"/>
     <use xlink:href="#Helvetica-6f" transform="translate(100 0)"/>
     <use xlink:href="#Helvetica-6a" transform="translate(155.615234 0)"/>
     <use xlink:href="#Helvetica-65" transform="translate(177.832031 0)"/>
     <use xlink:href="#Helvetica-63" transform="translate(233.447266 0)"/>
     <use xlink:href="#Helvetica-74" transform="translate(283.447266 0)"/>
    </g>
   </g>
   <g id="text_4">
    <!-- compress to MVR -->
    <g style="fill: #555555" transform="translate(451.451751 254.802965) scale(0.1 -0.1)">
     <defs>
      <path id="Helvetica-6d" d="M 413 3347 
L 969 3347 
L 969 2872 
Q 1169 3119 1331 3231 
Q 1609 3422 1963 3422 
Q 2363 3422 2606 3225 
Q 2744 3113 2856 2894 
Q 3044 3163 3297 3292 
Q 3550 3422 3866 3422 
Q 4541 3422 4784 2934 
Q 4916 2672 4916 2228 
L 4916 0 
L 4331 0 
L 4331 2325 
Q 4331 2659 4164 2784 
Q 3997 2909 3756 2909 
Q 3425 2909 3186 2687 
Q 2947 2466 2947 1947 
L 2947 0 
L 2375 0 
L 2375 2184 
Q 2375 2525 2294 2681 
Q 2166 2916 1816 2916 
Q 1497 2916 1236 2669 
Q 975 2422 975 1775 
L 975 0 
L 413 0 
L 413 3347 
z
" transform="scale(0.015625)"/>
      <path id="Helvetica-4d" d="M 472 4591 
L 1363 4591 
L 2681 709 
L 3991 4591 
L 4872 4591 
L 4872 0 
L 4281 0 
L 4281 2709 
Q 4281 2850 4287 3175 
Q 4294 3500 4294 3872 
L 2984 0 
L 2369 0 
L 1050 3872 
L 1050 3731 
Q 1050 3563 1058 3217 
Q 1066 2872 1066 2709 
L 1066 0 
L 472 0 
L 472 4591 
z
" transform="scale(0.015625)"/>
      <path id="Helvetica-56" d="M 850 4591 
L 2169 681 
L 3472 4591 
L 4169 4591 
L 2494 0 
L 1834 0 
L 163 4591 
L 850 4591 
z
" transform="scale(0.015625)"/>
      <path id="Helvetica-52" d="M 2622 2488 
Q 3059 2488 3314 2663 
Q 3569 2838 3569 3294 
Q 3569 3784 3213 3963 
Q 3022 4056 2703 4056 
L 1184 4056 
L 1184 2488 
L 2622 2488 
z
M 563 4591 
L 2688 4591 
Q 3213 4591 3553 4438 
Q 4200 4144 4200 3353 
Q 4200 2941 4029 2678 
Q 3859 2416 3553 2256 
Q 3822 2147 3958 1969 
Q 4094 1791 4109 1391 
L 4131 775 
Q 4141 513 4175 384 
Q 4231 166 4375 103 
L 4375 0 
L 3613 0 
Q 3581 59 3562 153 
Q 3544 247 3531 516 
L 3494 1281 
Q 3472 1731 3159 1884 
Q 2981 1969 2600 1969 
L 1184 1969 
L 1184 0 
L 563 0 
L 563 4591 
z
" transform="scale(0.015625)"/>
     </defs>
     <use xlink:href="#Helvetica-63"/>
     <use xlink:href="#Helvetica-6f" transform="translate(50 0)"/>
     <use xlink:href="#Helvetica-6d" transform="translate(105.615234 0)"/>
     <use xlink:href="#Helvetica-70" transform="translate(188.916016 0)"/>
     <use xlink:href="#Helvetica-72" transform="translate(244.53125 0)"/>
     <use xlink:href="#Helvetica-65" transform="translate(277.832031 0)"/>
     <use xlink:href="#Helvetica-73" transform="translate(333.447266 0)"/>
     <use xlink:href="#Helvetica-73" transform="translate(383.447266 0)"/>
     <use xlink:href="#Helvetica-20" transform="translate(433.447266 0)"/>
     <use xlink:href="#Helvetica-74" transform="translate(461.230469 0)"/>
     <use xlink:href="#Helvetica-6f" transform="translate(489.013672 0)"/>
     <use xlink:href="#Helvetica-20" transform="translate(544.628906 0)"/>
     <use xlink:href="#Helvetica-4d" transform="translate(572.412109 0)"/>
     <use xlink:href="#Helvetica-56" transform="translate(655.712891 0)"/>
     <use xlink:href="#Helvetica-52" transform="translate(722.412109 0)"/>
    </g>
   </g>
   <g id="text_5">
    <!-- Compose -->
    <g style="fill: #222222" transform="translate(386.976861 455.753124) scale(0.15 -0.15)">
     <defs>
      <path id="Helvetica-43" d="M 2422 4716 
Q 3294 4716 3775 4256 
Q 4256 3797 4309 3213 
L 3703 3213 
Q 3600 3656 3292 3915 
Q 2984 4175 2428 4175 
Q 1750 4175 1333 3698 
Q 916 3222 916 2238 
Q 916 1431 1292 929 
Q 1669 428 2416 428 
Q 3103 428 3463 956 
Q 3653 1234 3747 1688 
L 4353 1688 
Q 4272 963 3816 472 
Q 3269 -119 2341 -119 
Q 1541 -119 997 366 
Q 281 1006 281 2344 
Q 281 3359 819 4009 
Q 1400 4716 2422 4716 
z
M 2297 4716 
L 2297 4716 
z
" transform="scale(0.015625)"/>
     </defs>
     <use xlink:href="#Helvetica-43"/>
     <use xlink:href="#Helvetica-6f" transform="translate(72.216797 0)"/>
     <use xlink:href="#Helvetica-6d" transform="translate(127.832031 0)"/>
     <use xlink:href="#Helvetica-70" transform="translate(211.132812 0)"/>
     <use xlink:href="#Helvetica-6f" transform="translate(266.748047 0)"/>
     <use xlink:href="#Helvetica-73" transform="translate(322.363281 0)"/>
     <use xlink:href="#Helvetica-65" transform="translate(372.363281 0)"/>
    </g>
   </g>
   <g id="text_6">
    <!-- merge via $\Gamma$ -->
    <g style="fill: #555555" transform="translate(392.573346 476.634325) scale(0.1 -0.1)">
     <defs>
      <path id="Helvetica-67" d="M 1594 3406 
Q 1988 3406 2281 3213 
Q 2441 3103 2606 2894 
L 2606 3316 
L 3125 3316 
L 3125 272 
Q 3125 -366 2938 -734 
Q 2588 -1416 1616 -1416 
Q 1075 -1416 706 -1173 
Q 338 -931 294 -416 
L 866 -416 
Q 906 -641 1028 -763 
Q 1219 -950 1628 -950 
Q 2275 -950 2475 -494 
Q 2594 -225 2584 466 
Q 2416 209 2178 84 
Q 1941 -41 1550 -41 
Q 1006 -41 598 345 
Q 191 731 191 1622 
Q 191 2463 602 2934 
Q 1013 3406 1594 3406 
z
M 2606 1688 
Q 2606 2309 2350 2609 
Q 2094 2909 1697 2909 
Q 1103 2909 884 2353 
Q 769 2056 769 1575 
Q 769 1009 998 714 
Q 1228 419 1616 419 
Q 2222 419 2469 966 
Q 2606 1275 2606 1688 
z
M 1659 3428 
L 1659 3428 
z
" transform="scale(0.015625)"/>
      <path id="Cmr10-a1" d="M 197 0 
L 197 225 
Q 856 225 856 428 
L 856 3944 
Q 856 4147 197 4147 
L 197 4372 
L 3547 4372 
L 3725 2906 
L 3541 2906 
Q 3494 3313 3433 3534 
Q 3372 3756 3247 3892 
Q 3122 4028 2897 4087 
Q 2672 4147 2272 4147 
L 1778 4147 
Q 1663 4147 1598 4137 
Q 1534 4128 1493 4083 
Q 1453 4038 1453 3944 
L 1453 428 
Q 1453 225 2272 225 
L 2272 0 
L 197 0 
z
" transform="scale(0.015625)"/>
     </defs>
     <use xlink:href="#Helvetica-6d" transform="translate(0 0.265625)"/>
     <use xlink:href="#Helvetica-65" transform="translate(83.300781 0.265625)"/>
     <use xlink:href="#Helvetica-72" transform="translate(138.916016 0.265625)"/>
     <use xlink:href="#Helvetica-67" transform="translate(172.216797 0.265625)"/>
     <use xlink:href="#Helvetica-65" transform="translate(227.832031 0.265625)"/>
     <use xlink:href="#Helvetica-20" transform="translate(283.447266 0.265625)"/>
     <use xlink:href="#Helvetica-76" transform="translate(311.230469 0.265625)"/>
     <use xlink:href="#Helvetica-69" transform="translate(361.230469 0.265625)"/>
     <use xlink:href="#Helvetica-61" transform="translate(383.447266 0.265625)"/>
     <use xlink:href="#Helvetica-20" transform="translate(439.0625 0.265625)"/>
     <use xlink:href="#Cmr10-a1" transform="translate(466.845703 0.265625)"/>
    </g>
   </g>
   <g id="text_7">
    <!-- Infer -->
    <g style="fill: #222222" transform="translate(170.720795 455.606639) scale(0.15 -0.15)">
     <defs>
      <path id="Helvetica-49" d="M 628 4591 
L 1256 4591 
L 1256 0 
L 628 0 
L 628 4591 
z
" transform="scale(0.015625)"/>
      <path id="Helvetica-66" d="M 553 3856 
Q 566 4206 675 4369 
Q 872 4656 1434 4656 
Q 1488 4656 1544 4653 
Q 1600 4650 1672 4644 
L 1672 4131 
Q 1584 4138 1545 4139 
Q 1506 4141 1472 4141 
Q 1216 4141 1166 4008 
Q 1116 3875 1116 3331 
L 1672 3331 
L 1672 2888 
L 1109 2888 
L 1109 0 
L 553 0 
L 553 2888 
L 88 2888 
L 88 3331 
L 553 3331 
L 553 3856 
z
" transform="scale(0.015625)"/>
     </defs>
     <use xlink:href="#Helvetica-49"/>
     <use xlink:href="#Helvetica-6e" transform="translate(27.783203 0)"/>
     <use xlink:href="#Helvetica-66" transform="translate(83.398438 0)"/>
     <use xlink:href="#Helvetica-65" transform="translate(111.181641 0)"/>
     <use xlink:href="#Helvetica-72" transform="translate(166.796875 0)"/>
    </g>
   </g>
   <g id="text_8">
    <!-- consult $M^*$ -->
    <g style="fill: #555555" transform="translate(159.776654 476.728856) scale(0.1 -0.1)">
     <defs>
      <path id="Helvetica-75" d="M 975 3347 
L 975 1125 
Q 975 869 1056 706 
Q 1206 406 1616 406 
Q 2203 406 2416 931 
Q 2531 1213 2531 1703 
L 2531 3347 
L 3094 3347 
L 3094 0 
L 2563 0 
L 2569 494 
Q 2459 303 2297 172 
Q 1975 -91 1516 -91 
Q 800 -91 541 388 
Q 400 644 400 1072 
L 400 3347 
L 975 3347 
z
M 1747 3428 
L 1747 3428 
z
" transform="scale(0.015625)"/>
      <path id="Cmmi10-4d" d="M 325 0 
Q 263 0 263 84 
Q 266 100 275 137 
Q 284 175 300 200 
Q 316 225 347 225 
Q 956 225 1056 616 
L 1888 3956 
Q 1900 4019 1900 4044 
Q 1900 4113 1825 4122 
Q 1703 4147 1363 4147 
Q 1300 4147 1300 4231 
Q 1303 4247 1312 4286 
Q 1322 4325 1339 4348 
Q 1356 4372 1381 4372 
L 2509 4372 
Q 2581 4372 2591 4300 
L 3091 634 
L 5422 4300 
Q 5466 4372 5544 4372 
L 6631 4372 
Q 6694 4372 6694 4288 
Q 6691 4272 6681 4233 
Q 6672 4194 6655 4170 
Q 6638 4147 6613 4147 
Q 6222 4147 6069 4103 
Q 5984 4075 5947 3928 
L 5069 416 
Q 5056 353 5056 325 
Q 5056 300 5064 283 
Q 5072 266 5086 261 
Q 5100 256 5131 250 
Q 5253 225 5594 225 
Q 5656 225 5656 141 
Q 5634 50 5621 25 
Q 5609 0 5550 0 
L 3878 0 
Q 3816 0 3816 84 
Q 3819 100 3828 139 
Q 3838 178 3855 201 
Q 3872 225 3897 225 
Q 4288 225 4441 269 
Q 4525 297 4563 441 
L 5484 4147 
L 2900 72 
Q 2863 0 2772 0 
Q 2691 0 2681 72 
L 2138 4097 
L 1259 588 
Q 1253 572 1250 548 
Q 1247 525 1241 494 
Q 1241 328 1386 276 
Q 1531 225 1741 225 
Q 1806 225 1806 141 
Q 1784 56 1770 28 
Q 1756 0 1697 0 
L 325 0 
z
" transform="scale(0.015625)"/>
      <path id="Cmsy10-a4" d="M 603 813 
Q 531 813 473 873 
Q 416 934 416 1006 
Q 416 1116 506 1159 
L 1428 1600 
L 506 2034 
Q 416 2072 416 2188 
Q 416 2259 473 2320 
Q 531 2381 603 2381 
Q 650 2381 691 2350 
L 1509 1753 
L 1416 2797 
Q 1416 2875 1469 2925 
Q 1522 2975 1600 2975 
Q 1675 2975 1726 2928 
Q 1778 2881 1778 2809 
L 1778 2797 
L 1684 1753 
L 2503 2350 
Q 2544 2381 2591 2381 
Q 2669 2381 2723 2320 
Q 2778 2259 2778 2188 
Q 2778 2072 2688 2034 
L 1766 1600 
L 2688 1159 
Q 2778 1116 2778 1006 
Q 2778 934 2723 873 
Q 2669 813 2591 813 
Q 2544 813 2503 844 
L 1684 1441 
L 1778 403 
L 1778 384 
Q 1778 313 1723 266 
Q 1669 219 1600 219 
Q 1525 219 1470 270 
Q 1416 322 1416 397 
L 1509 1441 
L 691 844 
Q 650 813 603 813 
z
" transform="scale(0.015625)"/>
     </defs>
     <use xlink:href="#Helvetica-63" transform="translate(0 0.265625)"/>
     <use xlink:href="#Helvetica-6f" transform="translate(50 0.265625)"/>
     <use xlink:href="#Helvetica-6e" transform="translate(105.615234 0.265625)"/>
     <use xlink:href="#Helvetica-73" transform="translate(161.230469 0.265625)"/>
     <use xlink:href="#Helvetica-75" transform="translate(211.230469 0.265625)"/>
     <use xlink:href="#Helvetica-6c" transform="translate(266.845703 0.265625)"/>
     <use xlink:href="#Helvetica-74" transform="translate(289.0625 0.265625)"/>
     <use xlink:href="#Helvetica-20" transform="translate(316.845703 0.265625)"/>
     <use xlink:href="#Cmmi10-4d" transform="translate(344.628906 0.265625)"/>
     <use xlink:href="#Cmsy10-a4" transform="translate(465.310938 38.529688) scale(0.7)"/>
    </g>
   </g>
   <g id="text_9">
    <!-- Act -->
    <g style="fill: #222222" transform="translate(102.782233 233.680748) scale(0.15 -0.15)">
     <defs>
      <path id="Helvetica-41" d="M 2844 1881 
L 2147 3909 
L 1406 1881 
L 2844 1881 
z
M 1822 4591 
L 2525 4591 
L 4191 0 
L 3509 0 
L 3044 1375 
L 1228 1375 
L 731 0 
L 94 0 
L 1822 4591 
z
" transform="scale(0.015625)"/>
     </defs>
     <use xlink:href="#Helvetica-41"/>
     <use xlink:href="#Helvetica-63" transform="translate(66.699219 0)"/>
     <use xlink:href="#Helvetica-74" transform="translate(116.699219 0)"/>
    </g>
   </g>
   <g id="text_10">
    <!-- execute action -->
    <g style="fill: #555555" transform="translate(81.377155 254.802965) scale(0.1 -0.1)">
     <defs>
      <path id="Helvetica-78" d="M 94 3347 
L 822 3347 
L 1591 2169 
L 2369 3347 
L 3053 3331 
L 1925 1716 
L 3103 0 
L 2384 0 
L 1553 1256 
L 747 0 
L 34 0 
L 1213 1716 
L 94 3347 
z
" transform="scale(0.015625)"/>
     </defs>
     <use xlink:href="#Helvetica-65"/>
     <use xlink:href="#Helvetica-78" transform="translate(55.615234 0)"/>
     <use xlink:href="#Helvetica-65" transform="translate(105.615234 0)"/>
     <use xlink:href="#Helvetica-63" transform="translate(161.230469 0)"/>
     <use xlink:href="#Helvetica-75" transform="translate(211.230469 0)"/>
     <use xlink:href="#Helvetica-74" transform="translate(266.845703 0)"/>
     <use xlink:href="#Helvetica-65" transform="translate(294.628906 0)"/>
     <use xlink:href="#Helvetica-20" transform="translate(350.244141 0)"/>
     <use xlink:href="#Helvetica-61" transform="translate(378.027344 0)"/>
     <use xlink:href="#Helvetica-63" transform="translate(433.642578 0)"/>
     <use xlink:href="#Helvetica-74" transform="translate(483.642578 0)"/>
     <use xlink:href="#Helvetica-69" transform="translate(511.425781 0)"/>
     <use xlink:href="#Helvetica-6f" transform="translate(533.642578 0)"/>
     <use xlink:href="#Helvetica-6e" transform="translate(589.257812 0)"/>
    </g>
   </g>
   <g id="text_11">
    <!-- Shared coordination -->
    <g style="fill: #555555" transform="translate(257.65 292.729359) scale(0.1 -0.1)">
     <defs>
      <path id="Helvetica-68" d="M 413 4606 
L 975 4606 
L 975 2894 
Q 1175 3147 1334 3250 
Q 1606 3428 2013 3428 
Q 2741 3428 3000 2919 
Q 3141 2641 3141 2147 
L 3141 0 
L 2563 0 
L 2563 2109 
Q 2563 2478 2469 2650 
Q 2316 2925 1894 2925 
Q 1544 2925 1259 2684 
Q 975 2444 975 1775 
L 975 0 
L 413 0 
L 413 4606 
z
" transform="scale(0.015625)"/>
     </defs>
     <use xlink:href="#Helvetica-53"/>
     <use xlink:href="#Helvetica-68" transform="translate(66.699219 0)"/>
     <use xlink:href="#Helvetica-61" transform="translate(122.314453 0)"/>
     <use xlink:href="#Helvetica-72" transform="translate(177.929688 0)"/>
     <use xlink:href="#Helvetica-65" transform="translate(211.230469 0)"/>
     <use xlink:href="#Helvetica-64" transform="translate(266.845703 0)"/>
     <use xlink:href="#Helvetica-20" transform="translate(322.460938 0)"/>
     <use xlink:href="#Helvetica-63" transform="translate(350.244141 0)"/>
     <use xlink:href="#Helvetica-6f" transform="translate(400.244141 0)"/>
     <use xlink:href="#Helvetica-6f" transform="translate(455.859375 0)"/>
     <use xlink:href="#Helvetica-72" transform="translate(511.474609 0)"/>
     <use xlink:href="#Helvetica-64" transform="translate(544.775391 0)"/>
     <use xlink:href="#Helvetica-69" transform="translate(600.390625 0)"/>
     <use xlink:href="#Helvetica-6e" transform="translate(622.607422 0)"/>
     <use xlink:href="#Helvetica-61" transform="translate(678.222656 0)"/>
     <use xlink:href="#Helvetica-74" transform="translate(733.837891 0)"/>
     <use xlink:href="#Helvetica-69" transform="translate(761.621094 0)"/>
     <use xlink:href="#Helvetica-6f" transform="translate(783.837891 0)"/>
     <use xlink:href="#Helvetica-6e" transform="translate(839.453125 0)"/>
    </g>
   </g>
   <g id="text_12">
    <!-- surface -->
    <g style="fill: #555555" transform="translate(286.004687 303.9266) scale(0.1 -0.1)">
     <use xlink:href="#Helvetica-73"/>
     <use xlink:href="#Helvetica-75" transform="translate(50 0)"/>
     <use xlink:href="#Helvetica-72" transform="translate(105.615234 0)"/>
     <use xlink:href="#Helvetica-66" transform="translate(138.916016 0)"/>
     <use xlink:href="#Helvetica-61" transform="translate(166.699219 0)"/>
     <use xlink:href="#Helvetica-63" transform="translate(222.314453 0)"/>
     <use xlink:href="#Helvetica-65" transform="translate(272.314453 0)"/>
    </g>
   </g>
   <g id="text_13">
    <!-- $M^*$ -->
    <g style="fill: #d97706" transform="translate(283.15 323.266934) scale(0.22 -0.22)">
     <use xlink:href="#Cmmi10-4d" transform="translate(0 0.196875)"/>
     <use xlink:href="#Cmsy10-a4" transform="translate(120.682031 38.460938) scale(0.7)"/>
    </g>
   </g>
   <g id="text_14">
    <!-- $W_i$ -->
    <g style="fill: #1f4e79" transform="translate(424.319398 127.928703) scale(0.11 -0.11)">
     <defs>
      <path id="Cmmi10-57" d="M 1141 -72 
L 844 4006 
Q 822 4100 703 4123 
Q 584 4147 409 4147 
Q 347 4147 347 4231 
Q 369 4313 381 4342 
Q 394 4372 453 4372 
L 1978 4372 
Q 2041 4372 2041 4288 
Q 2016 4147 1959 4147 
Q 1447 4147 1416 3969 
L 1644 738 
L 3244 3525 
L 3213 4006 
Q 3191 4100 3072 4123 
Q 2953 4147 2778 4147 
Q 2713 4147 2713 4231 
Q 2734 4313 2746 4342 
Q 2759 4372 2822 4372 
L 4347 4372 
Q 4409 4372 4409 4288 
Q 4406 4272 4397 4234 
Q 4388 4197 4372 4172 
Q 4356 4147 4325 4147 
Q 3809 4147 3781 3969 
L 3781 3922 
L 4013 738 
L 5753 3775 
Q 5791 3844 5791 3909 
Q 5791 4041 5662 4094 
Q 5534 4147 5375 4147 
Q 5313 4147 5313 4231 
Q 5325 4281 5333 4309 
Q 5341 4338 5361 4355 
Q 5381 4372 5422 4372 
L 6644 4372 
Q 6706 4372 6706 4288 
Q 6703 4272 6693 4233 
Q 6684 4194 6667 4170 
Q 6650 4147 6625 4147 
Q 6169 4147 5931 3731 
Q 5913 3713 5913 3713 
L 3744 -72 
Q 3709 -141 3634 -141 
L 3584 -141 
Q 3506 -141 3506 -72 
L 3263 3225 
L 1381 -72 
Q 1334 -141 1269 -141 
L 1216 -141 
Q 1141 -141 1141 -72 
z
" transform="scale(0.015625)"/>
      <path id="Cmmi10-69" d="M 500 459 
Q 500 578 550 709 
L 1069 2088 
Q 1153 2322 1153 2472 
Q 1153 2663 1013 2663 
Q 759 2663 595 2402 
Q 431 2141 353 1819 
Q 341 1778 300 1778 
L 225 1778 
Q 172 1778 172 1838 
L 172 1856 
Q 275 2238 487 2533 
Q 700 2828 1025 2828 
Q 1253 2828 1411 2678 
Q 1569 2528 1569 2297 
Q 1569 2178 1516 2047 
L 997 672 
Q 909 459 909 288 
Q 909 97 1056 97 
Q 1306 97 1473 364 
Q 1641 631 1709 941 
Q 1722 978 1759 978 
L 1838 978 
Q 1863 978 1878 961 
Q 1894 944 1894 922 
Q 1894 916 1888 903 
Q 1800 541 1583 234 
Q 1366 -72 1044 -72 
Q 819 -72 659 83 
Q 500 238 500 459 
z
M 1222 3878 
Q 1222 4013 1334 4122 
Q 1447 4231 1581 4231 
Q 1691 4231 1761 4164 
Q 1831 4097 1831 3994 
Q 1831 3850 1717 3742 
Q 1603 3634 1466 3634 
Q 1363 3634 1292 3704 
Q 1222 3775 1222 3878 
z
" transform="scale(0.015625)"/>
     </defs>
     <use xlink:href="#Cmmi10-57" transform="translate(0 0.6875)"/>
     <use xlink:href="#Cmmi10-69" transform="translate(94.384766 -16.31875) scale(0.7)"/>
    </g>
   </g>
   <g id="text_15">
    <!-- $\mathrm{MVR}_i=\pi_i(W_i)$ -->
    <g style="fill: #1f4e79" transform="translate(473.503714 372.861222) scale(0.11 -0.11)">
     <defs>
      <path id="Cmr10-4d" d="M 225 0 
L 225 225 
Q 884 225 884 603 
L 884 3944 
Q 884 4147 225 4147 
L 225 4372 
L 1434 4372 
Q 1513 4372 1538 4300 
L 2931 678 
L 4325 4300 
Q 4350 4372 4428 4372 
L 5638 4372 
L 5638 4147 
Q 4978 4147 4978 3944 
L 4978 428 
Q 4978 225 5638 225 
L 5638 0 
L 3775 0 
L 3775 225 
Q 4434 225 4434 428 
L 4434 4153 
L 2859 72 
Q 2831 0 2753 0 
Q 2672 0 2644 72 
L 1088 4103 
L 1088 603 
Q 1088 225 1747 225 
L 1747 0 
L 225 0 
z
" transform="scale(0.015625)"/>
      <path id="Cmr10-56" d="M 2253 -72 
L 744 3944 
Q 688 4078 528 4112 
Q 369 4147 122 4147 
L 122 4372 
L 1881 4372 
L 1881 4147 
Q 1350 4147 1350 3981 
Q 1353 3972 1354 3964 
Q 1356 3956 1356 3944 
L 2584 678 
L 3744 3769 
Q 3756 3794 3756 3847 
Q 3756 4003 3612 4075 
Q 3469 4147 3291 4147 
L 3291 4372 
L 4672 4372 
L 4672 4147 
Q 4431 4147 4248 4058 
Q 4066 3969 3988 3769 
L 2541 -72 
Q 2522 -141 2438 -141 
L 2356 -141 
Q 2272 -141 2253 -72 
z
" transform="scale(0.015625)"/>
      <path id="Cmr10-52" d="M 213 0 
L 213 225 
Q 872 225 872 428 
L 872 3944 
Q 872 4147 213 4147 
L 213 4372 
L 2222 4372 
Q 2581 4372 2976 4242 
Q 3372 4113 3637 3847 
Q 3903 3581 3903 3213 
Q 3903 2944 3742 2733 
Q 3581 2522 3329 2380 
Q 3078 2238 2816 2175 
Q 3103 2075 3318 1856 
Q 3534 1638 3578 1356 
L 3669 788 
Q 3731 403 3800 214 
Q 3869 25 4103 25 
Q 4303 25 4401 211 
Q 4500 397 4500 616 
Q 4500 638 4520 655 
Q 4541 672 4563 672 
L 4622 672 
Q 4684 672 4684 588 
Q 4684 413 4615 245 
Q 4547 78 4417 -31 
Q 4288 -141 4109 -141 
Q 3647 -141 3314 89 
Q 2981 319 2981 763 
L 2981 1331 
Q 2981 1650 2759 1878 
Q 2538 2106 2216 2106 
L 1447 2106 
L 1447 428 
Q 1447 225 2106 225 
L 2106 0 
L 213 0 
z
M 1447 2272 
L 2131 2272 
Q 2663 2272 2941 2486 
Q 3219 2700 3219 3213 
Q 3219 3722 2944 3934 
Q 2669 4147 2131 4147 
L 1772 4147 
Q 1656 4147 1592 4137 
Q 1528 4128 1487 4083 
Q 1447 4038 1447 3944 
L 1447 2272 
z
" transform="scale(0.015625)"/>
      <path id="Cmr10-3d" d="M 481 850 
Q 428 850 393 890 
Q 359 931 359 978 
Q 359 1031 393 1068 
Q 428 1106 481 1106 
L 4500 1106 
Q 4547 1106 4581 1068 
Q 4616 1031 4616 978 
Q 4616 931 4581 890 
Q 4547 850 4500 850 
L 481 850 
z
M 481 2094 
Q 428 2094 393 2131 
Q 359 2169 359 2222 
Q 359 2269 393 2309 
Q 428 2350 481 2350 
L 4500 2350 
Q 4547 2350 4581 2309 
Q 4616 2269 4616 2222 
Q 4616 2169 4581 2131 
Q 4547 2094 4500 2094 
L 481 2094 
z
" transform="scale(0.015625)"/>
      <path id="Cmmi10-bc" d="M 647 109 
Q 647 144 672 213 
Q 850 584 1004 942 
Q 1159 1300 1282 1639 
Q 1406 1978 1509 2363 
L 1100 2363 
Q 866 2363 662 2216 
Q 459 2069 325 1844 
Q 313 1819 288 1819 
L 213 1819 
Q 153 1819 153 1881 
Q 153 1894 166 1919 
Q 375 2275 614 2517 
Q 853 2759 1153 2759 
L 3475 2759 
Q 3541 2759 3587 2715 
Q 3634 2672 3634 2597 
Q 3634 2503 3567 2433 
Q 3500 2363 3406 2363 
L 2591 2363 
Q 2488 1859 2478 1381 
Q 2478 766 2694 269 
Q 2713 231 2713 191 
Q 2713 122 2672 62 
Q 2631 3 2567 -34 
Q 2503 -72 2431 -72 
Q 2263 -72 2200 203 
Q 2138 478 2138 738 
Q 2138 1103 2200 1442 
Q 2263 1781 2400 2363 
L 1703 2363 
Q 1197 313 1094 103 
Q 1003 -72 844 -72 
Q 766 -72 706 -20 
Q 647 31 647 109 
z
" transform="scale(0.015625)"/>
      <path id="Cmr10-28" d="M 1984 -1588 
Q 1628 -1306 1370 -942 
Q 1113 -578 948 -165 
Q 784 247 703 697 
Q 622 1147 622 1600 
Q 622 2059 703 2509 
Q 784 2959 951 3375 
Q 1119 3791 1378 4153 
Q 1638 4516 1984 4788 
Q 1984 4800 2016 4800 
L 2075 4800 
Q 2094 4800 2109 4783 
Q 2125 4766 2125 4744 
Q 2125 4716 2113 4703 
Q 1800 4397 1592 4047 
Q 1384 3697 1257 3301 
Q 1131 2906 1075 2482 
Q 1019 2059 1019 1600 
Q 1019 -434 2106 -1491 
Q 2125 -1509 2125 -1544 
Q 2125 -1559 2108 -1579 
Q 2091 -1600 2075 -1600 
L 2016 -1600 
Q 1984 -1600 1984 -1588 
z
" transform="scale(0.015625)"/>
      <path id="Cmr10-29" d="M 416 -1600 
Q 359 -1600 359 -1544 
Q 359 -1516 372 -1503 
Q 1466 -434 1466 1600 
Q 1466 3634 384 4691 
Q 359 4706 359 4744 
Q 359 4766 376 4783 
Q 394 4800 416 4800 
L 475 4800 
Q 494 4800 506 4788 
Q 966 4425 1272 3906 
Q 1578 3388 1720 2800 
Q 1863 2213 1863 1600 
Q 1863 1147 1786 708 
Q 1709 269 1542 -157 
Q 1375 -584 1119 -945 
Q 863 -1306 506 -1588 
Q 494 -1600 475 -1600 
L 416 -1600 
z
" transform="scale(0.015625)"/>
     </defs>
     <use xlink:href="#Cmr10-4d"/>
     <use xlink:href="#Cmr10-56" transform="translate(91.601562 0)"/>
     <use xlink:href="#Cmr10-52" transform="translate(166.601562 0)"/>
     <use xlink:href="#Cmmi10-69" transform="translate(244.649687 -17.00625) scale(0.7)"/>
     <use xlink:href="#Cmr10-3d" transform="translate(292.682305 0)"/>
     <use xlink:href="#Cmmi10-bc" transform="translate(387.926445 0)"/>
     <use xlink:href="#Cmmi10-69" transform="translate(444.908867 -17.00625) scale(0.7)"/>
     <use xlink:href="#Cmr10-28" transform="translate(475.382891 0)"/>
     <use xlink:href="#Cmmi10-57" transform="translate(514.20125 0)"/>
     <use xlink:href="#Cmmi10-69" transform="translate(608.586016 -17.00625) scale(0.7)"/>
     <use xlink:href="#Cmr10-29" transform="translate(639.060039 0)"/>
    </g>
   </g>
   <g id="text_16">
    <!-- $a_i=\mathrm{act}(M^*,p_i)$ -->
    <g style="fill: #1f4e79" transform="translate(55.066286 372.861222) scale(0.11 -0.11)">
     <defs>
      <path id="Cmmi10-61" d="M 1113 -72 
Q 709 -72 476 233 
Q 244 538 244 953 
Q 244 1363 456 1803 
Q 669 2244 1030 2536 
Q 1391 2828 1806 2828 
Q 1997 2828 2147 2725 
Q 2297 2622 2381 2444 
Q 2453 2700 2663 2700 
Q 2744 2700 2798 2651 
Q 2853 2603 2853 2522 
Q 2853 2503 2851 2493 
Q 2850 2484 2847 2472 
L 2400 684 
Q 2356 494 2356 372 
Q 2356 97 2541 97 
Q 2741 97 2845 351 
Q 2950 606 3022 941 
Q 3034 978 3072 978 
L 3150 978 
Q 3175 978 3190 956 
Q 3206 934 3206 916 
Q 3094 469 2961 198 
Q 2828 -72 2528 -72 
Q 2313 -72 2147 54 
Q 1981 181 1941 391 
Q 1528 -72 1113 -72 
z
M 1119 97 
Q 1350 97 1567 270 
Q 1784 444 1941 678 
Q 1947 684 1947 697 
L 2291 2088 
L 2297 2106 
Q 2259 2334 2132 2498 
Q 2006 2663 1791 2663 
Q 1575 2663 1389 2486 
Q 1203 2309 1075 2069 
Q 950 1813 836 1366 
Q 722 919 722 672 
Q 722 450 817 273 
Q 913 97 1119 97 
z
" transform="scale(0.015625)"/>
      <path id="Cmr10-61" d="M 256 628 
Q 256 1009 556 1248 
Q 856 1488 1276 1586 
Q 1697 1684 2075 1684 
L 2075 1947 
Q 2075 2131 1994 2304 
Q 1913 2478 1759 2589 
Q 1606 2700 1422 2700 
Q 997 2700 775 2509 
Q 897 2509 976 2417 
Q 1056 2325 1056 2203 
Q 1056 2075 965 1984 
Q 875 1894 750 1894 
Q 622 1894 531 1984 
Q 441 2075 441 2203 
Q 441 2541 747 2705 
Q 1053 2869 1422 2869 
Q 1681 2869 1943 2758 
Q 2206 2647 2373 2440 
Q 2541 2234 2541 1959 
L 2541 519 
Q 2541 394 2594 289 
Q 2647 184 2759 184 
Q 2866 184 2917 290 
Q 2969 397 2969 519 
L 2969 928 
L 3156 928 
L 3156 519 
Q 3156 375 3081 245 
Q 3006 116 2879 39 
Q 2753 -38 2606 -38 
Q 2419 -38 2283 107 
Q 2147 253 2131 453 
Q 2013 213 1781 70 
Q 1550 -72 1288 -72 
Q 1044 -72 808 0 
Q 572 72 414 226 
Q 256 381 256 628 
z
M 775 628 
Q 775 403 940 250 
Q 1106 97 1331 97 
Q 1538 97 1706 200 
Q 1875 303 1975 481 
Q 2075 659 2075 856 
L 2075 1522 
Q 1784 1522 1479 1426 
Q 1175 1331 975 1128 
Q 775 925 775 628 
z
" transform="scale(0.015625)"/>
      <path id="Cmr10-63" d="M 1594 -72 
Q 1206 -72 890 129 
Q 575 331 394 667 
Q 213 1003 213 1381 
Q 213 1759 392 2106 
Q 572 2453 889 2661 
Q 1206 2869 1594 2869 
Q 1969 2869 2276 2722 
Q 2584 2575 2584 2241 
Q 2584 2116 2495 2023 
Q 2406 1931 2278 1931 
Q 2150 1931 2061 2023 
Q 1972 2116 1972 2241 
Q 1972 2353 2044 2436 
Q 2116 2519 2222 2541 
Q 2000 2681 1600 2681 
Q 1294 2681 1106 2478 
Q 919 2275 844 1975 
Q 769 1675 769 1381 
Q 769 1072 861 783 
Q 953 494 1158 305 
Q 1363 116 1672 116 
Q 1975 116 2187 302 
Q 2400 488 2478 788 
Q 2478 825 2528 825 
L 2606 825 
Q 2625 825 2640 808 
Q 2656 791 2656 769 
L 2656 750 
Q 2559 372 2271 150 
Q 1984 -72 1594 -72 
z
" transform="scale(0.015625)"/>
      <path id="Cmr10-74" d="M 653 769 
L 653 2534 
L 122 2534 
L 122 2700 
Q 541 2700 737 3090 
Q 934 3481 934 3938 
L 1119 3938 
L 1119 2759 
L 2022 2759 
L 2022 2534 
L 1119 2534 
L 1119 781 
Q 1119 516 1208 316 
Q 1297 116 1528 116 
Q 1747 116 1844 327 
Q 1941 538 1941 781 
L 1941 1159 
L 2125 1159 
L 2125 769 
Q 2125 569 2051 373 
Q 1978 178 1834 53 
Q 1691 -72 1484 -72 
Q 1100 -72 876 158 
Q 653 388 653 769 
z
" transform="scale(0.015625)"/>
      <path id="Cmmi10-3b" d="M 634 -1153 
Q 634 -1125 659 -1100 
Q 891 -878 1019 -587 
Q 1147 -297 1147 25 
L 1147 103 
Q 1044 0 891 0 
Q 744 0 641 103 
Q 538 206 538 353 
Q 538 503 641 603 
Q 744 703 891 703 
Q 1119 703 1216 492 
Q 1313 281 1313 25 
Q 1313 -331 1170 -651 
Q 1028 -972 769 -1228 
Q 744 -1241 728 -1241 
Q 697 -1241 665 -1212 
Q 634 -1184 634 -1153 
z
" transform="scale(0.015625)"/>
      <path id="Cmmi10-70" d="M -159 -1241 
Q -219 -1241 -219 -1159 
Q -197 -1019 -134 -1019 
Q 66 -1019 145 -983 
Q 225 -947 269 -800 
L 991 2081 
Q 1038 2200 1038 2388 
Q 1038 2663 850 2663 
Q 650 2663 553 2423 
Q 456 2184 366 1819 
Q 366 1778 313 1778 
L 238 1778 
Q 222 1778 203 1801 
Q 184 1825 184 1844 
Q 253 2122 317 2315 
Q 381 2509 517 2668 
Q 653 2828 856 2828 
Q 1075 2828 1240 2704 
Q 1406 2581 1453 2369 
Q 1628 2572 1840 2700 
Q 2053 2828 2278 2828 
Q 2547 2828 2745 2684 
Q 2944 2541 3044 2308 
Q 3144 2075 3144 1806 
Q 3144 1394 2933 953 
Q 2722 513 2361 220 
Q 2000 -72 1588 -72 
Q 1400 -72 1248 34 
Q 1097 141 1013 313 
L 722 -825 
Q 706 -919 703 -934 
Q 703 -1019 1125 -1019 
Q 1191 -1019 1191 -1100 
Q 1169 -1184 1155 -1212 
Q 1141 -1241 1081 -1241 
L -159 -1241 
z
M 1594 97 
Q 1816 97 2006 280 
Q 2197 463 2316 691 
Q 2403 863 2479 1111 
Q 2556 1359 2612 1640 
Q 2669 1922 2669 2088 
Q 2669 2234 2630 2362 
Q 2591 2491 2502 2577 
Q 2413 2663 2266 2663 
Q 2031 2663 1823 2495 
Q 1616 2328 1447 2081 
L 1447 2059 
L 1094 647 
Q 1138 419 1263 258 
Q 1388 97 1594 97 
z
" transform="scale(0.015625)"/>
     </defs>
     <use xlink:href="#Cmmi10-61"/>
     <use xlink:href="#Cmmi10-69" transform="translate(52.783203 -17.00625) scale(0.7)"/>
     <use xlink:href="#Cmr10-3d" transform="translate(100.81582 0)"/>
     <use xlink:href="#Cmr10-61" transform="translate(196.059961 0)"/>
     <use xlink:href="#Cmr10-63" transform="translate(246.059961 0)"/>
     <use xlink:href="#Cmr10-74" transform="translate(290.444727 0)"/>
     <use xlink:href="#Cmr10-28" transform="translate(329.263086 0)"/>
     <use xlink:href="#Cmmi10-4d" transform="translate(368.081445 0)"/>
     <use xlink:href="#Cmsy10-a4" transform="translate(488.763477 38.264063) scale(0.7)"/>
     <use xlink:href="#Cmmi10-3b" transform="translate(542.431836 0)"/>
     <use xlink:href="#Cmmi10-70" transform="translate(587.675977 0)"/>
     <use xlink:href="#Cmmi10-69" transform="translate(637.968945 -17.00625) scale(0.7)"/>
     <use xlink:href="#Cmr10-29" transform="translate(668.442969 0)"/>
    </g>
   </g>
   <g id="text_17">
    <!-- $W'$  (world evolves) -->
    <g style="fill: #1f4e79" transform="translate(126.305602 128.264719) scale(0.11 -0.11)">
     <defs>
      <path id="Cmsy10-30" d="M 225 347 
Q 184 359 184 409 
L 966 3316 
Q 1003 3434 1093 3506 
Q 1184 3578 1300 3578 
Q 1450 3578 1564 3479 
Q 1678 3381 1678 3231 
Q 1678 3166 1644 3084 
L 488 319 
Q 466 275 428 275 
Q 394 275 320 306 
Q 247 338 225 347 
z
" transform="scale(0.015625)"/>
      <path id="Helvetica-28" d="M 1894 4666 
Q 1403 3713 1256 3263 
Q 1034 2578 1034 1681 
Q 1034 775 1288 25 
Q 1444 -438 1903 -1306 
L 1525 -1306 
Q 1069 -594 959 -397 
Q 850 -200 722 138 
Q 547 600 478 1125 
Q 444 1397 444 1644 
Q 444 2569 734 3291 
Q 919 3750 1503 4666 
L 1894 4666 
z
" transform="scale(0.015625)"/>
      <path id="Helvetica-29" d="M 222 -1306 
Q 719 -338 863 106 
Q 1081 778 1081 1681 
Q 1081 2584 828 3334 
Q 672 3797 213 4666 
L 591 4666 
Q 1072 3897 1173 3717 
Q 1275 3538 1394 3222 
Q 1544 2831 1608 2450 
Q 1672 2069 1672 1716 
Q 1672 791 1378 66 
Q 1194 -400 613 -1306 
L 222 -1306 
z
" transform="scale(0.015625)"/>
     </defs>
     <use xlink:href="#Cmmi10-57" transform="translate(0 0.601562)"/>
     <use xlink:href="#Cmsy10-30" transform="translate(105.754297 38.865625) scale(0.7)"/>
     <use xlink:href="#Helvetica-20" transform="translate(131.374805 0.601562)"/>
     <use xlink:href="#Helvetica-20" transform="translate(159.158008 0.601562)"/>
     <use xlink:href="#Helvetica-28" transform="translate(186.941211 0.601562)"/>
     <use xlink:href="#Helvetica-77" transform="translate(220.241992 0.601562)"/>
     <use xlink:href="#Helvetica-6f" transform="translate(292.458789 0.601562)"/>
     <use xlink:href="#Helvetica-72" transform="translate(348.074023 0.601562)"/>
     <use xlink:href="#Helvetica-6c" transform="translate(381.374805 0.601562)"/>
     <use xlink:href="#Helvetica-64" transform="translate(403.591602 0.601562)"/>
     <use xlink:href="#Helvetica-20" transform="translate(459.206836 0.601562)"/>
     <use xlink:href="#Helvetica-65" transform="translate(486.990039 0.601562)"/>
     <use xlink:href="#Helvetica-76" transform="translate(542.605273 0.601562)"/>
     <use xlink:href="#Helvetica-6f" transform="translate(592.605273 0.601562)"/>
     <use xlink:href="#Helvetica-6c" transform="translate(648.220508 0.601562)"/>
     <use xlink:href="#Helvetica-76" transform="translate(670.437305 0.601562)"/>
     <use xlink:href="#Helvetica-65" transform="translate(720.437305 0.601562)"/>
     <use xlink:href="#Helvetica-73" transform="translate(776.052539 0.601562)"/>
     <use xlink:href="#Helvetica-29" transform="translate(826.052539 0.601562)"/>
    </g>
   </g>
   <g id="text_18">
    <g id="patch_14">
     <path d="M 336.76069 384.945 
L 395.28069 384.945 
Q 397.26069 384.945 397.26069 382.965 
L 397.26069 369.435 
Q 397.26069 367.455 395.28069 367.455 
L 336.76069 367.455 
Q 334.78069 367.455 334.78069 369.435 
L 334.78069 382.965 
Q 334.78069 384.945 336.76069 384.945 
z
" style="fill: #ffffff"/>
    </g>
    <!-- $\Gamma(\{\mathrm{MVR}_i\})$ -->
    <g style="fill: #d97706" transform="translate(336.76069 380.215) scale(0.11 -0.11)">
     <defs>
      <path id="Cmex10-a9" d="M 1631 -6425 
L 1631 -4556 
Q 1631 -4338 1503 -4159 
Q 1375 -3981 1184 -3867 
Q 994 -3753 756 -3675 
Q 709 -3650 709 -3622 
L 709 -3547 
Q 709 -3503 756 -3494 
Q 1128 -3366 1379 -3150 
Q 1631 -2934 1631 -2606 
L 1631 -738 
Q 1631 -325 2004 -95 
Q 2378 134 2888 256 
L 2963 256 
Q 2981 256 2998 242 
Q 3016 228 3016 206 
L 3016 128 
Q 3016 91 2975 78 
Q 2619 -31 2359 -232 
Q 2100 -434 2100 -750 
L 2100 -2619 
Q 2100 -2994 1804 -3214 
Q 1509 -3434 1056 -3584 
Q 1497 -3716 1798 -3939 
Q 2100 -4163 2100 -4544 
L 2100 -6413 
Q 2100 -6628 2231 -6790 
Q 2363 -6953 2556 -7059 
Q 2750 -7166 2975 -7238 
Q 3016 -7250 3016 -7291 
L 3016 -7366 
Q 3016 -7384 2998 -7401 
Q 2981 -7419 2963 -7419 
L 2888 -7419 
Q 2559 -7338 2292 -7227 
Q 2025 -7116 1828 -6914 
Q 1631 -6713 1631 -6425 
z
" transform="scale(0.015625)"/>
      <path id="Cmex10-aa" d="M 709 -7366 
L 709 -7291 
Q 709 -7247 756 -7238 
Q 1631 -6953 1631 -6413 
L 1631 -4544 
Q 1631 -3909 2669 -3584 
Q 2219 -3431 1925 -3209 
Q 1631 -2988 1631 -2619 
L 1631 -750 
Q 1631 -206 756 78 
Q 709 88 709 128 
L 709 206 
Q 709 256 769 256 
L 844 256 
Q 1359 131 1729 -97 
Q 2100 -325 2100 -738 
L 2100 -2606 
Q 2100 -2925 2354 -3142 
Q 2609 -3359 2975 -3494 
Q 3016 -3506 3016 -3547 
L 3016 -3622 
Q 3016 -3641 2975 -3675 
Q 2769 -3744 2566 -3864 
Q 2363 -3984 2231 -4161 
Q 2100 -4338 2100 -4556 
L 2100 -6425 
Q 2100 -6713 1901 -6914 
Q 1703 -7116 1437 -7227 
Q 1172 -7338 844 -7419 
L 769 -7419 
Q 744 -7419 726 -7401 
Q 709 -7384 709 -7366 
z
" transform="scale(0.015625)"/>
     </defs>
     <use xlink:href="#Cmr10-a1" transform="translate(0 0.705729)"/>
     <use xlink:href="#Cmr10-28" transform="translate(62.5 0.705729)"/>
     <use xlink:href="#Cmex10-a9" transform="translate(101.318359 94)"/>
     <use xlink:href="#Cmr10-4d" transform="translate(159.619141 0.705729)"/>
     <use xlink:href="#Cmr10-56" transform="translate(251.220703 0.705729)"/>
     <use xlink:href="#Cmr10-52" transform="translate(326.220703 0.705729)"/>
     <use xlink:href="#Cmmi10-69" transform="translate(404.268828 -16.300521) scale(0.7)"/>
     <use xlink:href="#Cmex10-aa" transform="translate(434.742852 94)"/>
     <use xlink:href="#Cmr10-29" transform="translate(493.043633 0.705729)"/>
    </g>
   </g>
   <g id="text_19">
    <g id="patch_15">
     <path d="M 216.61431 383.271797 
L 260.94431 383.271797 
Q 262.92431 383.271797 262.92431 381.291797 
L 262.92431 371.108203 
Q 262.92431 369.128203 260.94431 369.128203 
L 216.61431 369.128203 
Q 214.63431 369.128203 214.63431 371.108203 
L 214.63431 381.291797 
Q 214.63431 383.271797 216.61431 383.271797 
z
" style="fill: #ffffff"/>
    </g>
    <!-- read $M^*$ -->
    <g style="fill: #d97706" transform="translate(216.61431 378.998984) scale(0.11 -0.11)">
     <use xlink:href="#Helvetica-72" transform="translate(0 0.03125)"/>
     <use xlink:href="#Helvetica-65" transform="translate(33.300781 0.03125)"/>
     <use xlink:href="#Helvetica-61" transform="translate(88.916016 0.03125)"/>
     <use xlink:href="#Helvetica-64" transform="translate(144.53125 0.03125)"/>
     <use xlink:href="#Helvetica-20" transform="translate(200.146484 0.03125)"/>
     <use xlink:href="#Cmmi10-4d" transform="translate(227.929688 0.03125)"/>
     <use xlink:href="#Cmsy10-a4" transform="translate(348.611719 38.295313) scale(0.7)"/>
    </g>
   </g>
  </g>
 </g>
 <defs>
  <clipPath id="p5ec54c91d9">
   <rect x="7.2" y="7.2" width="590.4" height="590.4"/>
  </clipPath>
 </defs>
</svg>
