<?xml version="1.0" encoding="utf-8" standalone="no"?>
<!DOCTYPE svg PUBLIC "-//W3C//DTD SVG 1.1//EN"
  "http://www.w3.org/Graphics/SVG/1.1/DTD/svg11.dtd">
<svg xmlns:xlink="http://www.w3.org/1999/xlink" width="509.095385pt" height="457.92pt" viewBox="0 0 509.095385 457.92" xmlns="http://www.w3.org/2000/svg" version="1.1">
 <metadata>
  <rdf:RDF xmlns:dc="http://purl.org/dc/elements/1.1/" xmlns:cc="http://creativecommons.org/ns#" xmlns:rdf="http://www.w3.org/1999/02/22-rdf-syntax-ns#">
   <cc:Work>
    <dc:type rdf:resource="http://purl.org/dc/dcmitype/StillImage"/>
    <dc:date>2026-04-20T13:40:28.344516</dc:date>
    <dc:format>image/svg+xml</dc:format>
    <dc:creator>
     <cc:Agent>
      <dc:title>Matplotlib v3.10.8, https://matplotlib.org/</dc:title>
     </cc:Agent>
    </dc:creator>
   </cc:Work>
  </rdf:RDF>
 </metadata>
 <defs>
  <style type="text/css">*{stroke-linejoin: round; stroke-linecap: butt}</style>
 </defs>
 <g id="figure_1">
  <g id="patch_1">
   <path d="M 0 457.92 
L 509.095385 457.92 
L 509.095385 0 
L 0 0 
z
" style="fill: #ffffff"/>
  </g>
  <g id="axes_1">
   <g id="patch_2">
    <path d="M 254.547692 176.95858 
Q 254.547692 153.063321 254.547692 129.168061 
" clip-path="url(#pbda935f772)" style="fill: none; stroke: #bbbbbb; stroke-width: 1.1; stroke-linecap: round"/>
   </g>
   <g id="patch_3">
    <path d="M 304.003981 212.890678 
Q 326.729724 205.506636 349.455466 198.122595 
" clip-path="url(#pbda935f772)" style="fill: none; stroke: #bbbbbb; stroke-width: 1.1; stroke-linecap: round"/>
   </g>
   <g id="patch_4">
    <path d="M 285.11336 271.030032 
Q 299.158641 290.361703 313.203922 309.693375 
" clip-path="url(#pbda935f772)" style="fill: none; stroke: #bbbbbb; stroke-width: 1.1; stroke-linecap: round"/>
   </g>
   <g id="patch_5">
    <path d="M 223.982025 271.030032 
Q 209.936743 290.361703 195.891462 309.693375 
" clip-path="url(#pbda935f772)" style="fill: none; stroke: #bbbbbb; stroke-width: 1.1; stroke-linecap: round"/>
   </g>
   <g id="patch_6">
    <path d="M 205.091403 212.890678 
Q 182.365661 205.506636 159.639918 198.122595 
" clip-path="url(#pbda935f772)" style="fill: none; stroke: #bbbbbb; stroke-width: 1.1; stroke-linecap: round"/>
   </g>
   <g id="patch_7">
    <path d="M 204.225231 261.157846 
L 304.870154 261.157846 
Q 313.399385 261.157846 313.399385 252.628615 
L 313.399385 205.291385 
Q 313.399385 196.762154 304.870154 196.762154 
L 204.225231 196.762154 
Q 195.696 196.762154 195.696 205.291385 
L 195.696 252.628615 
Q 195.696 261.157846 204.225231 261.157846 
z
" clip-path="url(#pbda935f772)" style="fill: #fff7ed; stroke: #d97706; stroke-width: 2; stroke-linejoin: miter"/>
   </g>
   <g id="patch_8">
    <path d="M 203.372308 114.241846 
L 305.723077 114.241846 
Q 312.546462 114.241846 312.546462 107.418462 
L 312.546462 34.92 
Q 312.546462 28.096615 305.723077 28.096615 
L 203.372308 28.096615 
Q 196.548923 28.096615 196.548923 34.92 
L 196.548923 107.418462 
Q 196.548923 114.241846 203.372308 114.241846 
z
" clip-path="url(#pbda935f772)" style="fill: #ffffff; stroke: #222222; stroke-width: 1.4; stroke-linejoin: miter"/>
   </g>
   <g id="patch_9">
    <path d="M 353.440247 223.272586 
L 455.791016 223.272586 
Q 462.614401 223.272586 462.614401 216.449202 
L 462.614401 143.95074 
Q 462.614401 137.127355 455.791016 137.127355 
L 353.440247 137.127355 
Q 346.616862 137.127355 346.616862 143.95074 
L 346.616862 216.449202 
Q 346.616862 223.272586 353.440247 223.272586 
z
" clip-path="url(#pbda935f772)" style="fill: #ffffff; stroke: #222222; stroke-width: 1.4; stroke-linejoin: miter"/>
   </g>
   <g id="patch_10">
    <path d="M 296.119395 399.688029 
L 398.470164 399.688029 
Q 405.293549 399.688029 405.293549 392.864645 
L 405.293549 320.366183 
Q 405.293549 313.542798 398.470164 313.542798 
L 296.119395 313.542798 
Q 289.29601 313.542798 289.29601 320.366183 
L 289.29601 392.864645 
Q 289.29601 399.688029 296.119395 399.688029 
z
" clip-path="url(#pbda935f772)" style="fill: #ffffff; stroke: #222222; stroke-width: 1.4; stroke-linejoin: miter"/>
   </g>
   <g id="patch_11">
    <path d="M 110.625221 399.688029 
L 212.97599 399.688029 
Q 219.799374 399.688029 219.799374 392.864645 
L 219.799374 320.366183 
Q 219.799374 313.542798 212.97599 313.542798 
L 110.625221 313.542798 
Q 103.801836 313.542798 103.801836 320.366183 
L 103.801836 392.864645 
Q 103.801836 399.688029 110.625221 399.688029 
z
" clip-path="url(#pbda935f772)" style="fill: #ffffff; stroke: #222222; stroke-width: 1.4; stroke-linejoin: miter"/>
   </g>
   <g id="patch_12">
    <path d="M 53.304368 223.272586 
L 155.655138 223.272586 
Q 162.478522 223.272586 162.478522 216.449202 
L 162.478522 143.95074 
Q 162.478522 137.127355 155.655138 137.127355 
L 53.304368 137.127355 
Q 46.480984 137.127355 46.480984 143.95074 
L 46.480984 216.449202 
Q 46.480984 223.272586 53.304368 223.272586 
z
" clip-path="url(#pbda935f772)" style="fill: #ffffff; stroke: #222222; stroke-width: 1.4; stroke-linejoin: miter"/>
   </g>
   <g id="text_1">
    <!-- $\mathrm{MVR}_i$ -->
    <g style="fill: #d97706" transform="translate(224.187692 225.175815) scale(0.22 -0.22)">
     <defs>
      <path id="Cmr10-4d" d="M 225 0 
L 225 225 
Q 884 225 884 603 
L 884 3944 
Q 884 4147 225 4147 
L 225 4372 
L 1434 4372 
Q 1513 4372 1538 4300 
L 2931 678 
L 4325 4300 
Q 4350 4372 4428 4372 
L 5638 4372 
L 5638 4147 
Q 4978 4147 4978 3944 
L 4978 428 
Q 4978 225 5638 225 
L 5638 0 
L 3775 0 
L 3775 225 
Q 4434 225 4434 428 
L 4434 4153 
L 2859 72 
Q 2831 0 2753 0 
Q 2672 0 2644 72 
L 1088 4103 
L 1088 603 
Q 1088 225 1747 225 
L 1747 0 
L 225 0 
z
" transform="scale(0.015625)"/>
      <path id="Cmr10-56" d="M 2253 -72 
L 744 3944 
Q 688 4078 528 4112 
Q 369 4147 122 4147 
L 122 4372 
L 1881 4372 
L 1881 4147 
Q 1350 4147 1350 3981 
Q 1353 3972 1354 3964 
Q 1356 3956 1356 3944 
L 2584 678 
L 3744 3769 
Q 3756 3794 3756 3847 
Q 3756 4003 3612 4075 
Q 3469 4147 3291 4147 
L 3291 4372 
L 4672 4372 
L 4672 4147 
Q 4431 4147 4248 4058 
Q 4066 3969 3988 3769 
L 2541 -72 
Q 2522 -141 2438 -141 
L 2356 -141 
Q 2272 -141 2253 -72 
z
" transform="scale(0.015625)"/>
      <path id="Cmr10-52" d="M 213 0 
L 213 225 
Q 872 225 872 428 
L 872 3944 
Q 872 4147 213 4147 
L 213 4372 
L 2222 4372 
Q 2581 4372 2976 4242 
Q 3372 4113 3637 3847 
Q 3903 3581 3903 3213 
Q 3903 2944 3742 2733 
Q 3581 2522 3329 2380 
Q 3078 2238 2816 2175 
Q 3103 2075 3318 1856 
Q 3534 1638 3578 1356 
L 3669 788 
Q 3731 403 3800 214 
Q 3869 25 4103 25 
Q 4303 25 4401 211 
Q 4500 397 4500 616 
Q 4500 638 4520 655 
Q 4541 672 4563 672 
L 4622 672 
Q 4684 672 4684 588 
Q 4684 413 4615 245 
Q 4547 78 4417 -31 
Q 4288 -141 4109 -141 
Q 3647 -141 3314 89 
Q 2981 319 2981 763 
L 2981 1331 
Q 2981 1650 2759 1878 
Q 2538 2106 2216 2106 
L 1447 2106 
L 1447 428 
Q 1447 225 2106 225 
L 2106 0 
L 213 0 
z
M 1447 2272 
L 2131 2272 
Q 2663 2272 2941 2486 
Q 3219 2700 3219 3213 
Q 3219 3722 2944 3934 
Q 2669 4147 2131 4147 
L 1772 4147 
Q 1656 4147 1592 4137 
Q 1528 4128 1487 4083 
Q 1447 4038 1447 3944 
L 1447 2272 
z
" transform="scale(0.015625)"/>
      <path id="Cmmi10-69" d="M 500 459 
Q 500 578 550 709 
L 1069 2088 
Q 1153 2322 1153 2472 
Q 1153 2663 1013 2663 
Q 759 2663 595 2402 
Q 431 2141 353 1819 
Q 341 1778 300 1778 
L 225 1778 
Q 172 1778 172 1838 
L 172 1856 
Q 275 2238 487 2533 
Q 700 2828 1025 2828 
Q 1253 2828 1411 2678 
Q 1569 2528 1569 2297 
Q 1569 2178 1516 2047 
L 997 672 
Q 909 459 909 288 
Q 909 97 1056 97 
Q 1306 97 1473 364 
Q 1641 631 1709 941 
Q 1722 978 1759 978 
L 1838 978 
Q 1863 978 1878 961 
Q 1894 944 1894 922 
Q 1894 916 1888 903 
Q 1800 541 1583 234 
Q 1366 -72 1044 -72 
Q 819 -72 659 83 
Q 500 238 500 459 
z
M 1222 3878 
Q 1222 4013 1334 4122 
Q 1447 4231 1581 4231 
Q 1691 4231 1761 4164 
Q 1831 4097 1831 3994 
Q 1831 3850 1717 3742 
Q 1603 3634 1466 3634 
Q 1363 3634 1292 3704 
Q 1222 3775 1222 3878 
z
" transform="scale(0.015625)"/>
     </defs>
     <use xlink:href="#Cmr10-4d" transform="translate(0 0.6875)"/>
     <use xlink:href="#Cmr10-56" transform="translate(91.601562 0.6875)"/>
     <use xlink:href="#Cmr10-52" transform="translate(166.601562 0.6875)"/>
     <use xlink:href="#Cmmi10-69" transform="translate(244.649687 -16.31875) scale(0.7)"/>
    </g>
   </g>
   <g id="text_2">
    <!-- 5-field projection -->
    <g style="fill: #555555" transform="translate(217.863317 244.336659) scale(0.1 -0.1)">
     <defs>
      <path id="Helvetica-35" d="M 791 1141 
Q 847 659 1238 475 
Q 1438 381 1700 381 
Q 2200 381 2440 700 
Q 2681 1019 2681 1406 
Q 2681 1875 2395 2131 
Q 2109 2388 1709 2388 
Q 1419 2388 1211 2275 
Q 1003 2163 856 1963 
L 369 1991 
L 709 4400 
L 3034 4400 
L 3034 3856 
L 1131 3856 
L 941 2613 
Q 1097 2731 1238 2791 
Q 1488 2894 1816 2894 
Q 2431 2894 2859 2497 
Q 3288 2100 3288 1491 
Q 3288 856 2895 371 
Q 2503 -113 1644 -113 
Q 1097 -113 676 195 
Q 256 503 206 1141 
L 791 1141 
z
" transform="scale(0.015625)"/>
      <path id="Helvetica-2d" d="M 266 2072 
L 1834 2072 
L 1834 1494 
L 266 1494 
L 266 2072 
z
" transform="scale(0.015625)"/>
      <path id="Helvetica-66" d="M 553 3856 
Q 566 4206 675 4369 
Q 872 4656 1434 4656 
Q 1488 4656 1544 4653 
Q 1600 4650 1672 4644 
L 1672 4131 
Q 1584 4138 1545 4139 
Q 1506 4141 1472 4141 
Q 1216 4141 1166 4008 
Q 1116 3875 1116 3331 
L 1672 3331 
L 1672 2888 
L 1109 2888 
L 1109 0 
L 553 0 
L 553 2888 
L 88 2888 
L 88 3331 
L 553 3331 
L 553 3856 
z
" transform="scale(0.015625)"/>
      <path id="Helvetica-69" d="M 413 3331 
L 984 3331 
L 984 0 
L 413 0 
L 413 3331 
z
M 413 4591 
L 984 4591 
L 984 3953 
L 413 3953 
L 413 4591 
z
" transform="scale(0.015625)"/>
      <path id="Helvetica-65" d="M 1806 3422 
Q 2163 3422 2497 3255 
Q 2831 3088 3006 2822 
Q 3175 2569 3231 2231 
Q 3281 2000 3281 1494 
L 828 1494 
Q 844 984 1069 676 
Q 1294 369 1766 369 
Q 2206 369 2469 659 
Q 2619 828 2681 1050 
L 3234 1050 
Q 3213 866 3089 639 
Q 2966 413 2813 269 
Q 2556 19 2178 -69 
Q 1975 -119 1719 -119 
Q 1094 -119 659 336 
Q 225 791 225 1609 
Q 225 2416 662 2919 
Q 1100 3422 1806 3422 
z
M 2703 1941 
Q 2669 2306 2544 2525 
Q 2313 2931 1772 2931 
Q 1384 2931 1121 2651 
Q 859 2372 844 1941 
L 2703 1941 
z
M 1753 3428 
L 1753 3428 
z
" transform="scale(0.015625)"/>
      <path id="Helvetica-6c" d="M 428 4591 
L 991 4591 
L 991 0 
L 428 0 
L 428 4591 
z
" transform="scale(0.015625)"/>
      <path id="Helvetica-64" d="M 769 1634 
Q 769 1097 997 734 
Q 1225 372 1728 372 
Q 2119 372 2370 708 
Q 2622 1044 2622 1672 
Q 2622 2306 2362 2611 
Q 2103 2916 1722 2916 
Q 1297 2916 1033 2591 
Q 769 2266 769 1634 
z
M 1616 3406 
Q 2000 3406 2259 3244 
Q 2409 3150 2600 2916 
L 2600 4606 
L 3141 4606 
L 3141 0 
L 2634 0 
L 2634 466 
Q 2438 156 2169 18 
Q 1900 -119 1553 -119 
Q 994 -119 584 351 
Q 175 822 175 1603 
Q 175 2334 548 2870 
Q 922 3406 1616 3406 
z
" transform="scale(0.015625)"/>
      <path id="Helvetica-20" transform="scale(0.015625)"/>
      <path id="Helvetica-70" d="M 1825 378 
Q 2219 378 2480 708 
Q 2741 1038 2741 1694 
Q 2741 2094 2625 2381 
Q 2406 2934 1825 2934 
Q 1241 2934 1025 2350 
Q 909 2038 909 1556 
Q 909 1169 1025 897 
Q 1244 378 1825 378 
z
M 369 3331 
L 916 3331 
L 916 2888 
Q 1084 3116 1284 3241 
Q 1569 3428 1953 3428 
Q 2522 3428 2919 2992 
Q 3316 2556 3316 1747 
Q 3316 653 2744 184 
Q 2381 -113 1900 -113 
Q 1522 -113 1266 53 
Q 1116 147 931 375 
L 931 -1334 
L 369 -1334 
L 369 3331 
z
" transform="scale(0.015625)"/>
      <path id="Helvetica-72" d="M 428 3347 
L 963 3347 
L 963 2769 
Q 1028 2938 1284 3180 
Q 1541 3422 1875 3422 
Q 1891 3422 1928 3419 
Q 1966 3416 2056 3406 
L 2056 2813 
Q 2006 2822 1964 2825 
Q 1922 2828 1872 2828 
Q 1447 2828 1219 2554 
Q 991 2281 991 1925 
L 991 0 
L 428 0 
L 428 3347 
z
" transform="scale(0.015625)"/>
      <path id="Helvetica-6f" d="M 1741 363 
Q 2300 363 2508 786 
Q 2716 1209 2716 1728 
Q 2716 2197 2566 2491 
Q 2328 2953 1747 2953 
Q 1231 2953 997 2559 
Q 763 2166 763 1609 
Q 763 1075 997 719 
Q 1231 363 1741 363 
z
M 1763 3444 
Q 2409 3444 2856 3012 
Q 3303 2581 3303 1744 
Q 3303 934 2909 406 
Q 2516 -122 1688 -122 
Q 997 -122 590 345 
Q 184 813 184 1600 
Q 184 2444 612 2944 
Q 1041 3444 1763 3444 
z
M 1744 3428 
L 1744 3428 
z
" transform="scale(0.015625)"/>
      <path id="Helvetica-6a" d="M 975 3941 
L 413 3941 
L 413 4591 
L 975 4591 
L 975 3941 
z
M -119 -847 
Q 259 -834 336 -779 
Q 413 -725 413 -438 
L 413 3331 
L 975 3331 
L 975 -497 
Q 975 -863 856 -1044 
Q 659 -1350 109 -1350 
Q 69 -1350 23 -1347 
Q -22 -1344 -119 -1334 
L -119 -847 
z
" transform="scale(0.015625)"/>
      <path id="Helvetica-63" d="M 1703 3444 
Q 2269 3444 2623 3169 
Q 2978 2894 3050 2222 
L 2503 2222 
Q 2453 2531 2275 2736 
Q 2097 2941 1703 2941 
Q 1166 2941 934 2416 
Q 784 2075 784 1575 
Q 784 1072 996 728 
Q 1209 384 1666 384 
Q 2016 384 2220 598 
Q 2425 813 2503 1184 
L 3050 1184 
Q 2956 519 2581 211 
Q 2206 -97 1622 -97 
Q 966 -97 575 383 
Q 184 863 184 1581 
Q 184 2463 612 2953 
Q 1041 3444 1703 3444 
z
M 1616 3428 
L 1616 3428 
z
" transform="scale(0.015625)"/>
      <path id="Helvetica-74" d="M 525 4281 
L 1094 4281 
L 1094 3347 
L 1628 3347 
L 1628 2888 
L 1094 2888 
L 1094 703 
Q 1094 528 1213 469 
Q 1278 434 1431 434 
Q 1472 434 1519 436 
Q 1566 438 1628 444 
L 1628 0 
Q 1531 -28 1426 -40 
Q 1322 -53 1200 -53 
Q 806 -53 665 148 
Q 525 350 525 672 
L 525 2888 
L 72 2888 
L 72 3347 
L 525 3347 
L 525 4281 
z
" transform="scale(0.015625)"/>
      <path id="Helvetica-6e" d="M 413 3347 
L 947 3347 
L 947 2872 
Q 1184 3166 1450 3294 
Q 1716 3422 2041 3422 
Q 2753 3422 3003 2925 
Q 3141 2653 3141 2147 
L 3141 0 
L 2569 0 
L 2569 2109 
Q 2569 2416 2478 2603 
Q 2328 2916 1934 2916 
Q 1734 2916 1606 2875 
Q 1375 2806 1200 2600 
Q 1059 2434 1017 2257 
Q 975 2081 975 1753 
L 975 0 
L 413 0 
L 413 3347 
z
M 1734 3428 
L 1734 3428 
z
" transform="scale(0.015625)"/>
     </defs>
     <use xlink:href="#Helvetica-35"/>
     <use xlink:href="#Helvetica-2d" transform="translate(55.615234 0)"/>
     <use xlink:href="#Helvetica-66" transform="translate(88.916016 0)"/>
     <use xlink:href="#Helvetica-69" transform="translate(116.699219 0)"/>
     <use xlink:href="#Helvetica-65" transform="translate(138.916016 0)"/>
     <use xlink:href="#Helvetica-6c" transform="translate(194.53125 0)"/>
     <use xlink:href="#Helvetica-64" transform="translate(216.748047 0)"/>
     <use xlink:href="#Helvetica-20" transform="translate(272.363281 0)"/>
     <use xlink:href="#Helvetica-70" transform="translate(300.146484 0)"/>
     <use xlink:href="#Helvetica-72" transform="translate(355.761719 0)"/>
     <use xlink:href="#Helvetica-6f" transform="translate(389.0625 0)"/>
     <use xlink:href="#Helvetica-6a" transform="translate(444.677734 0)"/>
     <use xlink:href="#Helvetica-65" transform="translate(466.894531 0)"/>
     <use xlink:href="#Helvetica-63" transform="translate(522.509766 0)"/>
     <use xlink:href="#Helvetica-74" transform="translate(572.509766 0)"/>
     <use xlink:href="#Helvetica-69" transform="translate(600.292969 0)"/>
     <use xlink:href="#Helvetica-6f" transform="translate(622.509766 0)"/>
     <use xlink:href="#Helvetica-6e" transform="translate(678.125 0)"/>
    </g>
   </g>
   <g id="text_3">
    <!-- $\sigma_i$ -->
    <g style="fill: #1f4e79" transform="translate(246.627692 50.161695) scale(0.18 -0.18)">
     <defs>
      <path id="Cmmi10-be" d="M 1197 -72 
Q 913 -72 692 64 
Q 472 200 351 431 
Q 231 663 231 941 
Q 231 1238 365 1566 
Q 500 1894 733 2166 
Q 966 2438 1259 2598 
Q 1553 2759 1863 2759 
L 3475 2759 
Q 3541 2759 3587 2715 
Q 3634 2672 3634 2597 
Q 3634 2503 3567 2433 
Q 3500 2363 3406 2363 
L 2625 2363 
Q 2809 2088 2809 1697 
Q 2809 1375 2684 1062 
Q 2559 750 2337 492 
Q 2116 234 1820 81 
Q 1525 -72 1197 -72 
z
M 1203 97 
Q 1553 97 1823 370 
Q 2094 644 2237 1039 
Q 2381 1434 2381 1772 
Q 2381 2047 2229 2205 
Q 2078 2363 1806 2363 
Q 1434 2363 1173 2113 
Q 913 1863 783 1484 
Q 653 1106 653 756 
Q 653 481 798 289 
Q 944 97 1203 97 
z
" transform="scale(0.015625)"/>
     </defs>
     <use xlink:href="#Cmmi10-be" transform="translate(0 0.890625)"/>
     <use xlink:href="#Cmmi10-69" transform="translate(57.080078 -16.115625) scale(0.7)"/>
    </g>
   </g>
   <g id="text_4">
    <!-- Spatial envelope -->
    <g style="fill: #222222" transform="translate(213.880349 67.678714) scale(0.11 -0.11)">
     <defs>
      <path id="Helvetica-53" d="M 894 1481 
Q 916 1091 1078 847 
Q 1388 391 2169 391 
Q 2519 391 2806 491 
Q 3363 684 3363 1184 
Q 3363 1559 3128 1719 
Q 2891 1875 2384 1991 
L 1763 2131 
Q 1153 2269 900 2434 
Q 463 2722 463 3294 
Q 463 3913 891 4309 
Q 1319 4706 2103 4706 
Q 2825 4706 3329 4357 
Q 3834 4009 3834 3244 
L 3250 3244 
Q 3203 3613 3050 3809 
Q 2766 4169 2084 4169 
Q 1534 4169 1293 3937 
Q 1053 3706 1053 3400 
Q 1053 3063 1334 2906 
Q 1519 2806 2169 2656 
L 2813 2509 
Q 3278 2403 3531 2219 
Q 3969 1897 3969 1284 
Q 3969 522 3414 194 
Q 2859 -134 2125 -134 
Q 1269 -134 784 303 
Q 300 738 309 1481 
L 894 1481 
z
M 2150 4716 
L 2150 4716 
z
" transform="scale(0.015625)"/>
      <path id="Helvetica-61" d="M 844 891 
Q 844 647 1022 506 
Q 1200 366 1444 366 
Q 1741 366 2019 503 
Q 2488 731 2488 1250 
L 2488 1703 
Q 2384 1638 2221 1594 
Q 2059 1550 1903 1531 
L 1563 1488 
Q 1256 1447 1103 1359 
Q 844 1213 844 891 
z
M 2206 2028 
Q 2400 2053 2466 2191 
Q 2503 2266 2503 2406 
Q 2503 2694 2298 2823 
Q 2094 2953 1713 2953 
Q 1272 2953 1088 2716 
Q 984 2584 953 2325 
L 428 2325 
Q 444 2944 830 3186 
Q 1216 3428 1725 3428 
Q 2316 3428 2684 3203 
Q 3050 2978 3050 2503 
L 3050 575 
Q 3050 488 3086 434 
Q 3122 381 3238 381 
Q 3275 381 3322 386 
Q 3369 391 3422 400 
L 3422 -16 
Q 3291 -53 3222 -62 
Q 3153 -72 3034 -72 
Q 2744 -72 2613 134 
Q 2544 244 2516 444 
Q 2344 219 2022 53 
Q 1700 -113 1313 -113 
Q 847 -113 551 170 
Q 256 453 256 878 
Q 256 1344 547 1600 
Q 838 1856 1309 1916 
L 2206 2028 
z
M 1741 3428 
L 1741 3428 
z
" transform="scale(0.015625)"/>
      <path id="Helvetica-76" d="M 688 3347 
L 1581 622 
L 2516 3347 
L 3131 3347 
L 1869 0 
L 1269 0 
L 34 3347 
L 688 3347 
z
" transform="scale(0.015625)"/>
     </defs>
     <use xlink:href="#Helvetica-53"/>
     <use xlink:href="#Helvetica-70" transform="translate(66.699219 0)"/>
     <use xlink:href="#Helvetica-61" transform="translate(122.314453 0)"/>
     <use xlink:href="#Helvetica-74" transform="translate(177.929688 0)"/>
     <use xlink:href="#Helvetica-69" transform="translate(205.712891 0)"/>
     <use xlink:href="#Helvetica-61" transform="translate(227.929688 0)"/>
     <use xlink:href="#Helvetica-6c" transform="translate(283.544922 0)"/>
     <use xlink:href="#Helvetica-20" transform="translate(305.761719 0)"/>
     <use xlink:href="#Helvetica-65" transform="translate(333.544922 0)"/>
     <use xlink:href="#Helvetica-6e" transform="translate(389.160156 0)"/>
     <use xlink:href="#Helvetica-76" transform="translate(444.775391 0)"/>
     <use xlink:href="#Helvetica-65" transform="translate(494.775391 0)"/>
     <use xlink:href="#Helvetica-6c" transform="translate(550.390625 0)"/>
     <use xlink:href="#Helvetica-6f" transform="translate(572.607422 0)"/>
     <use xlink:href="#Helvetica-70" transform="translate(628.222656 0)"/>
     <use xlink:href="#Helvetica-65" transform="translate(683.837891 0)"/>
    </g>
   </g>
   <g id="text_5">
    <!-- convex hull of predicted -->
    <g style="fill: #555555" transform="translate(209.898786 78.161291) scale(0.085 -0.085)">
     <defs>
      <path id="Helvetica-78" d="M 94 3347 
L 822 3347 
L 1591 2169 
L 2369 3347 
L 3053 3331 
L 1925 1716 
L 3103 0 
L 2384 0 
L 1553 1256 
L 747 0 
L 34 0 
L 1213 1716 
L 94 3347 
z
" transform="scale(0.015625)"/>
      <path id="Helvetica-68" d="M 413 4606 
L 975 4606 
L 975 2894 
Q 1175 3147 1334 3250 
Q 1606 3428 2013 3428 
Q 2741 3428 3000 2919 
Q 3141 2641 3141 2147 
L 3141 0 
L 2563 0 
L 2563 2109 
Q 2563 2478 2469 2650 
Q 2316 2925 1894 2925 
Q 1544 2925 1259 2684 
Q 975 2444 975 1775 
L 975 0 
L 413 0 
L 413 4606 
z
" transform="scale(0.015625)"/>
      <path id="Helvetica-75" d="M 975 3347 
L 975 1125 
Q 975 869 1056 706 
Q 1206 406 1616 406 
Q 2203 406 2416 931 
Q 2531 1213 2531 1703 
L 2531 3347 
L 3094 3347 
L 3094 0 
L 2563 0 
L 2569 494 
Q 2459 303 2297 172 
Q 1975 -91 1516 -91 
Q 800 -91 541 388 
Q 400 644 400 1072 
L 400 3347 
L 975 3347 
z
M 1747 3428 
L 1747 3428 
z
" transform="scale(0.015625)"/>
     </defs>
     <use xlink:href="#Helvetica-63"/>
     <use xlink:href="#Helvetica-6f" transform="translate(50 0)"/>
     <use xlink:href="#Helvetica-6e" transform="translate(105.615234 0)"/>
     <use xlink:href="#Helvetica-76" transform="translate(161.230469 0)"/>
     <use xlink:href="#Helvetica-65" transform="translate(211.230469 0)"/>
     <use xlink:href="#Helvetica-78" transform="translate(266.845703 0)"/>
     <use xlink:href="#Helvetica-20" transform="translate(316.845703 0)"/>
     <use xlink:href="#Helvetica-68" transform="translate(344.628906 0)"/>
     <use xlink:href="#Helvetica-75" transform="translate(400.244141 0)"/>
     <use xlink:href="#Helvetica-6c" transform="translate(455.859375 0)"/>
     <use xlink:href="#Helvetica-6c" transform="translate(478.076172 0)"/>
     <use xlink:href="#Helvetica-20" transform="translate(500.292969 0)"/>
     <use xlink:href="#Helvetica-6f" transform="translate(528.076172 0)"/>
     <use xlink:href="#Helvetica-66" transform="translate(583.691406 0)"/>
     <use xlink:href="#Helvetica-20" transform="translate(611.474609 0)"/>
     <use xlink:href="#Helvetica-70" transform="translate(639.257812 0)"/>
     <use xlink:href="#Helvetica-72" transform="translate(694.873047 0)"/>
     <use xlink:href="#Helvetica-65" transform="translate(728.173828 0)"/>
     <use xlink:href="#Helvetica-64" transform="translate(783.789062 0)"/>
     <use xlink:href="#Helvetica-69" transform="translate(839.404297 0)"/>
     <use xlink:href="#Helvetica-63" transform="translate(861.621094 0)"/>
     <use xlink:href="#Helvetica-74" transform="translate(911.621094 0)"/>
     <use xlink:href="#Helvetica-65" transform="translate(939.404297 0)"/>
     <use xlink:href="#Helvetica-64" transform="translate(995.019531 0)"/>
    </g>
    <!-- future positions -->
    <g style="fill: #555555" transform="translate(225.72738 87.35351) scale(0.085 -0.085)">
     <defs>
      <path id="Helvetica-73" d="M 747 1050 
Q 772 769 888 619 
Q 1100 347 1625 347 
Q 1938 347 2175 483 
Q 2413 619 2413 903 
Q 2413 1119 2222 1231 
Q 2100 1300 1741 1391 
L 1294 1503 
Q 866 1609 663 1741 
Q 300 1969 300 2372 
Q 300 2847 642 3140 
Q 984 3434 1563 3434 
Q 2319 3434 2653 2991 
Q 2863 2709 2856 2384 
L 2325 2384 
Q 2309 2575 2191 2731 
Q 1997 2953 1519 2953 
Q 1200 2953 1036 2831 
Q 872 2709 872 2509 
Q 872 2291 1088 2159 
Q 1213 2081 1456 2022 
L 1828 1931 
Q 2434 1784 2641 1647 
Q 2969 1431 2969 969 
Q 2969 522 2630 197 
Q 2291 -128 1597 -128 
Q 850 -128 539 211 
Q 228 550 206 1050 
L 747 1050 
z
M 1578 3428 
L 1578 3428 
z
" transform="scale(0.015625)"/>
     </defs>
     <use xlink:href="#Helvetica-66"/>
     <use xlink:href="#Helvetica-75" transform="translate(27.783203 0)"/>
     <use xlink:href="#Helvetica-74" transform="translate(83.398438 0)"/>
     <use xlink:href="#Helvetica-75" transform="translate(111.181641 0)"/>
     <use xlink:href="#Helvetica-72" transform="translate(166.796875 0)"/>
     <use xlink:href="#Helvetica-65" transform="translate(200.097656 0)"/>
     <use xlink:href="#Helvetica-20" transform="translate(255.712891 0)"/>
     <use xlink:href="#Helvetica-70" transform="translate(283.496094 0)"/>
     <use xlink:href="#Helvetica-6f" transform="translate(339.111328 0)"/>
     <use xlink:href="#Helvetica-73" transform="translate(394.726562 0)"/>
     <use xlink:href="#Helvetica-69" transform="translate(444.726562 0)"/>
     <use xlink:href="#Helvetica-74" transform="translate(466.943359 0)"/>
     <use xlink:href="#Helvetica-69" transform="translate(494.726562 0)"/>
     <use xlink:href="#Helvetica-6f" transform="translate(516.943359 0)"/>
     <use xlink:href="#Helvetica-6e" transform="translate(572.558594 0)"/>
     <use xlink:href="#Helvetica-73" transform="translate(628.173828 0)"/>
    </g>
   </g>
   <g id="text_6">
    <!-- polygon $\subset \mathbb{R}^2$ -->
    <g style="fill: #555555" transform="translate(227.007692 103.811538) scale(0.09 -0.09)">
     <defs>
      <path id="Helvetica-79" d="M 2503 3347 
L 3125 3347 
Q 3006 3025 2597 1878 
Q 2291 1016 2084 472 
Q 1597 -809 1397 -1090 
Q 1197 -1372 709 -1372 
Q 591 -1372 527 -1362 
Q 463 -1353 369 -1328 
L 369 -816 
Q 516 -856 581 -865 
Q 647 -875 697 -875 
Q 853 -875 926 -823 
Q 1000 -772 1050 -697 
Q 1066 -672 1162 -440 
Q 1259 -209 1303 -97 
L 66 3347 
L 703 3347 
L 1600 622 
L 2503 3347 
z
M 1597 3428 
L 1597 3428 
z
" transform="scale(0.015625)"/>
      <path id="Helvetica-67" d="M 1594 3406 
Q 1988 3406 2281 3213 
Q 2441 3103 2606 2894 
L 2606 3316 
L 3125 3316 
L 3125 272 
Q 3125 -366 2938 -734 
Q 2588 -1416 1616 -1416 
Q 1075 -1416 706 -1173 
Q 338 -931 294 -416 
L 866 -416 
Q 906 -641 1028 -763 
Q 1219 -950 1628 -950 
Q 2275 -950 2475 -494 
Q 2594 -225 2584 466 
Q 2416 209 2178 84 
Q 1941 -41 1550 -41 
Q 1006 -41 598 345 
Q 191 731 191 1622 
Q 191 2463 602 2934 
Q 1013 3406 1594 3406 
z
M 2606 1688 
Q 2606 2309 2350 2609 
Q 2094 2909 1697 2909 
Q 1103 2909 884 2353 
Q 769 2056 769 1575 
Q 769 1009 998 714 
Q 1228 419 1616 419 
Q 2222 419 2469 966 
Q 2606 1275 2606 1688 
z
M 1659 3428 
L 1659 3428 
z
" transform="scale(0.015625)"/>
      <path id="Cmsy10-bd" d="M 531 1600 
Q 531 2116 800 2542 
Q 1069 2969 1519 3212 
Q 1969 3456 2478 3456 
L 4325 3456 
Q 4375 3456 4408 3415 
Q 4441 3375 4441 3328 
Q 4441 3275 4408 3237 
Q 4375 3200 4325 3200 
L 2497 3200 
Q 2163 3200 1855 3081 
Q 1547 2963 1303 2744 
Q 1059 2525 923 2234 
Q 788 1944 788 1600 
Q 788 1256 923 967 
Q 1059 678 1304 456 
Q 1550 234 1856 117 
Q 2163 0 2497 0 
L 4325 0 
Q 4375 0 4408 -37 
Q 4441 -75 4441 -128 
Q 4441 -175 4408 -215 
Q 4375 -256 4325 -256 
L 2478 -256 
Q 1969 -256 1519 -12 
Q 1069 231 800 657 
Q 531 1084 531 1600 
z
" transform="scale(0.015625)"/>
      <path id="STIXGeneral-Italic-211d" d="M 1229 4179 
L 3360 4179 
Q 3827 4179 4108 3894 
Q 4390 3610 4390 3142 
Q 4390 2554 4060 2186 
Q 3731 1818 3149 1715 
L 4026 0 
L 2925 0 
L 2125 1690 
L 1549 1690 
L 1094 0 
L 109 0 
L 1229 4179 
z
M 3866 3821 
L 3392 2022 
Q 3770 2144 3962 2438 
Q 4154 2733 4154 3136 
Q 4154 3584 3866 3821 
z
M 3142 1978 
L 3648 3872 
Q 3450 3942 3296 3942 
L 2150 3942 
L 1613 1926 
L 2630 1926 
Q 2957 1926 3142 1978 
z
M 3629 237 
L 2899 1696 
Q 2829 1683 2682 1683 
Q 2630 1683 2531 1686 
Q 2432 1690 2387 1690 
L 3072 237 
L 3629 237 
z
M 1907 3942 
L 1408 3942 
L 416 237 
L 915 237 
L 1907 3942 
z
" transform="scale(0.015625)"/>
      <path id="Cmr10-32" d="M 319 0 
L 319 172 
Q 319 188 331 206 
L 1325 1306 
Q 1550 1550 1690 1715 
Q 1831 1881 1968 2097 
Q 2106 2313 2186 2536 
Q 2266 2759 2266 3009 
Q 2266 3272 2169 3511 
Q 2072 3750 1880 3894 
Q 1688 4038 1416 4038 
Q 1138 4038 916 3870 
Q 694 3703 603 3438 
Q 628 3444 672 3444 
Q 816 3444 917 3347 
Q 1019 3250 1019 3097 
Q 1019 2950 917 2848 
Q 816 2747 672 2747 
Q 522 2747 420 2851 
Q 319 2956 319 3097 
Q 319 3338 409 3548 
Q 500 3759 670 3923 
Q 841 4088 1055 4175 
Q 1269 4263 1509 4263 
Q 1875 4263 2190 4108 
Q 2506 3953 2690 3670 
Q 2875 3388 2875 3009 
Q 2875 2731 2753 2481 
Q 2631 2231 2440 2026 
Q 2250 1822 1953 1562 
Q 1656 1303 1563 1216 
L 838 519 
L 1453 519 
Q 1906 519 2211 526 
Q 2516 534 2534 550 
Q 2609 631 2688 1141 
L 2875 1141 
L 2694 0 
L 319 0 
z
" transform="scale(0.015625)"/>
     </defs>
     <use xlink:href="#Helvetica-70" transform="translate(0 0.109375)"/>
     <use xlink:href="#Helvetica-6f" transform="translate(55.615234 0.109375)"/>
     <use xlink:href="#Helvetica-6c" transform="translate(111.230469 0.109375)"/>
     <use xlink:href="#Helvetica-79" transform="translate(133.447266 0.109375)"/>
     <use xlink:href="#Helvetica-67" transform="translate(183.447266 0.109375)"/>
     <use xlink:href="#Helvetica-6f" transform="translate(239.0625 0.109375)"/>
     <use xlink:href="#Helvetica-6e" transform="translate(294.677734 0.109375)"/>
     <use xlink:href="#Helvetica-20" transform="translate(350.292969 0.109375)"/>
     <use xlink:href="#Cmsy10-bd" transform="translate(395.634766 0.109375)"/>
     <use xlink:href="#STIXGeneral-Italic-211d" transform="translate(490.878906 0.109375)"/>
     <use xlink:href="#Cmr10-32" transform="translate(570.315138 38.373438) scale(0.7)"/>
    </g>
   </g>
   <g id="text_7">
    <!-- $\iota_i$ -->
    <g style="fill: #1f4e79" transform="translate(398.675632 159.192435) scale(0.18 -0.18)">
     <defs>
      <path id="Cmmi10-b6" d="M 347 459 
Q 347 578 397 709 
Q 653 1394 959 2625 
Q 984 2716 1059 2772 
Q 1134 2828 1228 2828 
Q 1313 2828 1367 2778 
Q 1422 2728 1422 2644 
Q 1422 2628 1409 2584 
Q 1344 2328 1244 1953 
Q 1144 1578 1051 1278 
Q 959 978 844 672 
Q 756 459 756 288 
Q 756 97 903 97 
Q 1131 97 1340 214 
Q 1550 331 1700 523 
Q 1850 716 1906 941 
Q 1919 978 1959 978 
L 2034 978 
Q 2059 978 2076 961 
Q 2094 944 2094 922 
Q 2094 916 2088 903 
Q 2022 634 1844 414 
Q 1666 194 1411 61 
Q 1156 -72 891 -72 
Q 663 -72 505 79 
Q 347 231 347 459 
z
" transform="scale(0.015625)"/>
     </defs>
     <use xlink:href="#Cmmi10-b6" transform="translate(0 0.8125)"/>
     <use xlink:href="#Cmmi10-69" transform="translate(35.302734 -16.19375) scale(0.7)"/>
    </g>
   </g>
   <g id="text_8">
    <!-- Intent vector -->
    <g style="fill: #222222" transform="translate(374.351882 176.602032) scale(0.11 -0.11)">
     <defs>
      <path id="Helvetica-49" d="M 628 4591 
L 1256 4591 
L 1256 0 
L 628 0 
L 628 4591 
z
" transform="scale(0.015625)"/>
     </defs>
     <use xlink:href="#Helvetica-49"/>
     <use xlink:href="#Helvetica-6e" transform="translate(27.783203 0)"/>
     <use xlink:href="#Helvetica-74" transform="translate(83.398438 0)"/>
     <use xlink:href="#Helvetica-65" transform="translate(111.181641 0)"/>
     <use xlink:href="#Helvetica-6e" transform="translate(166.796875 0)"/>
     <use xlink:href="#Helvetica-74" transform="translate(222.412109 0)"/>
     <use xlink:href="#Helvetica-20" transform="translate(250.195312 0)"/>
     <use xlink:href="#Helvetica-76" transform="translate(277.978516 0)"/>
     <use xlink:href="#Helvetica-65" transform="translate(327.978516 0)"/>
     <use xlink:href="#Helvetica-63" transform="translate(383.59375 0)"/>
     <use xlink:href="#Helvetica-74" transform="translate(433.59375 0)"/>
     <use xlink:href="#Helvetica-6f" transform="translate(461.376953 0)"/>
     <use xlink:href="#Helvetica-72" transform="translate(516.992188 0)"/>
    </g>
   </g>
   <g id="text_9">
    <!-- destination or -->
    <g style="fill: #555555" transform="translate(379.101022 187.146211) scale(0.085 -0.085)">
     <use xlink:href="#Helvetica-64"/>
     <use xlink:href="#Helvetica-65" transform="translate(55.615234 0)"/>
     <use xlink:href="#Helvetica-73" transform="translate(111.230469 0)"/>
     <use xlink:href="#Helvetica-74" transform="translate(161.230469 0)"/>
     <use xlink:href="#Helvetica-69" transform="translate(189.013672 0)"/>
     <use xlink:href="#Helvetica-6e" transform="translate(211.230469 0)"/>
     <use xlink:href="#Helvetica-61" transform="translate(266.845703 0)"/>
     <use xlink:href="#Helvetica-74" transform="translate(322.460938 0)"/>
     <use xlink:href="#Helvetica-69" transform="translate(350.244141 0)"/>
     <use xlink:href="#Helvetica-6f" transform="translate(372.460938 0)"/>
     <use xlink:href="#Helvetica-6e" transform="translate(428.076172 0)"/>
     <use xlink:href="#Helvetica-20" transform="translate(483.691406 0)"/>
     <use xlink:href="#Helvetica-6f" transform="translate(511.474609 0)"/>
     <use xlink:href="#Helvetica-72" transform="translate(567.089844 0)"/>
    </g>
    <!-- velocity goal -->
    <g style="fill: #555555" transform="translate(381.229343 196.234836) scale(0.085 -0.085)">
     <use xlink:href="#Helvetica-76"/>
     <use xlink:href="#Helvetica-65" transform="translate(50 0)"/>
     <use xlink:href="#Helvetica-6c" transform="translate(105.615234 0)"/>
     <use xlink:href="#Helvetica-6f" transform="translate(127.832031 0)"/>
     <use xlink:href="#Helvetica-63" transform="translate(183.447266 0)"/>
     <use xlink:href="#Helvetica-69" transform="translate(233.447266 0)"/>
     <use xlink:href="#Helvetica-74" transform="translate(255.664062 0)"/>
     <use xlink:href="#Helvetica-79" transform="translate(283.447266 0)"/>
     <use xlink:href="#Helvetica-20" transform="translate(333.447266 0)"/>
     <use xlink:href="#Helvetica-67" transform="translate(361.230469 0)"/>
     <use xlink:href="#Helvetica-6f" transform="translate(416.845703 0)"/>
     <use xlink:href="#Helvetica-61" transform="translate(472.460938 0)"/>
     <use xlink:href="#Helvetica-6c" transform="translate(528.076172 0)"/>
    </g>
   </g>
   <g id="text_10">
    <!-- vector $\in \mathbb{R}^2$ -->
    <g style="fill: #555555" transform="translate(381.080632 212.342357) scale(0.09 -0.09)">
     <defs>
      <path id="Cmsy10-32" d="M 1356 403 
Q 1838 0 2497 0 
L 3616 0 
Q 3666 0 3698 -37 
Q 3731 -75 3731 -128 
Q 3731 -175 3698 -215 
Q 3666 -256 3616 -256 
L 2478 -256 
Q 1969 -256 1519 -12 
Q 1069 231 800 657 
Q 531 1084 531 1600 
Q 531 2116 800 2542 
Q 1069 2969 1519 3212 
Q 1969 3456 2478 3456 
L 3616 3456 
Q 3666 3456 3698 3415 
Q 3731 3375 3731 3328 
Q 3731 3275 3698 3237 
Q 3666 3200 3616 3200 
L 2497 3200 
Q 2184 3200 1889 3097 
Q 1594 2994 1356 2797 
Q 1122 2600 958 2304 
Q 794 2009 794 1728 
L 3616 1728 
Q 3666 1728 3698 1687 
Q 3731 1647 3731 1600 
Q 3731 1553 3698 1512 
Q 3666 1472 3616 1472 
L 794 1472 
Q 794 1194 958 897 
Q 1122 600 1356 403 
z
" transform="scale(0.015625)"/>
     </defs>
     <use xlink:href="#Helvetica-76" transform="translate(0 0.109375)"/>
     <use xlink:href="#Helvetica-65" transform="translate(50 0.109375)"/>
     <use xlink:href="#Helvetica-63" transform="translate(105.615234 0.109375)"/>
     <use xlink:href="#Helvetica-74" transform="translate(155.615234 0.109375)"/>
     <use xlink:href="#Helvetica-6f" transform="translate(183.398438 0.109375)"/>
     <use xlink:href="#Helvetica-72" transform="translate(239.013672 0.109375)"/>
     <use xlink:href="#Helvetica-20" transform="translate(272.314453 0.109375)"/>
     <use xlink:href="#Cmsy10-32" transform="translate(317.65625 0.109375)"/>
     <use xlink:href="#STIXGeneral-Italic-211d" transform="translate(401.816406 0.109375)"/>
     <use xlink:href="#Cmr10-32" transform="translate(481.252638 38.373438) scale(0.7)"/>
    </g>
   </g>
   <g id="text_11">
    <!-- $\kappa_i$ -->
    <g style="fill: #1f4e79" transform="translate(339.284779 335.607878) scale(0.18 -0.18)">
     <defs>
      <path id="Cmmi10-2219" d="M 341 109 
Q 341 147 347 166 
L 959 2625 
Q 984 2716 1059 2772 
Q 1134 2828 1228 2828 
Q 1309 2828 1365 2779 
Q 1422 2731 1422 2650 
Q 1422 2631 1420 2620 
Q 1419 2609 1416 2597 
L 1184 1672 
Q 1441 1756 1866 2111 
Q 2291 2466 2508 2612 
Q 2725 2759 3041 2759 
Q 3144 2759 3214 2695 
Q 3284 2631 3284 2522 
Q 3284 2372 3176 2267 
Q 3069 2163 2919 2163 
Q 2816 2163 2745 2230 
Q 2675 2297 2675 2400 
Q 2675 2472 2700 2522 
Q 2547 2459 2386 2346 
Q 2225 2234 2094 2120 
Q 1963 2006 1778 1853 
Q 1594 1700 1447 1619 
Q 1709 1619 1984 1562 
Q 2259 1506 2461 1356 
Q 2663 1206 2663 947 
Q 2663 844 2638 769 
Q 2578 513 2578 384 
Q 2578 97 2778 97 
Q 3006 97 3128 350 
Q 3250 603 3328 941 
Q 3341 978 3378 978 
L 3456 978 
Q 3481 978 3497 961 
Q 3513 944 3513 922 
Q 3513 916 3506 903 
Q 3272 -72 2766 -72 
Q 2584 -72 2445 12 
Q 2306 97 2231 242 
Q 2156 388 2156 569 
Q 2156 684 2181 781 
Q 2203 869 2203 928 
Q 2203 1134 2020 1253 
Q 1838 1372 1589 1415 
Q 1341 1459 1125 1459 
L 800 141 
Q 778 53 701 -9 
Q 625 -72 531 -72 
Q 453 -72 397 -22 
Q 341 28 341 109 
z
" transform="scale(0.015625)"/>
     </defs>
     <use xlink:href="#Cmmi10-2219" transform="translate(0 0.8125)"/>
     <use xlink:href="#Cmmi10-69" transform="translate(57.617188 -16.19375) scale(0.7)"/>
    </g>
   </g>
   <g id="text_12">
    <!-- Capability -->
    <g style="fill: #222222" transform="translate(323.144623 353.092241) scale(0.11 -0.11)">
     <defs>
      <path id="Helvetica-43" d="M 2422 4716 
Q 3294 4716 3775 4256 
Q 4256 3797 4309 3213 
L 3703 3213 
Q 3600 3656 3292 3915 
Q 2984 4175 2428 4175 
Q 1750 4175 1333 3698 
Q 916 3222 916 2238 
Q 916 1431 1292 929 
Q 1669 428 2416 428 
Q 3103 428 3463 956 
Q 3653 1234 3747 1688 
L 4353 1688 
Q 4272 963 3816 472 
Q 3269 -119 2341 -119 
Q 1541 -119 997 366 
Q 281 1006 281 2344 
Q 281 3359 819 4009 
Q 1400 4716 2422 4716 
z
M 2297 4716 
L 2297 4716 
z
" transform="scale(0.015625)"/>
      <path id="Helvetica-62" d="M 369 4606 
L 916 4606 
L 916 2941 
Q 1100 3181 1356 3307 
Q 1613 3434 1913 3434 
Q 2538 3434 2927 3004 
Q 3316 2575 3316 1738 
Q 3316 944 2931 419 
Q 2547 -106 1866 -106 
Q 1484 -106 1222 78 
Q 1066 188 888 428 
L 888 0 
L 369 0 
L 369 4606 
z
M 1831 391 
Q 2288 391 2514 753 
Q 2741 1116 2741 1709 
Q 2741 2238 2514 2584 
Q 2288 2931 1847 2931 
Q 1463 2931 1173 2647 
Q 884 2363 884 1709 
Q 884 1238 1003 944 
Q 1225 391 1831 391 
z
" transform="scale(0.015625)"/>
     </defs>
     <use xlink:href="#Helvetica-43"/>
     <use xlink:href="#Helvetica-61" transform="translate(72.216797 0)"/>
     <use xlink:href="#Helvetica-70" transform="translate(127.832031 0)"/>
     <use xlink:href="#Helvetica-61" transform="translate(183.447266 0)"/>
     <use xlink:href="#Helvetica-62" transform="translate(239.0625 0)"/>
     <use xlink:href="#Helvetica-69" transform="translate(294.677734 0)"/>
     <use xlink:href="#Helvetica-6c" transform="translate(316.894531 0)"/>
     <use xlink:href="#Helvetica-69" transform="translate(339.111328 0)"/>
     <use xlink:href="#Helvetica-74" transform="translate(361.328125 0)"/>
     <use xlink:href="#Helvetica-79" transform="translate(389.111328 0)"/>
    </g>
   </g>
   <g id="text_13">
    <!-- max speed / agility -->
    <g style="fill: #555555" transform="translate(312.099467 368.115927) scale(0.085 -0.085)">
     <defs>
      <path id="Helvetica-6d" d="M 413 3347 
L 969 3347 
L 969 2872 
Q 1169 3119 1331 3231 
Q 1609 3422 1963 3422 
Q 2363 3422 2606 3225 
Q 2744 3113 2856 2894 
Q 3044 3163 3297 3292 
Q 3550 3422 3866 3422 
Q 4541 3422 4784 2934 
Q 4916 2672 4916 2228 
L 4916 0 
L 4331 0 
L 4331 2325 
Q 4331 2659 4164 2784 
Q 3997 2909 3756 2909 
Q 3425 2909 3186 2687 
Q 2947 2466 2947 1947 
L 2947 0 
L 2375 0 
L 2375 2184 
Q 2375 2525 2294 2681 
Q 2166 2916 1816 2916 
Q 1497 2916 1236 2669 
Q 975 2422 975 1775 
L 975 0 
L 413 0 
L 413 3347 
z
" transform="scale(0.015625)"/>
      <path id="Helvetica-2f" d="M 1456 4591 
L 1931 4591 
L 475 0 
L 0 0 
L 1456 4591 
z
" transform="scale(0.015625)"/>
     </defs>
     <use xlink:href="#Helvetica-6d"/>
     <use xlink:href="#Helvetica-61" transform="translate(83.300781 0)"/>
     <use xlink:href="#Helvetica-78" transform="translate(138.916016 0)"/>
     <use xlink:href="#Helvetica-20" transform="translate(188.916016 0)"/>
     <use xlink:href="#Helvetica-73" transform="translate(216.699219 0)"/>
     <use xlink:href="#Helvetica-70" transform="translate(266.699219 0)"/>
     <use xlink:href="#Helvetica-65" transform="translate(322.314453 0)"/>
     <use xlink:href="#Helvetica-65" transform="translate(377.929688 0)"/>
     <use xlink:href="#Helvetica-64" transform="translate(433.544922 0)"/>
     <use xlink:href="#Helvetica-20" transform="translate(489.160156 0)"/>
     <use xlink:href="#Helvetica-2f" transform="translate(516.943359 0)"/>
     <use xlink:href="#Helvetica-20" transform="translate(544.726562 0)"/>
     <use xlink:href="#Helvetica-61" transform="translate(572.509766 0)"/>
     <use xlink:href="#Helvetica-67" transform="translate(628.125 0)"/>
     <use xlink:href="#Helvetica-69" transform="translate(683.740234 0)"/>
     <use xlink:href="#Helvetica-6c" transform="translate(705.957031 0)"/>
     <use xlink:href="#Helvetica-69" transform="translate(728.173828 0)"/>
     <use xlink:href="#Helvetica-74" transform="translate(750.390625 0)"/>
     <use xlink:href="#Helvetica-79" transform="translate(778.173828 0)"/>
    </g>
   </g>
   <g id="text_14">
    <!-- scalar $\in \mathbb{R}_{+}$ -->
    <g style="fill: #555555" transform="translate(323.624779 388.672722) scale(0.09 -0.09)">
     <defs>
      <path id="Cmr10-2b" d="M 481 1472 
Q 428 1472 393 1512 
Q 359 1553 359 1600 
Q 359 1647 393 1687 
Q 428 1728 481 1728 
L 2363 1728 
L 2363 3616 
Q 2363 3666 2400 3698 
Q 2438 3731 2491 3731 
Q 2538 3731 2578 3698 
Q 2619 3666 2619 3616 
L 2619 1728 
L 4500 1728 
Q 4547 1728 4581 1687 
Q 4616 1647 4616 1600 
Q 4616 1553 4581 1512 
Q 4547 1472 4500 1472 
L 2619 1472 
L 2619 -416 
Q 2619 -466 2578 -498 
Q 2538 -531 2491 -531 
Q 2438 -531 2400 -498 
Q 2363 -466 2363 -416 
L 2363 1472 
L 481 1472 
z
" transform="scale(0.015625)"/>
     </defs>
     <use xlink:href="#Helvetica-73" transform="translate(0 0.265625)"/>
     <use xlink:href="#Helvetica-63" transform="translate(50 0.265625)"/>
     <use xlink:href="#Helvetica-61" transform="translate(100 0.265625)"/>
     <use xlink:href="#Helvetica-6c" transform="translate(155.615234 0.265625)"/>
     <use xlink:href="#Helvetica-61" transform="translate(177.832031 0.265625)"/>
     <use xlink:href="#Helvetica-72" transform="translate(233.447266 0.265625)"/>
     <use xlink:href="#Helvetica-20" transform="translate(266.748047 0.265625)"/>
     <use xlink:href="#Cmsy10-32" transform="translate(312.089844 0.265625)"/>
     <use xlink:href="#STIXGeneral-Italic-211d" transform="translate(396.25 0.265625)"/>
     <use xlink:href="#Cmr10-2b" transform="translate(464.949982 -16.740625) scale(0.7)"/>
    </g>
   </g>
   <g id="text_15">
    <!-- $\tau_i$ -->
    <g style="fill: #1f4e79" transform="translate(155.050605 335.607878) scale(0.18 -0.18)">
     <defs>
      <path id="Cmmi10-bf" d="M 997 97 
Q 997 141 1006 166 
L 1678 2363 
L 1100 2363 
Q 866 2363 662 2216 
Q 459 2069 325 1844 
Q 313 1819 288 1819 
L 213 1819 
Q 153 1819 153 1881 
Q 153 1894 166 1919 
Q 375 2275 614 2517 
Q 853 2759 1153 2759 
L 3116 2759 
Q 3184 2759 3231 2712 
Q 3278 2666 3278 2597 
Q 3278 2503 3211 2433 
Q 3144 2363 3047 2363 
L 1888 2363 
L 1459 153 
Q 1434 50 1365 -17 
Q 1297 -84 1191 -84 
Q 1109 -84 1053 -32 
Q 997 19 997 97 
z
" transform="scale(0.015625)"/>
     </defs>
     <use xlink:href="#Cmmi10-bf" transform="translate(0 0.890625)"/>
     <use xlink:href="#Cmmi10-69" transform="translate(43.701172 -16.115625) scale(0.7)"/>
    </g>
   </g>
   <g id="text_16">
    <!-- Trust signal -->
    <g style="fill: #222222" transform="translate(133.375918 352.947006) scale(0.11 -0.11)">
     <defs>
      <path id="Helvetica-54" d="M 3828 4591 
L 3828 4044 
L 2281 4044 
L 2281 0 
L 1650 0 
L 1650 4044 
L 103 4044 
L 103 4591 
L 3828 4591 
z
" transform="scale(0.015625)"/>
     </defs>
     <use xlink:href="#Helvetica-54"/>
     <use xlink:href="#Helvetica-72" transform="translate(61.083984 0)"/>
     <use xlink:href="#Helvetica-75" transform="translate(94.384766 0)"/>
     <use xlink:href="#Helvetica-73" transform="translate(150 0)"/>
     <use xlink:href="#Helvetica-74" transform="translate(200 0)"/>
     <use xlink:href="#Helvetica-20" transform="translate(227.783203 0)"/>
     <use xlink:href="#Helvetica-73" transform="translate(255.566406 0)"/>
     <use xlink:href="#Helvetica-69" transform="translate(305.566406 0)"/>
     <use xlink:href="#Helvetica-67" transform="translate(327.783203 0)"/>
     <use xlink:href="#Helvetica-6e" transform="translate(383.398438 0)"/>
     <use xlink:href="#Helvetica-61" transform="translate(439.013672 0)"/>
     <use xlink:href="#Helvetica-6c" transform="translate(494.628906 0)"/>
    </g>
   </g>
   <g id="text_17">
    <!-- current trust score -->
    <g style="fill: #555555" transform="translate(127.55623 368.160419) scale(0.085 -0.085)">
     <use xlink:href="#Helvetica-63"/>
     <use xlink:href="#Helvetica-75" transform="translate(50 0)"/>
     <use xlink:href="#Helvetica-72" transform="translate(105.615234 0)"/>
     <use xlink:href="#Helvetica-72" transform="translate(138.916016 0)"/>
     <use xlink:href="#Helvetica-65" transform="translate(172.216797 0)"/>
     <use xlink:href="#Helvetica-6e" transform="translate(227.832031 0)"/>
     <use xlink:href="#Helvetica-74" transform="translate(283.447266 0)"/>
     <use xlink:href="#Helvetica-20" transform="translate(311.230469 0)"/>
     <use xlink:href="#Helvetica-74" transform="translate(339.013672 0)"/>
     <use xlink:href="#Helvetica-72" transform="translate(366.796875 0)"/>
     <use xlink:href="#Helvetica-75" transform="translate(400.097656 0)"/>
     <use xlink:href="#Helvetica-73" transform="translate(455.712891 0)"/>
     <use xlink:href="#Helvetica-74" transform="translate(505.712891 0)"/>
     <use xlink:href="#Helvetica-20" transform="translate(533.496094 0)"/>
     <use xlink:href="#Helvetica-73" transform="translate(561.279297 0)"/>
     <use xlink:href="#Helvetica-63" transform="translate(611.279297 0)"/>
     <use xlink:href="#Helvetica-6f" transform="translate(661.279297 0)"/>
     <use xlink:href="#Helvetica-72" transform="translate(716.894531 0)"/>
     <use xlink:href="#Helvetica-65" transform="translate(750.195312 0)"/>
    </g>
   </g>
   <g id="text_18">
    <!-- scalar $\in [0, 1]$ -->
    <g style="fill: #555555" transform="translate(134.935605 388.717722) scale(0.09 -0.09)">
     <defs>
      <path id="Cmr10-5b" d="M 756 -1600 
L 756 4800 
L 1631 4800 
L 1631 4544 
L 1013 4544 
L 1013 -1344 
L 1631 -1344 
L 1631 -1600 
L 756 -1600 
z
" transform="scale(0.015625)"/>
      <path id="Cmr10-30" d="M 1600 -141 
Q 816 -141 533 504 
Q 250 1150 250 2041 
Q 250 2597 351 3087 
Q 453 3578 754 3920 
Q 1056 4263 1600 4263 
Q 2022 4263 2290 4056 
Q 2559 3850 2700 3523 
Q 2841 3197 2892 2823 
Q 2944 2450 2944 2041 
Q 2944 1491 2842 1011 
Q 2741 531 2444 195 
Q 2147 -141 1600 -141 
z
M 1600 25 
Q 1956 25 2131 390 
Q 2306 756 2347 1200 
Q 2388 1644 2388 2144 
Q 2388 2625 2347 3031 
Q 2306 3438 2132 3767 
Q 1959 4097 1600 4097 
Q 1238 4097 1063 3765 
Q 888 3434 847 3029 
Q 806 2625 806 2144 
Q 806 1788 823 1472 
Q 841 1156 916 820 
Q 991 484 1158 254 
Q 1325 25 1600 25 
z
" transform="scale(0.015625)"/>
      <path id="Cmmi10-3b" d="M 634 -1153 
Q 634 -1125 659 -1100 
Q 891 -878 1019 -587 
Q 1147 -297 1147 25 
L 1147 103 
Q 1044 0 891 0 
Q 744 0 641 103 
Q 538 206 538 353 
Q 538 503 641 603 
Q 744 703 891 703 
Q 1119 703 1216 492 
Q 1313 281 1313 25 
Q 1313 -331 1170 -651 
Q 1028 -972 769 -1228 
Q 744 -1241 728 -1241 
Q 697 -1241 665 -1212 
Q 634 -1184 634 -1153 
z
" transform="scale(0.015625)"/>
      <path id="Cmr10-31" d="M 594 0 
L 594 225 
Q 1394 225 1394 428 
L 1394 3788 
Q 1063 3628 556 3628 
L 556 3853 
Q 1341 3853 1741 4263 
L 1831 4263 
Q 1853 4263 1873 4245 
Q 1894 4228 1894 4206 
L 1894 428 
Q 1894 225 2694 225 
L 2694 0 
L 594 0 
z
" transform="scale(0.015625)"/>
      <path id="Cmr10-5d" d="M 141 -1600 
L 141 -1344 
L 763 -1344 
L 763 4544 
L 141 4544 
L 141 4800 
L 1019 4800 
L 1019 -1600 
L 141 -1600 
z
" transform="scale(0.015625)"/>
     </defs>
     <use xlink:href="#Helvetica-73"/>
     <use xlink:href="#Helvetica-63" transform="translate(50 0)"/>
     <use xlink:href="#Helvetica-61" transform="translate(100 0)"/>
     <use xlink:href="#Helvetica-6c" transform="translate(155.615234 0)"/>
     <use xlink:href="#Helvetica-61" transform="translate(177.832031 0)"/>
     <use xlink:href="#Helvetica-72" transform="translate(233.447266 0)"/>
     <use xlink:href="#Helvetica-20" transform="translate(266.748047 0)"/>
     <use xlink:href="#Cmsy10-32" transform="translate(312.089844 0)"/>
     <use xlink:href="#Cmr10-5b" transform="translate(396.25 0)"/>
     <use xlink:href="#Cmr10-30" transform="translate(423.935547 0)"/>
     <use xlink:href="#Cmmi10-3b" transform="translate(473.935547 0)"/>
     <use xlink:href="#Cmr10-31" transform="translate(519.179688 0)"/>
     <use xlink:href="#Cmr10-5d" transform="translate(569.179688 0)"/>
    </g>
   </g>
   <g id="text_19">
    <!-- $\rho_i$ -->
    <g style="fill: #1f4e79" transform="translate(97.009753 158.98431) scale(0.18 -0.18)">
     <defs>
      <path id="Cmmi10-bd" d="M 178 -1203 
Q 178 -1166 184 -1153 
L 819 1403 
Q 909 1747 1129 2076 
Q 1350 2406 1662 2617 
Q 1975 2828 2322 2828 
Q 2600 2828 2808 2683 
Q 3016 2538 3120 2302 
Q 3225 2066 3225 1784 
Q 3225 1475 3098 1144 
Q 2972 813 2748 538 
Q 2525 263 2234 95 
Q 1944 -72 1625 -72 
Q 1438 -72 1272 39 
Q 1106 150 1013 331 
L 634 -1178 
Q 616 -1269 541 -1325 
Q 466 -1381 372 -1381 
Q 294 -1381 236 -1332 
Q 178 -1284 178 -1203 
z
M 1638 97 
Q 1978 97 2229 445 
Q 2481 794 2614 1264 
Q 2747 1734 2747 2059 
Q 2747 2303 2640 2483 
Q 2534 2663 2309 2663 
Q 2031 2663 1818 2452 
Q 1606 2241 1478 1956 
Q 1350 1672 1269 1363 
L 1094 647 
Q 1134 416 1276 256 
Q 1419 97 1638 97 
z
" transform="scale(0.015625)"/>
     </defs>
     <use xlink:href="#Cmmi10-bd" transform="translate(0 0.8125)"/>
     <use xlink:href="#Cmmi10-69" transform="translate(51.708984 -16.19375) scale(0.7)"/>
    </g>
   </g>
   <g id="text_20">
    <!-- Risk field -->
    <g style="fill: #222222" transform="translate(82.168659 176.602032) scale(0.11 -0.11)">
     <defs>
      <path id="Helvetica-52" d="M 2622 2488 
Q 3059 2488 3314 2663 
Q 3569 2838 3569 3294 
Q 3569 3784 3213 3963 
Q 3022 4056 2703 4056 
L 1184 4056 
L 1184 2488 
L 2622 2488 
z
M 563 4591 
L 2688 4591 
Q 3213 4591 3553 4438 
Q 4200 4144 4200 3353 
Q 4200 2941 4029 2678 
Q 3859 2416 3553 2256 
Q 3822 2147 3958 1969 
Q 4094 1791 4109 1391 
L 4131 775 
Q 4141 513 4175 384 
Q 4231 166 4375 103 
L 4375 0 
L 3613 0 
Q 3581 59 3562 153 
Q 3544 247 3531 516 
L 3494 1281 
Q 3472 1731 3159 1884 
Q 2981 1969 2600 1969 
L 1184 1969 
L 1184 0 
L 563 0 
L 563 4591 
z
" transform="scale(0.015625)"/>
      <path id="Helvetica-6b" d="M 400 4591 
L 941 4591 
L 941 1925 
L 2384 3347 
L 3103 3347 
L 1822 2094 
L 3175 0 
L 2456 0 
L 1413 1688 
L 941 1256 
L 941 0 
L 400 0 
L 400 4591 
z
" transform="scale(0.015625)"/>
     </defs>
     <use xlink:href="#Helvetica-52"/>
     <use xlink:href="#Helvetica-69" transform="translate(72.216797 0)"/>
     <use xlink:href="#Helvetica-73" transform="translate(94.433594 0)"/>
     <use xlink:href="#Helvetica-6b" transform="translate(144.433594 0)"/>
     <use xlink:href="#Helvetica-20" transform="translate(194.433594 0)"/>
     <use xlink:href="#Helvetica-66" transform="translate(222.216797 0)"/>
     <use xlink:href="#Helvetica-69" transform="translate(250 0)"/>
     <use xlink:href="#Helvetica-65" transform="translate(272.216797 0)"/>
     <use xlink:href="#Helvetica-6c" transform="translate(327.832031 0)"/>
     <use xlink:href="#Helvetica-64" transform="translate(350.048828 0)"/>
    </g>
   </g>
   <g id="text_21">
    <!-- local risk perception -->
    <g style="fill: #555555" transform="translate(66.923034 191.744976) scale(0.085 -0.085)">
     <use xlink:href="#Helvetica-6c"/>
     <use xlink:href="#Helvetica-6f" transform="translate(22.216797 0)"/>
     <use xlink:href="#Helvetica-63" transform="translate(77.832031 0)"/>
     <use xlink:href="#Helvetica-61" transform="translate(127.832031 0)"/>
     <use xlink:href="#Helvetica-6c" transform="translate(183.447266 0)"/>
     <use xlink:href="#Helvetica-20" transform="translate(205.664062 0)"/>
     <use xlink:href="#Helvetica-72" transform="translate(233.447266 0)"/>
     <use xlink:href="#Helvetica-69" transform="translate(266.748047 0)"/>
     <use xlink:href="#Helvetica-73" transform="translate(288.964844 0)"/>
     <use xlink:href="#Helvetica-6b" transform="translate(338.964844 0)"/>
     <use xlink:href="#Helvetica-20" transform="translate(388.964844 0)"/>
     <use xlink:href="#Helvetica-70" transform="translate(416.748047 0)"/>
     <use xlink:href="#Helvetica-65" transform="translate(472.363281 0)"/>
     <use xlink:href="#Helvetica-72" transform="translate(527.978516 0)"/>
     <use xlink:href="#Helvetica-63" transform="translate(561.279297 0)"/>
     <use xlink:href="#Helvetica-65" transform="translate(611.279297 0)"/>
     <use xlink:href="#Helvetica-70" transform="translate(666.894531 0)"/>
     <use xlink:href="#Helvetica-74" transform="translate(722.509766 0)"/>
     <use xlink:href="#Helvetica-69" transform="translate(750.292969 0)"/>
     <use xlink:href="#Helvetica-6f" transform="translate(772.509766 0)"/>
     <use xlink:href="#Helvetica-6e" transform="translate(828.125 0)"/>
    </g>
   </g>
   <g id="text_22">
    <!-- field $\mathbb{R}^2 \to [0, 1]$ -->
    <g style="fill: #555555" transform="translate(74.419753 212.752278) scale(0.09 -0.09)">
     <defs>
      <path id="Cmsy10-21" d="M 481 1472 
Q 428 1472 393 1512 
Q 359 1553 359 1600 
Q 359 1647 393 1687 
Q 428 1728 481 1728 
L 5338 1728 
Q 5094 1903 4906 2133 
Q 4719 2363 4594 2627 
Q 4469 2891 4416 3188 
Q 4416 3272 4481 3272 
L 4609 3272 
Q 4631 3272 4648 3253 
Q 4666 3234 4672 3213 
Q 4725 2938 4839 2702 
Q 4953 2466 5125 2262 
Q 5297 2059 5509 1912 
Q 5722 1766 5991 1672 
Q 6034 1644 6034 1600 
Q 6034 1550 5991 1538 
Q 5656 1422 5378 1192 
Q 5100 963 4919 652 
Q 4738 341 4672 -13 
Q 4666 -34 4647 -53 
Q 4628 -72 4609 -72 
L 4481 -72 
Q 4416 -72 4416 13 
Q 4497 450 4740 836 
Q 4984 1222 5338 1472 
L 481 1472 
z
" transform="scale(0.015625)"/>
     </defs>
     <use xlink:href="#Helvetica-66" transform="translate(0 0.109375)"/>
     <use xlink:href="#Helvetica-69" transform="translate(27.783203 0.109375)"/>
     <use xlink:href="#Helvetica-65" transform="translate(50 0.109375)"/>
     <use xlink:href="#Helvetica-6c" transform="translate(105.615234 0.109375)"/>
     <use xlink:href="#Helvetica-64" transform="translate(127.832031 0.109375)"/>
     <use xlink:href="#Helvetica-20" transform="translate(183.447266 0.109375)"/>
     <use xlink:href="#STIXGeneral-Italic-211d" transform="translate(211.230469 0.109375)"/>
     <use xlink:href="#Cmr10-32" transform="translate(290.6667 38.373438) scale(0.7)"/>
     <use xlink:href="#Cmsy10-21" transform="translate(349.602638 0.109375)"/>
     <use xlink:href="#Cmr10-5b" transform="translate(467.161232 0.109375)"/>
     <use xlink:href="#Cmr10-30" transform="translate(494.846779 0.109375)"/>
     <use xlink:href="#Cmmi10-3b" transform="translate(544.846779 0.109375)"/>
     <use xlink:href="#Cmr10-31" transform="translate(590.090919 0.109375)"/>
     <use xlink:href="#Cmr10-5d" transform="translate(640.090919 0.109375)"/>
    </g>
   </g>
  </g>
 </g>
 <defs>
  <clipPath id="pbda935f772">
   <rect x="7.2" y="7.2" width="494.695385" height="443.52"/>
  </clipPath>
 </defs>
</svg>
