<?xml version="1.0" encoding="utf-8" standalone="no"?>
<!DOCTYPE svg PUBLIC "-//W3C//DTD SVG 1.1//EN"
  "http://www.w3.org/Graphics/SVG/1.1/DTD/svg11.dtd">
<svg xmlns:xlink="http://www.w3.org/1999/xlink" width="586.86375pt" height="568.676406pt" viewBox="0 0 586.86375 568.676406" xmlns="http://www.w3.org/2000/svg" version="1.1">
 <metadata>
  <rdf:RDF xmlns:dc="http://purl.org/dc/elements/1.1/" xmlns:cc="http://creativecommons.org/ns#" xmlns:rdf="http://www.w3.org/1999/02/22-rdf-syntax-ns#">
   <cc:Work>
    <dc:type rdf:resource="http://purl.org/dc/dcmitype/StillImage"/>
    <dc:date>2026-04-20T13:40:28.862468</dc:date>
    <dc:format>image/svg+xml</dc:format>
    <dc:creator>
     <cc:Agent>
      <dc:title>Matplotlib v3.10.8, https://matplotlib.org/</dc:title>
     </cc:Agent>
    </dc:creator>
   </cc:Work>
  </rdf:RDF>
 </metadata>
 <defs>
  <style type="text/css">*{stroke-linejoin: round; stroke-linecap: butt}</style>
 </defs>
 <g id="figure_1">
  <g id="patch_1">
   <path d="M 0 568.676406 
L 586.86375 568.676406 
L 586.86375 0 
L 0 0 
z
" style="fill: #ffffff"/>
  </g>
  <g id="axes_1">
   <g id="patch_2">
    <path d="M 38.5875 531.88 
L 579.66375 531.88 
L 579.66375 7.2 
L 38.5875 7.2 
z
" style="fill: #ffffff"/>
   </g>
   <g id="patch_3">
    <path d="M 87.77625 482.69125 
L 497.6825 482.69125 
L 497.6825 72.785 
L 87.77625 72.785 
z
" clip-path="url(#pc7242d45c3)" style="fill: #fafafa; stroke: #222222; stroke-width: 1.4; stroke-linejoin: miter"/>
   </g>
   <g id="matplotlib.axis_1">
    <g id="xtick_1">
     <g id="line2d_1">
      <defs>
       <path id="m4e1a98c8d7" d="M 0 0 
L 0 3.5 
" style="stroke: #555555; stroke-width: 0.8"/>
      </defs>
      <g>
       <use xlink:href="#m4e1a98c8d7" x="87.77625" y="531.88" style="fill: #555555; stroke: #555555; stroke-width: 0.8"/>
      </g>
     </g>
     <g id="text_1">
      <!-- 0 -->
      <g style="fill: #555555" transform="translate(85.273828 545.336094) scale(0.09 -0.09)">
       <defs>
        <path id="Helvetica-30" d="M 1731 4475 
Q 2600 4475 2988 3759 
Q 3288 3206 3288 2244 
Q 3288 1331 3016 734 
Q 2622 -122 1728 -122 
Q 922 -122 528 578 
Q 200 1163 200 2147 
Q 200 2909 397 3456 
Q 766 4475 1731 4475 
z
M 1725 391 
Q 2163 391 2422 778 
Q 2681 1166 2681 2222 
Q 2681 2984 2493 3476 
Q 2306 3969 1766 3969 
Q 1269 3969 1039 3501 
Q 809 3034 809 2125 
Q 809 1441 956 1025 
Q 1181 391 1725 391 
z
" transform="scale(0.015625)"/>
       </defs>
       <use xlink:href="#Helvetica-30"/>
      </g>
     </g>
    </g>
    <g id="xtick_2">
     <g id="line2d_2">
      <g>
       <use xlink:href="#m4e1a98c8d7" x="169.7575" y="531.88" style="fill: #555555; stroke: #555555; stroke-width: 0.8"/>
      </g>
     </g>
     <g id="text_2">
      <!-- 10 -->
      <g style="fill: #555555" transform="translate(164.752656 545.336094) scale(0.09 -0.09)">
       <defs>
        <path id="Helvetica-31" d="M 613 3169 
L 613 3600 
Q 1222 3659 1462 3798 
Q 1703 3938 1822 4456 
L 2266 4456 
L 2266 0 
L 1666 0 
L 1666 3169 
L 613 3169 
z
" transform="scale(0.015625)"/>
       </defs>
       <use xlink:href="#Helvetica-31"/>
       <use xlink:href="#Helvetica-30" transform="translate(55.615234 0)"/>
      </g>
     </g>
    </g>
    <g id="xtick_3">
     <g id="line2d_3">
      <g>
       <use xlink:href="#m4e1a98c8d7" x="251.73875" y="531.88" style="fill: #555555; stroke: #555555; stroke-width: 0.8"/>
      </g>
     </g>
     <g id="text_3">
      <!-- 20 -->
      <g style="fill: #555555" transform="translate(246.733906 545.336094) scale(0.09 -0.09)">
       <defs>
        <path id="Helvetica-32" d="M 200 0 
Q 231 578 439 1006 
Q 647 1434 1250 1784 
L 1850 2131 
Q 2253 2366 2416 2531 
Q 2672 2791 2672 3125 
Q 2672 3516 2437 3745 
Q 2203 3975 1813 3975 
Q 1234 3975 1013 3538 
Q 894 3303 881 2888 
L 309 2888 
Q 319 3472 525 3841 
Q 891 4491 1816 4491 
Q 2584 4491 2939 4075 
Q 3294 3659 3294 3150 
Q 3294 2613 2916 2231 
Q 2697 2009 2131 1694 
L 1703 1456 
Q 1397 1288 1222 1134 
Q 909 863 828 531 
L 3272 531 
L 3272 0 
L 200 0 
z
" transform="scale(0.015625)"/>
       </defs>
       <use xlink:href="#Helvetica-32"/>
       <use xlink:href="#Helvetica-30" transform="translate(55.615234 0)"/>
      </g>
     </g>
    </g>
    <g id="xtick_4">
     <g id="line2d_4">
      <g>
       <use xlink:href="#m4e1a98c8d7" x="333.72" y="531.88" style="fill: #555555; stroke: #555555; stroke-width: 0.8"/>
      </g>
     </g>
     <g id="text_4">
      <!-- 30 -->
      <g style="fill: #555555" transform="translate(328.715156 545.336094) scale(0.09 -0.09)">
       <defs>
        <path id="Helvetica-33" d="M 1663 -122 
Q 869 -122 511 314 
Q 153 750 153 1375 
L 741 1375 
Q 778 941 903 744 
Q 1122 391 1694 391 
Q 2138 391 2406 628 
Q 2675 866 2675 1241 
Q 2675 1703 2392 1887 
Q 2109 2072 1606 2072 
Q 1550 2072 1492 2070 
Q 1434 2069 1375 2066 
L 1375 2563 
Q 1463 2553 1522 2550 
Q 1581 2547 1650 2547 
Q 1966 2547 2169 2647 
Q 2525 2822 2525 3272 
Q 2525 3606 2287 3787 
Q 2050 3969 1734 3969 
Q 1172 3969 956 3594 
Q 838 3388 822 3006 
L 266 3006 
Q 266 3506 466 3856 
Q 809 4481 1675 4481 
Q 2359 4481 2734 4176 
Q 3109 3872 3109 3294 
Q 3109 2881 2888 2625 
Q 2750 2466 2531 2375 
Q 2884 2278 3082 2001 
Q 3281 1725 3281 1325 
Q 3281 684 2859 281 
Q 2438 -122 1663 -122 
z
" transform="scale(0.015625)"/>
       </defs>
       <use xlink:href="#Helvetica-33"/>
       <use xlink:href="#Helvetica-30" transform="translate(55.615234 0)"/>
      </g>
     </g>
    </g>
    <g id="xtick_5">
     <g id="line2d_5">
      <g>
       <use xlink:href="#m4e1a98c8d7" x="415.70125" y="531.88" style="fill: #555555; stroke: #555555; stroke-width: 0.8"/>
      </g>
     </g>
     <g id="text_5">
      <!-- 40 -->
      <g style="fill: #555555" transform="translate(410.696406 545.336094) scale(0.09 -0.09)">
       <defs>
        <path id="Helvetica-34" d="M 2116 1584 
L 2116 3613 
L 681 1584 
L 2116 1584 
z
M 2125 0 
L 2125 1094 
L 163 1094 
L 163 1644 
L 2213 4488 
L 2688 4488 
L 2688 1584 
L 3347 1584 
L 3347 1094 
L 2688 1094 
L 2688 0 
L 2125 0 
z
" transform="scale(0.015625)"/>
       </defs>
       <use xlink:href="#Helvetica-34"/>
       <use xlink:href="#Helvetica-30" transform="translate(55.615234 0)"/>
      </g>
     </g>
    </g>
    <g id="xtick_6">
     <g id="line2d_6">
      <g>
       <use xlink:href="#m4e1a98c8d7" x="497.6825" y="531.88" style="fill: #555555; stroke: #555555; stroke-width: 0.8"/>
      </g>
     </g>
     <g id="text_6">
      <!-- 50 -->
      <g style="fill: #555555" transform="translate(492.677656 545.336094) scale(0.09 -0.09)">
       <defs>
        <path id="Helvetica-35" d="M 791 1141 
Q 847 659 1238 475 
Q 1438 381 1700 381 
Q 2200 381 2440 700 
Q 2681 1019 2681 1406 
Q 2681 1875 2395 2131 
Q 2109 2388 1709 2388 
Q 1419 2388 1211 2275 
Q 1003 2163 856 1963 
L 369 1991 
L 709 4400 
L 3034 4400 
L 3034 3856 
L 1131 3856 
L 941 2613 
Q 1097 2731 1238 2791 
Q 1488 2894 1816 2894 
Q 2431 2894 2859 2497 
Q 3288 2100 3288 1491 
Q 3288 856 2895 371 
Q 2503 -113 1644 -113 
Q 1097 -113 676 195 
Q 256 503 206 1141 
L 791 1141 
z
" transform="scale(0.015625)"/>
       </defs>
       <use xlink:href="#Helvetica-35"/>
       <use xlink:href="#Helvetica-30" transform="translate(55.615234 0)"/>
      </g>
     </g>
    </g>
    <g id="text_7">
     <!-- x  (m) -->
     <g style="fill: #222222" transform="translate(295.075703 559.183594) scale(0.11 -0.11)">
      <defs>
       <path id="Helvetica-78" d="M 94 3347 
L 822 3347 
L 1591 2169 
L 2369 3347 
L 3053 3331 
L 1925 1716 
L 3103 0 
L 2384 0 
L 1553 1256 
L 747 0 
L 34 0 
L 1213 1716 
L 94 3347 
z
" transform="scale(0.015625)"/>
       <path id="Helvetica-20" transform="scale(0.015625)"/>
       <path id="Helvetica-28" d="M 1894 4666 
Q 1403 3713 1256 3263 
Q 1034 2578 1034 1681 
Q 1034 775 1288 25 
Q 1444 -438 1903 -1306 
L 1525 -1306 
Q 1069 -594 959 -397 
Q 850 -200 722 138 
Q 547 600 478 1125 
Q 444 1397 444 1644 
Q 444 2569 734 3291 
Q 919 3750 1503 4666 
L 1894 4666 
z
" transform="scale(0.015625)"/>
       <path id="Helvetica-6d" d="M 413 3347 
L 969 3347 
L 969 2872 
Q 1169 3119 1331 3231 
Q 1609 3422 1963 3422 
Q 2363 3422 2606 3225 
Q 2744 3113 2856 2894 
Q 3044 3163 3297 3292 
Q 3550 3422 3866 3422 
Q 4541 3422 4784 2934 
Q 4916 2672 4916 2228 
L 4916 0 
L 4331 0 
L 4331 2325 
Q 4331 2659 4164 2784 
Q 3997 2909 3756 2909 
Q 3425 2909 3186 2687 
Q 2947 2466 2947 1947 
L 2947 0 
L 2375 0 
L 2375 2184 
Q 2375 2525 2294 2681 
Q 2166 2916 1816 2916 
Q 1497 2916 1236 2669 
Q 975 2422 975 1775 
L 975 0 
L 413 0 
L 413 3347 
z
" transform="scale(0.015625)"/>
       <path id="Helvetica-29" d="M 222 -1306 
Q 719 -338 863 106 
Q 1081 778 1081 1681 
Q 1081 2584 828 3334 
Q 672 3797 213 4666 
L 591 4666 
Q 1072 3897 1173 3717 
Q 1275 3538 1394 3222 
Q 1544 2831 1608 2450 
Q 1672 2069 1672 1716 
Q 1672 791 1378 66 
Q 1194 -400 613 -1306 
L 222 -1306 
z
" transform="scale(0.015625)"/>
      </defs>
      <use xlink:href="#Helvetica-78"/>
      <use xlink:href="#Helvetica-20" transform="translate(50 0)"/>
      <use xlink:href="#Helvetica-20" transform="translate(77.783203 0)"/>
      <use xlink:href="#Helvetica-28" transform="translate(105.566406 0)"/>
      <use xlink:href="#Helvetica-6d" transform="translate(138.867188 0)"/>
      <use xlink:href="#Helvetica-29" transform="translate(222.167969 0)"/>
     </g>
    </g>
   </g>
   <g id="matplotlib.axis_2">
    <g id="ytick_1">
     <g id="line2d_7">
      <defs>
       <path id="m4771ce07e6" d="M 0 0 
L -3.5 0 
" style="stroke: #555555; stroke-width: 0.8"/>
      </defs>
      <g>
       <use xlink:href="#m4771ce07e6" x="38.5875" y="482.69125" style="fill: #555555; stroke: #555555; stroke-width: 0.8"/>
      </g>
     </g>
     <g id="text_8">
      <!-- 0 -->
      <g style="fill: #555555" transform="translate(26.582656 485.919297) scale(0.09 -0.09)">
       <use xlink:href="#Helvetica-30"/>
      </g>
     </g>
    </g>
    <g id="ytick_2">
     <g id="line2d_8">
      <g>
       <use xlink:href="#m4771ce07e6" x="38.5875" y="400.71" style="fill: #555555; stroke: #555555; stroke-width: 0.8"/>
      </g>
     </g>
     <g id="text_9">
      <!-- 10 -->
      <g style="fill: #555555" transform="translate(21.577813 403.938047) scale(0.09 -0.09)">
       <use xlink:href="#Helvetica-31"/>
       <use xlink:href="#Helvetica-30" transform="translate(55.615234 0)"/>
      </g>
     </g>
    </g>
    <g id="ytick_3">
     <g id="line2d_9">
      <g>
       <use xlink:href="#m4771ce07e6" x="38.5875" y="318.72875" style="fill: #555555; stroke: #555555; stroke-width: 0.8"/>
      </g>
     </g>
     <g id="text_10">
      <!-- 20 -->
      <g style="fill: #555555" transform="translate(21.577813 321.956797) scale(0.09 -0.09)">
       <use xlink:href="#Helvetica-32"/>
       <use xlink:href="#Helvetica-30" transform="translate(55.615234 0)"/>
      </g>
     </g>
    </g>
    <g id="ytick_4">
     <g id="line2d_10">
      <g>
       <use xlink:href="#m4771ce07e6" x="38.5875" y="236.7475" style="fill: #555555; stroke: #555555; stroke-width: 0.8"/>
      </g>
     </g>
     <g id="text_11">
      <!-- 30 -->
      <g style="fill: #555555" transform="translate(21.577813 239.975547) scale(0.09 -0.09)">
       <use xlink:href="#Helvetica-33"/>
       <use xlink:href="#Helvetica-30" transform="translate(55.615234 0)"/>
      </g>
     </g>
    </g>
    <g id="ytick_5">
     <g id="line2d_11">
      <g>
       <use xlink:href="#m4771ce07e6" x="38.5875" y="154.76625" style="fill: #555555; stroke: #555555; stroke-width: 0.8"/>
      </g>
     </g>
     <g id="text_12">
      <!-- 40 -->
      <g style="fill: #555555" transform="translate(21.577813 157.994297) scale(0.09 -0.09)">
       <use xlink:href="#Helvetica-34"/>
       <use xlink:href="#Helvetica-30" transform="translate(55.615234 0)"/>
      </g>
     </g>
    </g>
    <g id="ytick_6">
     <g id="line2d_12">
      <g>
       <use xlink:href="#m4771ce07e6" x="38.5875" y="72.785" style="fill: #555555; stroke: #555555; stroke-width: 0.8"/>
      </g>
     </g>
     <g id="text_13">
      <!-- 50 -->
      <g style="fill: #555555" transform="translate(21.577813 76.013047) scale(0.09 -0.09)">
       <use xlink:href="#Helvetica-35"/>
       <use xlink:href="#Helvetica-30" transform="translate(55.615234 0)"/>
      </g>
     </g>
    </g>
    <g id="text_14">
     <!-- y  (m) -->
     <g style="fill: #222222" transform="translate(15.219688 283.589922) rotate(-90) scale(0.11 -0.11)">
      <defs>
       <path id="Helvetica-79" d="M 2503 3347 
L 3125 3347 
Q 3006 3025 2597 1878 
Q 2291 1016 2084 472 
Q 1597 -809 1397 -1090 
Q 1197 -1372 709 -1372 
Q 591 -1372 527 -1362 
Q 463 -1353 369 -1328 
L 369 -816 
Q 516 -856 581 -865 
Q 647 -875 697 -875 
Q 853 -875 926 -823 
Q 1000 -772 1050 -697 
Q 1066 -672 1162 -440 
Q 1259 -209 1303 -97 
L 66 3347 
L 703 3347 
L 1600 622 
L 2503 3347 
z
M 1597 3428 
L 1597 3428 
z
" transform="scale(0.015625)"/>
      </defs>
      <use xlink:href="#Helvetica-79"/>
      <use xlink:href="#Helvetica-20" transform="translate(50 0)"/>
      <use xlink:href="#Helvetica-20" transform="translate(77.783203 0)"/>
      <use xlink:href="#Helvetica-28" transform="translate(105.566406 0)"/>
      <use xlink:href="#Helvetica-6d" transform="translate(138.867188 0)"/>
      <use xlink:href="#Helvetica-29" transform="translate(222.167969 0)"/>
     </g>
    </g>
   </g>
   <g id="patch_4">
    <path d="M 231.243437 339.224063 
L 354.215312 339.224063 
L 354.215312 216.252188 
L 231.243437 216.252188 
z
" clip-path="url(#pc7242d45c3)" style="fill: #fecaca; opacity: 0.65; stroke: #ef4444; stroke-width: 1.5; stroke-linejoin: miter"/>
   </g>
   <g id="line2d_13">
    <path d="M 104.1725 400.71 
L 481.28625 400.71 
" clip-path="url(#pc7242d45c3)" style="fill: none; stroke-dasharray: 0.9,1.8; stroke-dashoffset: 0; stroke: #bbbbbb; stroke-width: 0.9"/>
   </g>
   <g id="line2d_14">
    <path d="M 104.1725 154.76625 
L 481.28625 154.76625 
" clip-path="url(#pc7242d45c3)" style="fill: none; stroke-dasharray: 0.9,1.8; stroke-dashoffset: 0; stroke: #bbbbbb; stroke-width: 0.9"/>
   </g>
   <g id="line2d_15">
    <path d="M 104.1725 302.3325 
L 481.28625 302.3325 
" clip-path="url(#pc7242d45c3)" style="fill: none; stroke-dasharray: 0.9,1.8; stroke-dashoffset: 0; stroke: #bbbbbb; stroke-width: 0.9"/>
   </g>
   <g id="line2d_16">
    <path d="M 104.1725 277.738125 
L 481.28625 277.738125 
" clip-path="url(#pc7242d45c3)" style="fill: none; stroke-dasharray: 0.9,1.8; stroke-dashoffset: 0; stroke: #bbbbbb; stroke-width: 0.9"/>
   </g>
   <g id="line2d_17">
    <path d="M 104.1725 253.14375 
L 481.28625 253.14375 
" clip-path="url(#pc7242d45c3)" style="fill: none; stroke-dasharray: 0.9,1.8; stroke-dashoffset: 0; stroke: #bbbbbb; stroke-width: 0.9"/>
   </g>
   <g id="patch_5">
    <path d="M 38.5875 531.88 
L 38.5875 7.2 
" style="fill: none; stroke: #222222; stroke-width: 0.8; stroke-linejoin: miter; stroke-linecap: square"/>
   </g>
   <g id="patch_6">
    <path d="M 38.5875 531.88 
L 579.66375 531.88 
" style="fill: none; stroke: #222222; stroke-width: 0.8; stroke-linejoin: miter; stroke-linecap: square"/>
   </g>
   <g id="line2d_18">
    <defs>
     <path id="m2e3a471653" d="M 0 1.75 
C 0.464105 1.75 0.909265 1.565609 1.237437 1.237437 
C 1.565609 0.909265 1.75 0.464105 1.75 0 
C 1.75 -0.464105 1.565609 -0.909265 1.237437 -1.237437 
C 0.909265 -1.565609 0.464105 -1.75 0 -1.75 
C -0.464105 -1.75 -0.909265 -1.565609 -1.237437 -1.237437 
C -1.565609 -0.909265 -1.75 -0.464105 -1.75 0 
C -1.75 0.464105 -1.565609 0.909265 -1.237437 1.237437 
C -0.909265 1.565609 -0.464105 1.75 0 1.75 
z
" style="stroke: #222222"/>
    </defs>
    <g clip-path="url(#pc7242d45c3)">
     <use xlink:href="#m2e3a471653" x="104.1725" y="400.71" style="fill: #222222; stroke: #222222"/>
    </g>
   </g>
   <g id="patch_7">
    <path d="M 458.694371 400.71 
Q 468.990609 400.71 478.168813 400.71 
" clip-path="url(#pc7242d45c3)" style="fill: none; stroke: #222222; stroke-linecap: round"/>
    <path d="M 473.768813 398.51 
L 478.168813 400.71 
L 473.768813 402.91 
z
" clip-path="url(#pc7242d45c3)" style="fill: #222222; stroke: #222222; stroke-linecap: round"/>
   </g>
   <g id="line2d_19">
    <g clip-path="url(#pc7242d45c3)">
     <use xlink:href="#m2e3a471653" x="104.1725" y="154.76625" style="fill: #222222; stroke: #222222"/>
    </g>
   </g>
   <g id="patch_8">
    <path d="M 458.694371 154.76625 
Q 468.990609 154.76625 478.168813 154.76625 
" clip-path="url(#pc7242d45c3)" style="fill: none; stroke: #222222; stroke-linecap: round"/>
    <path d="M 473.768813 152.56625 
L 478.168813 154.76625 
L 473.768813 156.96625 
z
" clip-path="url(#pc7242d45c3)" style="fill: #222222; stroke: #222222; stroke-linecap: round"/>
   </g>
   <g id="line2d_20">
    <g clip-path="url(#pc7242d45c3)">
     <use xlink:href="#m2e3a471653" x="104.1725" y="302.3325" style="fill: #222222; stroke: #222222"/>
    </g>
   </g>
   <g id="patch_9">
    <path d="M 458.694371 302.3325 
Q 468.990609 302.3325 478.168813 302.3325 
" clip-path="url(#pc7242d45c3)" style="fill: none; stroke: #222222; stroke-linecap: round"/>
    <path d="M 473.768813 300.1325 
L 478.168813 302.3325 
L 473.768813 304.5325 
z
" clip-path="url(#pc7242d45c3)" style="fill: #222222; stroke: #222222; stroke-linecap: round"/>
   </g>
   <g id="line2d_21">
    <g clip-path="url(#pc7242d45c3)">
     <use xlink:href="#m2e3a471653" x="104.1725" y="277.738125" style="fill: #222222; stroke: #222222"/>
    </g>
   </g>
   <g id="patch_10">
    <path d="M 458.694371 277.738125 
Q 468.990609 277.738125 478.168813 277.738125 
" clip-path="url(#pc7242d45c3)" style="fill: none; stroke: #222222; stroke-linecap: round"/>
    <path d="M 473.768813 275.538125 
L 478.168813 277.738125 
L 473.768813 279.938125 
z
" clip-path="url(#pc7242d45c3)" style="fill: #222222; stroke: #222222; stroke-linecap: round"/>
   </g>
   <g id="line2d_22">
    <g clip-path="url(#pc7242d45c3)">
     <use xlink:href="#m2e3a471653" x="104.1725" y="253.14375" style="fill: #222222; stroke: #222222"/>
    </g>
   </g>
   <g id="patch_11">
    <path d="M 458.694371 253.14375 
Q 468.990609 253.14375 478.168813 253.14375 
" clip-path="url(#pc7242d45c3)" style="fill: none; stroke: #222222; stroke-linecap: round"/>
    <path d="M 473.768813 250.94375 
L 478.168813 253.14375 
L 473.768813 255.34375 
z
" clip-path="url(#pc7242d45c3)" style="fill: #222222; stroke: #222222; stroke-linecap: round"/>
   </g>
   <g id="patch_12">
    <path d="M 528.835375 140.367492 
Q 528.835375 154.763181 528.835375 169.15887 
" style="fill: none; stroke: #555555; stroke-linecap: round"/>
   </g>
   <g id="text_15">
    <!-- outer -->
    <g style="fill: #555555" transform="translate(532.114625 157.056328) scale(0.09 -0.09)">
     <defs>
      <path id="Helvetica-6f" d="M 1741 363 
Q 2300 363 2508 786 
Q 2716 1209 2716 1728 
Q 2716 2197 2566 2491 
Q 2328 2953 1747 2953 
Q 1231 2953 997 2559 
Q 763 2166 763 1609 
Q 763 1075 997 719 
Q 1231 363 1741 363 
z
M 1763 3444 
Q 2409 3444 2856 3012 
Q 3303 2581 3303 1744 
Q 3303 934 2909 406 
Q 2516 -122 1688 -122 
Q 997 -122 590 345 
Q 184 813 184 1600 
Q 184 2444 612 2944 
Q 1041 3444 1763 3444 
z
M 1744 3428 
L 1744 3428 
z
" transform="scale(0.015625)"/>
      <path id="Helvetica-75" d="M 975 3347 
L 975 1125 
Q 975 869 1056 706 
Q 1206 406 1616 406 
Q 2203 406 2416 931 
Q 2531 1213 2531 1703 
L 2531 3347 
L 3094 3347 
L 3094 0 
L 2563 0 
L 2569 494 
Q 2459 303 2297 172 
Q 1975 -91 1516 -91 
Q 800 -91 541 388 
Q 400 644 400 1072 
L 400 3347 
L 975 3347 
z
M 1747 3428 
L 1747 3428 
z
" transform="scale(0.015625)"/>
      <path id="Helvetica-74" d="M 525 4281 
L 1094 4281 
L 1094 3347 
L 1628 3347 
L 1628 2888 
L 1094 2888 
L 1094 703 
Q 1094 528 1213 469 
Q 1278 434 1431 434 
Q 1472 434 1519 436 
Q 1566 438 1628 444 
L 1628 0 
Q 1531 -28 1426 -40 
Q 1322 -53 1200 -53 
Q 806 -53 665 148 
Q 525 350 525 672 
L 525 2888 
L 72 2888 
L 72 3347 
L 525 3347 
L 525 4281 
z
" transform="scale(0.015625)"/>
      <path id="Helvetica-65" d="M 1806 3422 
Q 2163 3422 2497 3255 
Q 2831 3088 3006 2822 
Q 3175 2569 3231 2231 
Q 3281 2000 3281 1494 
L 828 1494 
Q 844 984 1069 676 
Q 1294 369 1766 369 
Q 2206 369 2469 659 
Q 2619 828 2681 1050 
L 3234 1050 
Q 3213 866 3089 639 
Q 2966 413 2813 269 
Q 2556 19 2178 -69 
Q 1975 -119 1719 -119 
Q 1094 -119 659 336 
Q 225 791 225 1609 
Q 225 2416 662 2919 
Q 1100 3422 1806 3422 
z
M 2703 1941 
Q 2669 2306 2544 2525 
Q 2313 2931 1772 2931 
Q 1384 2931 1121 2651 
Q 859 2372 844 1941 
L 2703 1941 
z
M 1753 3428 
L 1753 3428 
z
" transform="scale(0.015625)"/>
      <path id="Helvetica-72" d="M 428 3347 
L 963 3347 
L 963 2769 
Q 1028 2938 1284 3180 
Q 1541 3422 1875 3422 
Q 1891 3422 1928 3419 
Q 1966 3416 2056 3406 
L 2056 2813 
Q 2006 2822 1964 2825 
Q 1922 2828 1872 2828 
Q 1447 2828 1219 2554 
Q 991 2281 991 1925 
L 991 0 
L 428 0 
L 428 3347 
z
" transform="scale(0.015625)"/>
     </defs>
     <use xlink:href="#Helvetica-6f"/>
     <use xlink:href="#Helvetica-75" transform="translate(55.615234 0)"/>
     <use xlink:href="#Helvetica-74" transform="translate(111.230469 0)"/>
     <use xlink:href="#Helvetica-65" transform="translate(139.013672 0)"/>
     <use xlink:href="#Helvetica-72" transform="translate(194.628906 0)"/>
    </g>
   </g>
   <g id="patch_13">
    <path d="M 528.835375 386.311242 
Q 528.835375 400.706931 528.835375 415.10262 
" style="fill: none; stroke: #555555; stroke-linecap: round"/>
   </g>
   <g id="text_16">
    <!-- outer -->
    <g style="fill: #555555" transform="translate(532.114625 403.000078) scale(0.09 -0.09)">
     <use xlink:href="#Helvetica-6f"/>
     <use xlink:href="#Helvetica-75" transform="translate(55.615234 0)"/>
     <use xlink:href="#Helvetica-74" transform="translate(111.230469 0)"/>
     <use xlink:href="#Helvetica-65" transform="translate(139.013672 0)"/>
     <use xlink:href="#Helvetica-72" transform="translate(194.628906 0)"/>
    </g>
   </g>
   <g id="patch_14">
    <path d="M 528.835375 242.85056 
Q 528.835375 277.739054 528.835375 312.627548 
" style="fill: none; stroke: #555555; stroke-linecap: round"/>
   </g>
   <g id="text_17">
    <!-- center -->
    <g style="fill: #555555" transform="translate(532.114625 280.028203) scale(0.09 -0.09)">
     <defs>
      <path id="Helvetica-63" d="M 1703 3444 
Q 2269 3444 2623 3169 
Q 2978 2894 3050 2222 
L 2503 2222 
Q 2453 2531 2275 2736 
Q 2097 2941 1703 2941 
Q 1166 2941 934 2416 
Q 784 2075 784 1575 
Q 784 1072 996 728 
Q 1209 384 1666 384 
Q 2016 384 2220 598 
Q 2425 813 2503 1184 
L 3050 1184 
Q 2956 519 2581 211 
Q 2206 -97 1622 -97 
Q 966 -97 575 383 
Q 184 863 184 1581 
Q 184 2463 612 2953 
Q 1041 3444 1703 3444 
z
M 1616 3428 
L 1616 3428 
z
" transform="scale(0.015625)"/>
      <path id="Helvetica-6e" d="M 413 3347 
L 947 3347 
L 947 2872 
Q 1184 3166 1450 3294 
Q 1716 3422 2041 3422 
Q 2753 3422 3003 2925 
Q 3141 2653 3141 2147 
L 3141 0 
L 2569 0 
L 2569 2109 
Q 2569 2416 2478 2603 
Q 2328 2916 1934 2916 
Q 1734 2916 1606 2875 
Q 1375 2806 1200 2600 
Q 1059 2434 1017 2257 
Q 975 2081 975 1753 
L 975 0 
L 413 0 
L 413 3347 
z
M 1734 3428 
L 1734 3428 
z
" transform="scale(0.015625)"/>
     </defs>
     <use xlink:href="#Helvetica-63"/>
     <use xlink:href="#Helvetica-65" transform="translate(50 0)"/>
     <use xlink:href="#Helvetica-6e" transform="translate(105.615234 0)"/>
     <use xlink:href="#Helvetica-74" transform="translate(161.230469 0)"/>
     <use xlink:href="#Helvetica-65" transform="translate(189.013672 0)"/>
     <use xlink:href="#Helvetica-72" transform="translate(244.628906 0)"/>
    </g>
   </g>
   <g id="patch_15">
    <path d="M 385.04859 93.761071 
Q 333.696584 109.621612 282.344578 125.482153 
" style="fill: none; stroke: #1f4e79; stroke-width: 0.8; stroke-linecap: round"/>
   </g>
   <g id="text_18">
    <!-- sensing radius (5 m) -->
    <g style="fill: #1f4e79" transform="translate(366.5125 89.18125) scale(0.09 -0.09)">
     <defs>
      <path id="Helvetica-73" d="M 747 1050 
Q 772 769 888 619 
Q 1100 347 1625 347 
Q 1938 347 2175 483 
Q 2413 619 2413 903 
Q 2413 1119 2222 1231 
Q 2100 1300 1741 1391 
L 1294 1503 
Q 866 1609 663 1741 
Q 300 1969 300 2372 
Q 300 2847 642 3140 
Q 984 3434 1563 3434 
Q 2319 3434 2653 2991 
Q 2863 2709 2856 2384 
L 2325 2384 
Q 2309 2575 2191 2731 
Q 1997 2953 1519 2953 
Q 1200 2953 1036 2831 
Q 872 2709 872 2509 
Q 872 2291 1088 2159 
Q 1213 2081 1456 2022 
L 1828 1931 
Q 2434 1784 2641 1647 
Q 2969 1431 2969 969 
Q 2969 522 2630 197 
Q 2291 -128 1597 -128 
Q 850 -128 539 211 
Q 228 550 206 1050 
L 747 1050 
z
M 1578 3428 
L 1578 3428 
z
" transform="scale(0.015625)"/>
      <path id="Helvetica-69" d="M 413 3331 
L 984 3331 
L 984 0 
L 413 0 
L 413 3331 
z
M 413 4591 
L 984 4591 
L 984 3953 
L 413 3953 
L 413 4591 
z
" transform="scale(0.015625)"/>
      <path id="Helvetica-67" d="M 1594 3406 
Q 1988 3406 2281 3213 
Q 2441 3103 2606 2894 
L 2606 3316 
L 3125 3316 
L 3125 272 
Q 3125 -366 2938 -734 
Q 2588 -1416 1616 -1416 
Q 1075 -1416 706 -1173 
Q 338 -931 294 -416 
L 866 -416 
Q 906 -641 1028 -763 
Q 1219 -950 1628 -950 
Q 2275 -950 2475 -494 
Q 2594 -225 2584 466 
Q 2416 209 2178 84 
Q 1941 -41 1550 -41 
Q 1006 -41 598 345 
Q 191 731 191 1622 
Q 191 2463 602 2934 
Q 1013 3406 1594 3406 
z
M 2606 1688 
Q 2606 2309 2350 2609 
Q 2094 2909 1697 2909 
Q 1103 2909 884 2353 
Q 769 2056 769 1575 
Q 769 1009 998 714 
Q 1228 419 1616 419 
Q 2222 419 2469 966 
Q 2606 1275 2606 1688 
z
M 1659 3428 
L 1659 3428 
z
" transform="scale(0.015625)"/>
      <path id="Helvetica-61" d="M 844 891 
Q 844 647 1022 506 
Q 1200 366 1444 366 
Q 1741 366 2019 503 
Q 2488 731 2488 1250 
L 2488 1703 
Q 2384 1638 2221 1594 
Q 2059 1550 1903 1531 
L 1563 1488 
Q 1256 1447 1103 1359 
Q 844 1213 844 891 
z
M 2206 2028 
Q 2400 2053 2466 2191 
Q 2503 2266 2503 2406 
Q 2503 2694 2298 2823 
Q 2094 2953 1713 2953 
Q 1272 2953 1088 2716 
Q 984 2584 953 2325 
L 428 2325 
Q 444 2944 830 3186 
Q 1216 3428 1725 3428 
Q 2316 3428 2684 3203 
Q 3050 2978 3050 2503 
L 3050 575 
Q 3050 488 3086 434 
Q 3122 381 3238 381 
Q 3275 381 3322 386 
Q 3369 391 3422 400 
L 3422 -16 
Q 3291 -53 3222 -62 
Q 3153 -72 3034 -72 
Q 2744 -72 2613 134 
Q 2544 244 2516 444 
Q 2344 219 2022 53 
Q 1700 -113 1313 -113 
Q 847 -113 551 170 
Q 256 453 256 878 
Q 256 1344 547 1600 
Q 838 1856 1309 1916 
L 2206 2028 
z
M 1741 3428 
L 1741 3428 
z
" transform="scale(0.015625)"/>
      <path id="Helvetica-64" d="M 769 1634 
Q 769 1097 997 734 
Q 1225 372 1728 372 
Q 2119 372 2370 708 
Q 2622 1044 2622 1672 
Q 2622 2306 2362 2611 
Q 2103 2916 1722 2916 
Q 1297 2916 1033 2591 
Q 769 2266 769 1634 
z
M 1616 3406 
Q 2000 3406 2259 3244 
Q 2409 3150 2600 2916 
L 2600 4606 
L 3141 4606 
L 3141 0 
L 2634 0 
L 2634 466 
Q 2438 156 2169 18 
Q 1900 -119 1553 -119 
Q 994 -119 584 351 
Q 175 822 175 1603 
Q 175 2334 548 2870 
Q 922 3406 1616 3406 
z
" transform="scale(0.015625)"/>
     </defs>
     <use xlink:href="#Helvetica-73"/>
     <use xlink:href="#Helvetica-65" transform="translate(50 0)"/>
     <use xlink:href="#Helvetica-6e" transform="translate(105.615234 0)"/>
     <use xlink:href="#Helvetica-73" transform="translate(161.230469 0)"/>
     <use xlink:href="#Helvetica-69" transform="translate(211.230469 0)"/>
     <use xlink:href="#Helvetica-6e" transform="translate(233.447266 0)"/>
     <use xlink:href="#Helvetica-67" transform="translate(289.0625 0)"/>
     <use xlink:href="#Helvetica-20" transform="translate(344.677734 0)"/>
     <use xlink:href="#Helvetica-72" transform="translate(372.460938 0)"/>
     <use xlink:href="#Helvetica-61" transform="translate(405.761719 0)"/>
     <use xlink:href="#Helvetica-64" transform="translate(461.376953 0)"/>
     <use xlink:href="#Helvetica-69" transform="translate(516.992188 0)"/>
     <use xlink:href="#Helvetica-75" transform="translate(539.208984 0)"/>
     <use xlink:href="#Helvetica-73" transform="translate(594.824219 0)"/>
     <use xlink:href="#Helvetica-20" transform="translate(644.824219 0)"/>
     <use xlink:href="#Helvetica-28" transform="translate(672.607422 0)"/>
     <use xlink:href="#Helvetica-35" transform="translate(705.908203 0)"/>
     <use xlink:href="#Helvetica-20" transform="translate(761.523438 0)"/>
     <use xlink:href="#Helvetica-6d" transform="translate(789.306641 0)"/>
     <use xlink:href="#Helvetica-29" transform="translate(872.607422 0)"/>
    </g>
   </g>
   <g id="text_19">
    <!-- start -->
    <g style="fill: #555555" transform="translate(95.421406 505.543594) scale(0.09 -0.09)">
     <use xlink:href="#Helvetica-73"/>
     <use xlink:href="#Helvetica-74" transform="translate(50 0)"/>
     <use xlink:href="#Helvetica-61" transform="translate(77.783203 0)"/>
     <use xlink:href="#Helvetica-72" transform="translate(133.398438 0)"/>
     <use xlink:href="#Helvetica-74" transform="translate(166.699219 0)"/>
    </g>
   </g>
   <g id="text_20">
    <!-- destination -->
    <g style="fill: #555555" transform="translate(459.521719 505.543594) scale(0.09 -0.09)">
     <use xlink:href="#Helvetica-64"/>
     <use xlink:href="#Helvetica-65" transform="translate(55.615234 0)"/>
     <use xlink:href="#Helvetica-73" transform="translate(111.230469 0)"/>
     <use xlink:href="#Helvetica-74" transform="translate(161.230469 0)"/>
     <use xlink:href="#Helvetica-69" transform="translate(189.013672 0)"/>
     <use xlink:href="#Helvetica-6e" transform="translate(211.230469 0)"/>
     <use xlink:href="#Helvetica-61" transform="translate(266.845703 0)"/>
     <use xlink:href="#Helvetica-74" transform="translate(322.460938 0)"/>
     <use xlink:href="#Helvetica-69" transform="translate(350.244141 0)"/>
     <use xlink:href="#Helvetica-6f" transform="translate(372.460938 0)"/>
     <use xlink:href="#Helvetica-6e" transform="translate(428.076172 0)"/>
    </g>
   </g>
   <g id="patch_16">
    <path d="M 251.73875 441.700625 
C 262.609591 441.700625 273.036654 437.381594 280.723499 429.694749 
C 288.410344 422.007904 292.729375 411.580841 292.729375 400.71 
C 292.729375 389.839159 288.410344 379.412096 280.723499 371.725251 
C 273.036654 364.038406 262.609591 359.719375 251.73875 359.719375 
C 240.867909 359.719375 230.440846 364.038406 222.754001 371.725251 
C 215.067156 379.412096 210.748125 389.839159 210.748125 400.71 
C 210.748125 411.580841 215.067156 422.007904 222.754001 429.694749 
C 230.440846 437.381594 240.867909 441.700625 251.73875 441.700625 
L 251.73875 441.700625 
z
" clip-path="url(#pc7242d45c3)" style="fill: none; opacity: 0.75; stroke-dasharray: 3,2; stroke-dashoffset: 0; stroke: #1f4e79; stroke-linejoin: miter"/>
   </g>
   <g id="patch_17">
    <path d="M 251.73875 195.756875 
C 262.609591 195.756875 273.036654 191.437844 280.723499 183.750999 
C 288.410344 176.064154 292.729375 165.637091 292.729375 154.76625 
C 292.729375 143.895409 288.410344 133.468346 280.723499 125.781501 
C 273.036654 118.094656 262.609591 113.775625 251.73875 113.775625 
C 240.867909 113.775625 230.440846 118.094656 222.754001 125.781501 
C 215.067156 133.468346 210.748125 143.895409 210.748125 154.76625 
C 210.748125 165.637091 215.067156 176.064154 222.754001 183.750999 
C 230.440846 191.437844 240.867909 195.756875 251.73875 195.756875 
L 251.73875 195.756875 
z
" clip-path="url(#pc7242d45c3)" style="fill: none; opacity: 0.75; stroke-dasharray: 3,2; stroke-dashoffset: 0; stroke: #1f4e79; stroke-linejoin: miter"/>
   </g>
   <g id="patch_18">
    <path d="M 251.73875 343.323125 
C 262.609591 343.323125 273.036654 339.004094 280.723499 331.317249 
C 288.410344 323.630404 292.729375 313.203341 292.729375 302.3325 
C 292.729375 291.461659 288.410344 281.034596 280.723499 273.347751 
C 273.036654 265.660906 262.609591 261.341875 251.73875 261.341875 
C 240.867909 261.341875 230.440846 265.660906 222.754001 273.347751 
C 215.067156 281.034596 210.748125 291.461659 210.748125 302.3325 
C 210.748125 313.203341 215.067156 323.630404 222.754001 331.317249 
C 230.440846 339.004094 240.867909 343.323125 251.73875 343.323125 
L 251.73875 343.323125 
z
" clip-path="url(#pc7242d45c3)" style="fill: none; opacity: 0.75; stroke-dasharray: 3,2; stroke-dashoffset: 0; stroke: #1f4e79; stroke-linejoin: miter"/>
   </g>
   <g id="patch_19">
    <path d="M 251.73875 318.72875 
C 262.609591 318.72875 273.036654 314.409719 280.723499 306.722874 
C 288.410344 299.036029 292.729375 288.608966 292.729375 277.738125 
C 292.729375 266.867284 288.410344 256.440221 280.723499 248.753376 
C 273.036654 241.066531 262.609591 236.7475 251.73875 236.7475 
C 240.867909 236.7475 230.440846 241.066531 222.754001 248.753376 
C 215.067156 256.440221 210.748125 266.867284 210.748125 277.738125 
C 210.748125 288.608966 215.067156 299.036029 222.754001 306.722874 
C 230.440846 314.409719 240.867909 318.72875 251.73875 318.72875 
L 251.73875 318.72875 
z
" clip-path="url(#pc7242d45c3)" style="fill: none; opacity: 0.75; stroke-dasharray: 3,2; stroke-dashoffset: 0; stroke: #1f4e79; stroke-linejoin: miter"/>
   </g>
   <g id="patch_20">
    <path d="M 251.73875 294.134375 
C 262.609591 294.134375 273.036654 289.815344 280.723499 282.128499 
C 288.410344 274.441654 292.729375 264.014591 292.729375 253.14375 
C 292.729375 242.272909 288.410344 231.845846 280.723499 224.159001 
C 273.036654 216.472156 262.609591 212.153125 251.73875 212.153125 
C 240.867909 212.153125 230.440846 216.472156 222.754001 224.159001 
C 215.067156 231.845846 210.748125 242.272909 210.748125 253.14375 
C 210.748125 264.014591 215.067156 274.441654 222.754001 282.128499 
C 230.440846 289.815344 240.867909 294.134375 251.73875 294.134375 
L 251.73875 294.134375 
z
" clip-path="url(#pc7242d45c3)" style="fill: none; opacity: 0.75; stroke-dasharray: 3,2; stroke-dashoffset: 0; stroke: #1f4e79; stroke-linejoin: miter"/>
   </g>
   <g id="text_21">
    <!-- Risk zone (15 m × 15 m) -->
    <g style="fill: #b91c1c" transform="translate(238.130156 207.609313) scale(0.1 -0.1)">
     <defs>
      <path id="Helvetica-52" d="M 2622 2488 
Q 3059 2488 3314 2663 
Q 3569 2838 3569 3294 
Q 3569 3784 3213 3963 
Q 3022 4056 2703 4056 
L 1184 4056 
L 1184 2488 
L 2622 2488 
z
M 563 4591 
L 2688 4591 
Q 3213 4591 3553 4438 
Q 4200 4144 4200 3353 
Q 4200 2941 4029 2678 
Q 3859 2416 3553 2256 
Q 3822 2147 3958 1969 
Q 4094 1791 4109 1391 
L 4131 775 
Q 4141 513 4175 384 
Q 4231 166 4375 103 
L 4375 0 
L 3613 0 
Q 3581 59 3562 153 
Q 3544 247 3531 516 
L 3494 1281 
Q 3472 1731 3159 1884 
Q 2981 1969 2600 1969 
L 1184 1969 
L 1184 0 
L 563 0 
L 563 4591 
z
" transform="scale(0.015625)"/>
      <path id="Helvetica-6b" d="M 400 4591 
L 941 4591 
L 941 1925 
L 2384 3347 
L 3103 3347 
L 1822 2094 
L 3175 0 
L 2456 0 
L 1413 1688 
L 941 1256 
L 941 0 
L 400 0 
L 400 4591 
z
" transform="scale(0.015625)"/>
      <path id="Helvetica-7a" d="M 163 444 
L 2147 2844 
L 309 2844 
L 309 3347 
L 2903 3347 
L 2903 2888 
L 931 503 
L 2963 503 
L 2963 0 
L 163 0 
L 163 444 
z
M 1609 3428 
L 1609 3428 
z
" transform="scale(0.015625)"/>
      <path id="Helvetica-d7" d="M 363 2822 
L 731 3191 
L 1916 2006 
L 3103 3191 
L 3481 2822 
L 2294 1634 
L 3481 450 
L 3103 72 
L 1916 1256 
L 731 72 
L 363 450 
L 1547 1634 
L 363 2822 
z
" transform="scale(0.015625)"/>
     </defs>
     <use xlink:href="#Helvetica-52"/>
     <use xlink:href="#Helvetica-69" transform="translate(72.216797 0)"/>
     <use xlink:href="#Helvetica-73" transform="translate(94.433594 0)"/>
     <use xlink:href="#Helvetica-6b" transform="translate(144.433594 0)"/>
     <use xlink:href="#Helvetica-20" transform="translate(194.433594 0)"/>
     <use xlink:href="#Helvetica-7a" transform="translate(222.216797 0)"/>
     <use xlink:href="#Helvetica-6f" transform="translate(272.216797 0)"/>
     <use xlink:href="#Helvetica-6e" transform="translate(327.832031 0)"/>
     <use xlink:href="#Helvetica-65" transform="translate(383.447266 0)"/>
     <use xlink:href="#Helvetica-20" transform="translate(439.0625 0)"/>
     <use xlink:href="#Helvetica-28" transform="translate(466.845703 0)"/>
     <use xlink:href="#Helvetica-31" transform="translate(500.146484 0)"/>
     <use xlink:href="#Helvetica-35" transform="translate(555.761719 0)"/>
     <use xlink:href="#Helvetica-20" transform="translate(611.376953 0)"/>
     <use xlink:href="#Helvetica-6d" transform="translate(639.160156 0)"/>
     <use xlink:href="#Helvetica-20" transform="translate(722.460938 0)"/>
     <use xlink:href="#Helvetica-d7" transform="translate(750.244141 0)"/>
     <use xlink:href="#Helvetica-20" transform="translate(808.642578 0)"/>
     <use xlink:href="#Helvetica-31" transform="translate(836.425781 0)"/>
     <use xlink:href="#Helvetica-35" transform="translate(892.041016 0)"/>
     <use xlink:href="#Helvetica-20" transform="translate(947.65625 0)"/>
     <use xlink:href="#Helvetica-6d" transform="translate(975.439453 0)"/>
     <use xlink:href="#Helvetica-29" transform="translate(1058.740234 0)"/>
    </g>
   </g>
   <g id="line2d_23">
    <defs>
     <path id="m15972b88de" d="M 0 3.5 
C 0.928211 3.5 1.81853 3.131218 2.474874 2.474874 
C 3.131218 1.81853 3.5 0.928211 3.5 0 
C 3.5 -0.928211 3.131218 -1.81853 2.474874 -2.474874 
C 1.81853 -3.131218 0.928211 -3.5 0 -3.5 
C -0.928211 -3.5 -1.81853 -3.131218 -2.474874 -2.474874 
C -3.131218 -1.81853 -3.5 -0.928211 -3.5 0 
C -3.5 0.928211 -3.131218 1.81853 -2.474874 2.474874 
C -1.81853 3.131218 -0.928211 3.5 0 3.5 
z
" style="stroke: #ffffff"/>
    </defs>
    <g clip-path="url(#pc7242d45c3)">
     <use xlink:href="#m15972b88de" x="251.73875" y="400.71" style="fill: #1f4e79; stroke: #ffffff"/>
    </g>
   </g>
   <g id="text_22">
    <!-- Agent 1 -->
    <g style="fill: #222222" transform="translate(302.567125 403.190469) scale(0.1 -0.1)">
     <defs>
      <path id="Helvetica-41" d="M 2844 1881 
L 2147 3909 
L 1406 1881 
L 2844 1881 
z
M 1822 4591 
L 2525 4591 
L 4191 0 
L 3509 0 
L 3044 1375 
L 1228 1375 
L 731 0 
L 94 0 
L 1822 4591 
z
" transform="scale(0.015625)"/>
     </defs>
     <use xlink:href="#Helvetica-41"/>
     <use xlink:href="#Helvetica-67" transform="translate(66.699219 0)"/>
     <use xlink:href="#Helvetica-65" transform="translate(122.314453 0)"/>
     <use xlink:href="#Helvetica-6e" transform="translate(177.929688 0)"/>
     <use xlink:href="#Helvetica-74" transform="translate(233.544922 0)"/>
     <use xlink:href="#Helvetica-20" transform="translate(261.328125 0)"/>
     <use xlink:href="#Helvetica-31" transform="translate(289.111328 0)"/>
    </g>
   </g>
   <g id="line2d_24">
    <g clip-path="url(#pc7242d45c3)">
     <use xlink:href="#m15972b88de" x="251.73875" y="154.76625" style="fill: #1f4e79; stroke: #ffffff"/>
    </g>
   </g>
   <g id="text_23">
    <!-- Agent 2 -->
    <g style="fill: #222222" transform="translate(302.567125 157.246719) scale(0.1 -0.1)">
     <use xlink:href="#Helvetica-41"/>
     <use xlink:href="#Helvetica-67" transform="translate(66.699219 0)"/>
     <use xlink:href="#Helvetica-65" transform="translate(122.314453 0)"/>
     <use xlink:href="#Helvetica-6e" transform="translate(177.929688 0)"/>
     <use xlink:href="#Helvetica-74" transform="translate(233.544922 0)"/>
     <use xlink:href="#Helvetica-20" transform="translate(261.328125 0)"/>
     <use xlink:href="#Helvetica-32" transform="translate(289.111328 0)"/>
    </g>
   </g>
   <g id="line2d_25">
    <g clip-path="url(#pc7242d45c3)">
     <use xlink:href="#m15972b88de" x="251.73875" y="302.3325" style="fill: #1f4e79; stroke: #ffffff"/>
    </g>
   </g>
   <g id="text_24">
    <!-- Agent 3 -->
    <g style="fill: #222222" transform="translate(302.567125 304.812969) scale(0.1 -0.1)">
     <use xlink:href="#Helvetica-41"/>
     <use xlink:href="#Helvetica-67" transform="translate(66.699219 0)"/>
     <use xlink:href="#Helvetica-65" transform="translate(122.314453 0)"/>
     <use xlink:href="#Helvetica-6e" transform="translate(177.929688 0)"/>
     <use xlink:href="#Helvetica-74" transform="translate(233.544922 0)"/>
     <use xlink:href="#Helvetica-20" transform="translate(261.328125 0)"/>
     <use xlink:href="#Helvetica-33" transform="translate(289.111328 0)"/>
    </g>
   </g>
   <g id="line2d_26">
    <g clip-path="url(#pc7242d45c3)">
     <use xlink:href="#m15972b88de" x="251.73875" y="277.738125" style="fill: #1f4e79; stroke: #ffffff"/>
    </g>
   </g>
   <g id="text_25">
    <!-- Agent 4 -->
    <g style="fill: #222222" transform="translate(302.567125 280.218594) scale(0.1 -0.1)">
     <use xlink:href="#Helvetica-41"/>
     <use xlink:href="#Helvetica-67" transform="translate(66.699219 0)"/>
     <use xlink:href="#Helvetica-65" transform="translate(122.314453 0)"/>
     <use xlink:href="#Helvetica-6e" transform="translate(177.929688 0)"/>
     <use xlink:href="#Helvetica-74" transform="translate(233.544922 0)"/>
     <use xlink:href="#Helvetica-20" transform="translate(261.328125 0)"/>
     <use xlink:href="#Helvetica-34" transform="translate(289.111328 0)"/>
    </g>
   </g>
   <g id="line2d_27">
    <g clip-path="url(#pc7242d45c3)">
     <use xlink:href="#m15972b88de" x="251.73875" y="253.14375" style="fill: #1f4e79; stroke: #ffffff"/>
    </g>
   </g>
   <g id="text_26">
    <!-- Agent 5 -->
    <g style="fill: #222222" transform="translate(302.567125 255.624219) scale(0.1 -0.1)">
     <use xlink:href="#Helvetica-41"/>
     <use xlink:href="#Helvetica-67" transform="translate(66.699219 0)"/>
     <use xlink:href="#Helvetica-65" transform="translate(122.314453 0)"/>
     <use xlink:href="#Helvetica-6e" transform="translate(177.929688 0)"/>
     <use xlink:href="#Helvetica-74" transform="translate(233.544922 0)"/>
     <use xlink:href="#Helvetica-20" transform="translate(261.328125 0)"/>
     <use xlink:href="#Helvetica-35" transform="translate(289.111328 0)"/>
    </g>
   </g>
  </g>
 </g>
 <defs>
  <clipPath id="pc7242d45c3">
   <rect x="38.5875" y="7.2" width="541.07625" height="524.68"/>
  </clipPath>
 </defs>
</svg>
